<?xml version="1.0" encoding="UTF-8"?>
<svg version="1.1" xmlns="http://www.w3.org/2000/svg" width="512" height="512">
<path d="M0 0 C3.66944815 3.00099539 6.96937735 6.29600157 10.25927734 9.70410156 C10.99662109 10.41050781 11.73396484 11.11691406 12.49365234 11.84472656 C16.79413805 16.21188646 19.72904977 20.97948569 22.50927734 26.39160156 C22.9854248 27.30752075 22.9854248 27.30752075 23.47119141 28.24194336 C29.78171123 41.22960364 30.83792637 53.43980424 30.74169922 67.57958984 C30.74388986 69.437213 30.74789386 71.29483475 30.7535553 73.15245056 C30.76206218 77.12309238 30.75842028 81.09346267 30.74513245 85.06409073 C30.7246756 91.34212228 30.73482225 97.6198842 30.74938965 103.8979187 C30.77604456 117.20833782 30.76941805 130.51866725 30.75927734 143.82910156 C30.7483219 158.23609012 30.74304209 172.64293919 30.77657175 187.04990375 C30.78995463 193.292677 30.783975 199.5350423 30.76320648 205.77779126 C30.75424151 209.65121996 30.7616742 213.52449008 30.7736187 217.39790535 C30.77575459 219.19585642 30.77099872 220.9938306 30.75891304 222.79174232 C30.74336494 225.24229762 30.75223016 227.69158964 30.76721191 230.14212036 C30.75672302 230.85630855 30.74623412 231.57049673 30.73542738 232.30632699 C30.7819462 235.71304863 31.02637051 237.41140534 33.17700958 240.11413383 C35.09180542 241.57622418 36.67503597 242.5545179 38.91162109 243.41503906 C39.5994165 243.68743408 40.28721191 243.9598291 40.99584961 244.24047852 C42.08530884 244.65559692 42.08530884 244.65559692 43.19677734 245.07910156 C44.72640723 245.68207993 46.25504558 246.28757927 47.78271484 246.89550781 C48.53907227 247.19602051 49.29542969 247.4965332 50.07470703 247.80615234 C54.2111555 249.50640463 58.21655253 251.47511558 62.23193359 253.44238281 C69.77885896 256.58774655 77.30070933 257.21915457 85.36865234 257.73925781 C90.68144574 258.19195564 94.08753446 259.10863547 98.25927734 262.70410156 C102.31558133 267.92670014 102.03325278 273.35750298 101.25927734 279.70410156 C99.08932132 284.28511983 96.83370108 286.60574205 92.25927734 288.70410156 C88.91904096 289.12148972 85.62090786 289.08104748 82.25927734 289.01660156 C81.32897705 289.00822266 80.39867676 288.99984375 79.44018555 288.99121094 C72.23712225 288.8663853 65.32316575 288.17192253 58.25927734 286.70410156 C58.40220215 287.26210449 58.54512695 287.82010742 58.69238281 288.39501953 C60.42445034 295.91173877 60.49125658 303.14305507 60.38427734 310.82910156 C60.37525391 312.07175781 60.36623047 313.31441406 60.35693359 314.59472656 C60.33357463 317.63139161 60.30082018 320.66764009 60.25927734 323.70410156 C65.92114322 325.05403718 71.47452024 326.06135077 77.25927734 326.70410156 C94.49334709 328.78279428 94.49334709 328.78279428 99.25927734 334.70410156 C102.37795267 339.38211456 101.84604657 344.22758878 101.25927734 349.70410156 C99.08767795 354.28858917 96.83436205 356.60171277 92.25927734 358.70410156 C88.85847662 359.17684835 85.50099348 359.17702125 82.07177734 359.14160156 C81.10739746 359.13837891 80.14301758 359.13515625 79.14941406 359.13183594 C69.84798586 358.95457856 61.19432982 357.17502965 52.25927734 354.70410156 C51.53224609 356.15429688 51.53224609 356.15429688 50.79052734 357.63378906 C47.04464523 364.95875553 43.20847604 371.55993009 37.82568359 377.84863281 C36.19986252 379.62688956 36.19986252 379.62688956 35.25927734 381.70410156 C36.33564453 382.13980469 37.41201172 382.57550781 38.52099609 383.02441406 C46.53967361 386.28923378 54.45411271 389.63177258 62.23193359 393.44238281 C69.77885896 396.58774655 77.30070933 397.21915457 85.36865234 397.73925781 C90.68144574 398.19195564 94.08753446 399.10863547 98.25927734 402.70410156 C102.31558133 407.92670014 102.03325278 413.35750298 101.25927734 419.70410156 C99.08825392 424.28737324 96.83138043 426.59805408 92.25927734 428.70410156 C88.94051907 429.14682912 85.66555551 429.13089232 82.32177734 429.07910156 C81.38317871 429.0689502 80.44458008 429.05879883 79.47753906 429.04833984 C63.42330646 428.69316989 49.79136352 423.31115617 35.50927734 416.51660156 C18.40794415 408.54988293 0.20367756 407.62519432 -17.56103516 414.04394531 C-21.47741015 415.54393391 -25.25983478 417.29340605 -29.05639648 419.0715332 C-52.77750356 430.14802077 -81.5533879 433.76200744 -106.74072266 424.70410156 C-112.18488742 422.60275452 -117.47596043 420.21676343 -122.74072266 417.70410156 C-139.58496706 409.76027272 -156.83094017 407.28638823 -175.01025391 412.67285156 C-179.76625735 414.44364027 -184.3573531 416.5204615 -188.95166016 418.66894531 C-211.77424455 429.29277998 -240.82809363 434.37491414 -265.328125 425.65625 C-272.08648013 422.98901817 -278.72133524 420.01731569 -285.30419922 416.9453125 C-301.61614372 409.33434102 -318.77376317 407.63436393 -336.18603516 412.70800781 C-341.35744709 414.63299285 -346.30504833 416.96691431 -351.27368164 419.35327148 C-351.90218018 419.65467041 -352.53067871 419.95606934 -353.17822266 420.26660156 C-353.80092041 420.56606689 -354.42361816 420.86553223 -355.06518555 421.17407227 C-366.62772544 426.60144799 -378.53158626 428.88366081 -391.24072266 429.01660156 C-392.16498047 429.04560547 -393.08923828 429.07460938 -394.04150391 429.10449219 C-399.77742463 429.15783051 -403.30611596 428.721253 -407.74072266 424.70410156 C-411.79702664 419.48150299 -411.51469809 414.05070014 -410.74072266 407.70410156 C-408.5586145 403.09742879 -406.2849908 400.89411031 -401.74072266 398.70410156 C-398.75636115 398.15857312 -395.76496671 397.97222861 -392.74072266 397.76660156 C-379.81995821 396.60211644 -369.42024336 392.67152328 -357.84741211 387.00073242 C-337.27533255 377.06959775 -309.37105558 374.76747827 -287.19775391 381.02441406 C-279.68000676 383.69970502 -272.40411641 387.09035114 -265.17724609 390.46289062 C-249.05992651 397.98305228 -230.92981427 400.33797369 -213.77978516 394.44238281 C-207.75834899 392.1644382 -201.98643016 389.34625242 -196.17822266 386.57910156 C-183.53728265 380.62582821 -171.21730262 378.50141555 -157.40576172 378.46386719 C-155.27481617 378.45425534 -153.14487597 378.42324096 -151.01416016 378.39160156 C-141.86231143 378.32181738 -132.09594569 378.52649005 -123.74072266 382.70410156 C-124.35818359 381.96289062 -124.97564453 381.22167969 -125.61181641 380.45800781 C-135.26792957 368.56927842 -142.65607576 355.52879905 -146.74072266 340.70410156 C-161.9049459 337.99620455 -175.31770056 342.29315432 -188.95166016 348.66894531 C-211.77424455 359.29277998 -240.82809363 364.37491414 -265.328125 355.65625 C-272.08648013 352.98901817 -278.72133524 350.01731569 -285.30419922 346.9453125 C-301.61614372 339.33434102 -318.77376317 337.63436393 -336.18603516 342.70800781 C-341.35744709 344.63299285 -346.30504833 346.96691431 -351.27368164 349.35327148 C-351.90218018 349.65467041 -352.53067871 349.95606934 -353.17822266 350.26660156 C-353.80092041 350.56606689 -354.42361816 350.86553223 -355.06518555 351.17407227 C-366.62772544 356.60144799 -378.53158626 358.88366081 -391.24072266 359.01660156 C-392.16498047 359.04560547 -393.08923828 359.07460938 -394.04150391 359.10449219 C-399.77742463 359.15783051 -403.30611596 358.721253 -407.74072266 354.70410156 C-411.79702664 349.48150299 -411.51469809 344.05070014 -410.74072266 337.70410156 C-408.5586145 333.09742879 -406.2849908 330.89411031 -401.74072266 328.70410156 C-398.75636115 328.15857312 -395.76496671 327.97222861 -392.74072266 327.76660156 C-379.81995821 326.60211644 -369.42024336 322.67152328 -357.84741211 317.00073242 C-337.27533255 307.06959775 -309.37105558 304.76747827 -287.19775391 311.02441406 C-279.68000676 313.69970502 -272.40411641 317.09035114 -265.17724609 320.46289062 C-249.05992651 327.98305228 -230.92981427 330.33797369 -213.77978516 324.44238281 C-207.75834899 322.1644382 -201.98643016 319.34625242 -196.17822266 316.57910156 C-186.81087676 312.16753322 -176.11617333 308.54228898 -165.65869141 308.60644531 C-164.72734375 308.60966797 -163.79599609 308.61289062 -162.83642578 308.61621094 C-161.87671875 308.62458984 -160.91701172 308.63296875 -159.92822266 308.64160156 C-158.94917969 308.64611328 -157.97013672 308.650625 -156.96142578 308.65527344 C-154.55446155 308.66701473 -152.14762409 308.68343737 -149.74072266 308.70410156 C-149.78197266 307.95749268 -149.82322266 307.21088379 -149.86572266 306.44165039 C-150.45579174 293.81394148 -147.01489412 281.1221217 -141.74072266 269.70410156 C-158.99668919 269.2187775 -173.16142375 271.28479206 -188.95166016 278.66894531 C-211.77424455 289.29277998 -240.82809363 294.37491414 -265.328125 285.65625 C-272.08648013 282.98901817 -278.72133524 280.01731569 -285.30419922 276.9453125 C-301.61614372 269.33434102 -318.77376317 267.63436393 -336.18603516 272.70800781 C-341.35744709 274.63299285 -346.30504833 276.96691431 -351.27368164 279.35327148 C-351.90218018 279.65467041 -352.53067871 279.95606934 -353.17822266 280.26660156 C-353.80092041 280.56606689 -354.42361816 280.86553223 -355.06518555 281.17407227 C-366.62772544 286.60144799 -378.53158626 288.88366081 -391.24072266 289.01660156 C-392.16498047 289.04560547 -393.08923828 289.07460938 -394.04150391 289.10449219 C-399.77742463 289.15783051 -403.30611596 288.721253 -407.74072266 284.70410156 C-411.79702664 279.48150299 -411.51469809 274.05070014 -410.74072266 267.70410156 C-408.5586145 263.09742879 -406.2849908 260.89411031 -401.74072266 258.70410156 C-398.75636115 258.15857312 -395.76496671 257.97222861 -392.74072266 257.76660156 C-379.81995821 256.60211644 -369.42024336 252.67152328 -357.84741211 247.00073242 C-337.27533255 237.06959775 -309.37105558 234.76747827 -287.19775391 241.02441406 C-279.68000676 243.69970502 -272.40411641 247.09035114 -265.17724609 250.46289062 C-249.05992651 257.98305228 -230.92981427 260.33797369 -213.77978516 254.44238281 C-207.75834899 252.1644382 -201.98643016 249.34625242 -196.17822266 246.57910156 C-183.69873792 240.70186586 -171.54479588 238.50238694 -157.88793945 238.46386719 C-155.84038844 238.45427566 -153.79389307 238.42326994 -151.74658203 238.39160156 C-142.51090345 238.31849409 -132.16767399 238.4906259 -123.74072266 242.70410156 C-123.43134766 242.06472656 -123.12197266 241.42535156 -122.80322266 240.76660156 C-121.74072266 238.70410156 -121.74072266 238.70410156 -120.74072266 237.70410156 C-120.63951981 235.29442903 -120.6035849 232.9131786 -120.60942078 230.50288391 C-120.60730506 229.74011601 -120.60518935 228.97734811 -120.60300952 228.19146603 C-120.59698068 225.61534149 -120.59801175 223.03926554 -120.59887695 220.46313477 C-120.59584711 218.62365637 -120.59232614 216.78417873 -120.58834839 214.94470215 C-120.58044137 210.97121916 -120.57530752 206.99774522 -120.57205772 203.02425575 C-120.56615459 196.73197806 -120.54961762 190.43975717 -120.53071594 184.14750671 C-120.5243777 181.99355415 -120.51805208 179.83960155 -120.51173878 177.68564892 C-120.50857297 176.60653095 -120.50540715 175.52741297 -120.50214541 174.41559446 C-120.46008788 159.762018 -120.42713372 145.1084667 -120.41479492 130.45483398 C-120.40639369 120.5791192 -120.38382031 110.70354376 -120.34543926 100.82789868 C-120.32573537 95.60380511 -120.31325485 90.37991959 -120.31827354 85.15578651 C-120.32294713 80.23009661 -120.30896752 75.30479938 -120.28126144 70.37918854 C-120.27439299 68.58062975 -120.27417574 66.78202997 -120.28146172 64.98347282 C-120.33156682 51.21308235 -118.53944475 39.04327309 -112.17822266 26.57910156 C-111.67440063 25.58426758 -111.67440063 25.58426758 -111.16040039 24.56933594 C-107.4190571 17.5636938 -102.41805816 12.18453526 -96.74072266 6.70410156 C-96.03431641 5.96675781 -95.32791016 5.22941406 -94.60009766 4.46972656 C-70.40433808 -19.35663211 -26.63378874 -19.82779112 0 0 Z M-80.72900391 35.00878906 C-90.67628793 48.33621815 -90.03304637 64.54585811 -89.96435547 80.40258789 C-89.96383018 82.25357053 -89.96426947 84.10455365 -89.96559143 85.95553589 C-89.96691682 89.91574774 -89.96256342 93.87589706 -89.95398712 97.83609962 C-89.94153073 104.10249769 -89.9485921 110.3687819 -89.95941162 116.63517761 C-89.98778448 134.44521216 -90.00024902 152.25514596 -89.97070312 170.06518555 C-89.9545156 179.92117581 -89.95964871 189.77691533 -89.9884994 199.63287944 C-90.00557291 205.85877581 -89.99662314 212.08391237 -89.96844435 218.30975974 C-89.95727699 222.18238191 -89.97121036 226.05461273 -89.99226189 229.92718124 C-89.99702725 231.71861109 -89.99158659 233.51010249 -89.9750309 235.30146217 C-89.83384566 251.65941796 -89.83384566 251.65941796 -95.12469101 257.27744579 C-95.65798145 257.7482422 -96.1912719 258.2190386 -96.74072266 258.70410156 C-97.32645176 259.25784863 -97.91218086 259.81159571 -98.51565933 260.38212299 C-99.04368023 260.88025092 -99.57170113 261.37837885 -100.11572266 261.89160156 C-111.13865341 272.64627515 -118.5369932 289.93748307 -119.04150391 305.31347656 C-119.24269026 326.03567139 -115.4633548 343.55514895 -101.74072266 359.70410156 C-100.62697266 361.18910156 -100.62697266 361.18910156 -99.49072266 362.70410156 C-91.68210607 371.76111766 -81.44716886 376.89111198 -70.74072266 381.70410156 C-69.95052734 382.06632812 -69.16033203 382.42855469 -68.34619141 382.80175781 C-50.85413695 389.66747544 -30.49013114 386.95746422 -13.74072266 379.70410156 C5.86444517 370.84076658 18.55922957 355.33922339 26.25927734 335.70410156 C26.80068359 334.33125 26.80068359 334.33125 27.35302734 332.93066406 C31.92358413 318.4995542 31.09243106 299.61774301 25.25927734 285.70410156 C24.99614746 285.06569336 24.73301758 284.42728516 24.46191406 283.76953125 C20.59173144 274.60988001 15.91240452 267.46966542 8.87255859 260.45019531 C3.52864888 254.83469676 0.49631982 250.82170503 0.63349915 242.77462769 C0.6265546 242.00602767 0.61961006 241.23742766 0.61245507 240.44553673 C0.59527323 237.88521679 0.61345865 235.32640784 0.6315918 232.76611328 C0.62641041 230.92412086 0.61900841 229.08213355 0.60955811 227.24015808 C0.59400976 223.27973775 0.59415573 219.31974075 0.60656166 215.35931015 C0.62613607 209.08772656 0.61088341 202.8165176 0.59111023 196.54495239 C0.5639653 186.61582788 0.56046718 176.68685628 0.56688327 166.75770199 C0.57781254 149.00169933 0.55309452 131.24574389 0.51313561 113.48978817 C0.50011731 107.26551079 0.49877484 101.04137382 0.50726855 94.8170898 C0.51091462 90.9301535 0.50656866 87.04325247 0.50042725 83.15632057 C0.49934926 81.36538498 0.50165995 79.57444332 0.50777245 77.78351784 C0.5687388 59.00552898 -0.677174 43.15517676 -14.31884766 28.89550781 C-18.13180688 25.4453947 -22.12612863 22.94484193 -26.74072266 20.70410156 C-27.73072266 20.19556641 -27.73072266 20.19556641 -28.74072266 19.67675781 C-47.56899831 11.69680504 -68.25194633 20.41955944 -80.72900391 35.00878906 Z " fill="#000000" transform="translate(410.74072265625,13.2958984375)"/>
<path d="M0 0 C16.0589795 7.49294083 34.19222656 9.89834391 51.29199219 4.01464844 C55.06406638 2.52807757 58.75666181 0.94012168 62.43652344 -0.75878906 C78.54986058 -8.1854625 92.18696435 -12.10741634 110.06152344 -12.19628906 C111.35968994 -12.206521 112.65785645 -12.21675293 113.99536133 -12.22729492 C125.46848905 -12.12339667 136.38982635 -10.40879027 146.99902344 -5.94628906 C147.61487305 -5.69129639 148.23072266 -5.43630371 148.86523438 -5.17358398 C153.0311542 -3.42780922 157.10762681 -1.5117819 161.18652344 0.42871094 C176.86661197 7.73333755 194.78000416 9.47455479 211.44824219 4.30761719 C214.49826147 3.05019126 217.45871879 1.66197128 220.43652344 0.24121094 C223.88163418 -1.33111738 227.34494025 -2.85951749 230.81152344 -4.38378906 C231.6490918 -4.76801025 232.48666016 -5.15223145 233.34960938 -5.5480957 C245.47802574 -10.90221741 257.58574355 -12.30115617 270.74902344 -12.19628906 C271.42661713 -12.19258301 272.10421082 -12.18887695 272.80233765 -12.18505859 C290.43717286 -12.04807489 303.56806731 -8.11044096 319.3984375 -0.70751953 C328.55458435 3.55467341 336.79300785 5.82873241 346.75292969 6.85839844 C357.96973658 8.02408993 357.96973658 8.02408993 362.37402344 11.67871094 C367.07338702 17.51731418 367.22298585 21.90089511 366.43652344 29.24121094 C364.26550001 33.82448262 362.00862652 36.13516345 357.43652344 38.24121094 C354.11776517 38.6839385 350.8428016 38.6680017 347.49902344 38.61621094 C346.5604248 38.60605957 345.62182617 38.5959082 344.65478516 38.58544922 C328.60055255 38.23027926 314.96860961 32.84826554 300.68652344 26.05371094 C284.77136021 18.63957392 265.89666204 16.61951525 249.13574219 22.69042969 C244.83360671 24.38904248 240.62895074 26.28990136 236.43652344 28.24121094 C234.37398264 29.19677396 232.31020617 30.1484257 230.23950195 31.08618164 C228.38728664 31.92834553 226.54615481 32.79476967 224.70605469 33.66308594 C213.92044466 38.03058888 202.62976688 38.76966826 191.12402344 38.67871094 C190.44709442 38.67533722 189.77016541 38.6719635 189.07272339 38.66848755 C171.68755859 38.54327442 158.0256233 34.68126901 142.43652344 27.24121094 C125.59227904 19.2973821 108.34630592 16.82349761 90.16699219 22.20996094 C85.41098874 23.98074964 80.81989299 26.05757087 76.22558594 28.20605469 C53.40300154 38.82988935 24.34915246 43.91202351 -0.15087891 35.19335938 C-6.90923403 32.52612754 -13.54408915 29.55442506 -20.12695312 26.48242188 C-36.43889763 18.8714504 -53.59651708 17.17147331 -71.00878906 22.24511719 C-76.180201 24.17010222 -81.12780224 26.50402369 -86.09643555 28.89038086 C-86.72493408 29.19177979 -87.35343262 29.49317871 -88.00097656 29.80371094 C-88.62367432 30.10317627 -89.24637207 30.4026416 -89.88793945 30.71118164 C-101.45047935 36.13855736 -113.35434017 38.42077018 -126.06347656 38.55371094 C-127.44986328 38.5972168 -127.44986328 38.5972168 -128.86425781 38.64160156 C-134.60017854 38.69493988 -138.12886986 38.25836238 -142.56347656 34.24121094 C-146.61978054 29.01861236 -146.337452 23.58780952 -145.56347656 17.24121094 C-143.38136841 12.63453817 -141.10774471 10.43121968 -136.56347656 8.24121094 C-133.57911506 7.69568249 -130.58772061 7.50933798 -127.56347656 7.30371094 C-114.64271212 6.13922582 -104.24299726 2.20863265 -92.67016602 -3.4621582 C-62.58541327 -17.98551888 -29.22025652 -13.63611971 0 0 Z " fill="#000000" transform="translate(145.5634765625,473.7587890625)"/>
<path d="M0 0 C4.59001791 2.17421901 6.84502816 4.4493899 9 9 C9.28961274 11.96698026 9.41638105 14.72243971 9.39872742 17.68757629 C9.40537424 18.56164507 9.41202107 19.43571385 9.41886932 20.33626956 C9.43751829 23.26441859 9.43489273 26.19215969 9.43237305 29.12036133 C9.44138903 31.2196002 9.45171585 33.31883379 9.46325684 35.4180603 C9.49087201 41.1180095 9.50011752 46.81785893 9.50611091 52.51786637 C9.51548278 58.47432817 9.54168522 64.4307151 9.56611633 70.38713074 C9.60981765 81.66693499 9.63834234 92.94672474 9.66143972 104.22658795 C9.68847189 117.06809873 9.73238464 129.90953432 9.77772844 142.75099146 C9.87062676 169.1672869 9.94228378 195.58360592 10 222 C11.0314212 222.50476616 11.0314212 222.50476616 12.0836792 223.01972961 C12.98515686 223.46479355 13.88663452 223.90985748 14.81542969 224.3684082 C15.70929382 224.80804398 16.60315796 225.24767975 17.52410889 225.70063782 C28.24637451 231.32774573 34.77373538 241.30933671 38.38696289 252.56445312 C39.40950795 256.62694198 39.53210814 260.57634822 39.5 264.75 C39.49427979 265.62180908 39.48855957 266.49361816 39.48266602 267.3918457 C39.13194303 280.17729283 34.07269192 289.52564903 25.41796875 298.671875 C14.88757959 308.61297231 2.93579642 310.56961837 -10.859375 310.33984375 C-23.19705449 309.79526852 -32.89149375 303.60027981 -41.1875 294.8125 C-50.92125403 282.84922689 -52.33002199 269.81439879 -51 255 C-48.43450553 243.54155833 -41.6135854 233.72360491 -32 227 C-30.27354073 226.07679514 -28.52891572 225.18692364 -26.76953125 224.328125 C-25.87468018 223.88887695 -24.9798291 223.44962891 -24.05786133 222.99707031 C-23.37876709 222.66803711 -22.69967285 222.33900391 -22 222 C-21.99780016 220.36167867 -21.99780016 220.36167867 -21.99555588 218.69025993 C-21.9589755 192.12530257 -21.89954509 165.56047143 -21.81609726 138.99561882 C-21.77627271 126.14909528 -21.74389755 113.30263331 -21.72900391 100.45605469 C-21.71600513 89.26014945 -21.68908578 78.06437948 -21.64538693 66.86855042 C-21.62273233 60.93936426 -21.60709172 55.01034519 -21.60811615 49.08111191 C-21.60886039 43.50130393 -21.59100434 37.92186585 -21.55883217 32.34215355 C-21.55030764 30.29351805 -21.54860048 28.24484119 -21.55419731 26.1961956 C-21.56082022 23.39964004 -21.54295749 20.60426727 -21.51898193 17.80783081 C-21.53062256 16.5908884 -21.53062256 16.5908884 -21.54249835 15.3493613 C-21.46308118 10.11914532 -20.43552914 7.16402338 -17 3 C-11.77740143 -1.05630398 -6.34659858 -0.77397544 0 0 Z M-18.875 257.125 C-20.56484251 261.44348642 -20.65960983 265.4267052 -20 270 C-17.83701163 274.40608743 -15.60319521 277.1987497 -11 279 C-5.95674616 279.68426057 -2.16923116 279.5739862 2.4375 277.3125 C5.79656012 274.28115306 7.69355631 272.25860352 8.31640625 267.66796875 C8.58213652 261.95048191 7.96847152 258.39749547 4 254 C0.16286804 250.61429533 -3.63401462 250.48708828 -8.5625 250.6484375 C-13.22526146 251.32095117 -15.85190292 253.69882331 -18.875 257.125 Z " fill="#000000" transform="translate(372,60)"/>
<path d="M0 0 C0.99902344 -0.01933594 1.99804688 -0.03867187 3.02734375 -0.05859375 C7.42309102 0.65988746 10.55048041 2.36393695 13.21948242 6.02416992 C14.31329534 7.89571392 15.26568117 9.78810192 16.1875 11.75 C16.526604 12.45060547 16.86570801 13.15121094 17.21508789 13.87304688 C26.60830047 34.01910511 27.55068898 56.72653118 20.99609375 77.87890625 C19.06628154 83.06965526 16.781756 88.04469059 14.36450195 93.02026367 C6.28094422 109.73877272 5.55071192 123.82212324 11.0625 141.4375 C12.15308724 143.76390183 12.15308724 143.76390183 13.3125 145.6875 C16.06577435 150.60406134 15.82268948 155.9779574 15.0625 161.4375 C12.87606301 166.05331142 10.56650196 168.16614085 6.0625 170.4375 C3.16015625 170.87109375 3.16015625 170.87109375 0.125 170.875 C-0.87402344 170.89433594 -1.87304688 170.91367188 -2.90234375 170.93359375 C-7.29809102 170.21511254 -10.42548041 168.51106305 -13.09448242 164.85083008 C-14.18829534 162.97928608 -15.14068117 161.08689808 -16.0625 159.125 C-16.401604 158.42439453 -16.74070801 157.72378906 -17.09008789 157.00195312 C-26.48330047 136.85589489 -27.42568898 114.14846882 -20.87109375 92.99609375 C-18.94128154 87.80534474 -16.656756 82.83030941 -14.23950195 77.85473633 C-6.15594422 61.13622728 -5.42571192 47.05287676 -10.9375 29.4375 C-12.02808724 27.11109817 -12.02808724 27.11109817 -13.1875 25.1875 C-15.94077435 20.27093866 -15.69768948 14.8970426 -14.9375 9.4375 C-11.77995656 2.77157496 -7.31787557 0.00941812 0 0 Z " fill="#000000" transform="translate(195.9375,31.5625)"/>
<path d="M0 0 C0.99902344 -0.01933594 1.99804688 -0.03867187 3.02734375 -0.05859375 C7.42309102 0.65988746 10.55048041 2.36393695 13.21948242 6.02416992 C14.31329534 7.89571392 15.26568117 9.78810192 16.1875 11.75 C16.526604 12.45060547 16.86570801 13.15121094 17.21508789 13.87304688 C26.60830047 34.01910511 27.55068898 56.72653118 20.99609375 77.87890625 C19.06628154 83.06965526 16.781756 88.04469059 14.36450195 93.02026367 C6.28094422 109.73877272 5.55071192 123.82212324 11.0625 141.4375 C12.15308724 143.76390183 12.15308724 143.76390183 13.3125 145.6875 C16.06577435 150.60406134 15.82268948 155.9779574 15.0625 161.4375 C12.87606301 166.05331142 10.56650196 168.16614085 6.0625 170.4375 C3.16015625 170.87109375 3.16015625 170.87109375 0.125 170.875 C-0.87402344 170.89433594 -1.87304688 170.91367188 -2.90234375 170.93359375 C-7.29809102 170.21511254 -10.42548041 168.51106305 -13.09448242 164.85083008 C-14.18829534 162.97928608 -15.14068117 161.08689808 -16.0625 159.125 C-16.401604 158.42439453 -16.74070801 157.72378906 -17.09008789 157.00195312 C-26.48330047 136.85589489 -27.42568898 114.14846882 -20.87109375 92.99609375 C-18.94128154 87.80534474 -16.656756 82.83030941 -14.23950195 77.85473633 C-6.15594422 61.13622728 -5.42571192 47.05287676 -10.9375 29.4375 C-12.02808724 27.11109817 -12.02808724 27.11109817 -13.1875 25.1875 C-15.94077435 20.27093866 -15.69768948 14.8970426 -14.9375 9.4375 C-11.77995656 2.77157496 -7.31787557 0.00941812 0 0 Z " fill="#000000" transform="translate(105.9375,31.5625)"/>
</svg>
