<?xml version="1.0" encoding="UTF-8"?>
<svg version="1.1" xmlns="http://www.w3.org/2000/svg" width="512" height="512">
<path d="M0 0 C1.22589844 -0.03673828 1.22589844 -0.03673828 2.4765625 -0.07421875 C15.40227901 -0.13461929 26.87388674 6.34233974 38.25 11.8125 C39.75709827 12.53060152 41.26459202 13.24787357 42.77246094 13.96435547 C45.06594771 15.05419693 47.35922069 16.14445768 49.65130615 17.23724365 C56.57886263 20.53952666 63.53458852 23.77825927 70.5 27 C72.77873981 28.05578678 75.05738546 29.1117768 77.3359375 30.16796875 C79.03121582 30.95373291 79.03121582 30.95373291 80.76074219 31.75537109 C86.88636496 34.59873672 93.00573863 37.45547589 99.125 40.3125 C100.39119461 40.90356456 101.65738927 41.49462901 102.92358398 42.08569336 C109.07342123 44.95674356 115.22249441 47.82942455 121.37109375 50.703125 C123.76816371 51.82305678 126.16529992 52.94284676 128.5625 54.0625 C129.16467346 54.3437674 129.76684692 54.62503479 130.38726807 54.91482544 C138.27131107 58.59639823 146.16195803 62.26348184 154.05859375 65.91796875 C154.90801544 66.31107742 155.75743713 66.7041861 156.63259888 67.10920715 C158.37534245 67.91569749 160.11808947 68.72218037 161.86083984 69.52865601 C176.32111595 76.22054673 190.7630361 82.94867465 205.17407227 89.74597168 C216.87429358 95.26451921 228.59863857 100.72860984 240.3359375 106.16796875 C247.60475913 109.53707898 254.86565343 112.92303776 262.125 116.3125 C262.74765747 116.60320374 263.37031494 116.89390747 264.01184082 117.19342041 C267.16389482 118.66507881 270.31585868 120.13693013 273.46777344 121.60888672 C278.48081693 123.94989107 283.49453338 126.28945282 288.50830078 128.62890625 C290.99382487 129.78869331 293.47916508 130.94887306 295.96435547 132.109375 C301.73535525 134.80392235 307.50746951 137.49598935 313.28393555 140.17880249 C315.96303946 141.42327673 318.64145429 142.66923021 321.31982422 143.9152832 C323.17218845 144.77633033 325.02552646 145.63528164 326.87890625 146.49414062 C330.34318738 148.10628933 333.7991159 149.73437603 337.25 151.375 C337.8884082 151.677547 338.52681641 151.98009399 339.18457031 152.29180908 C341.12779698 153.21758594 343.06457479 154.15569497 345 155.09765625 C346.72476563 155.93115601 346.72476563 155.93115601 348.484375 156.78149414 C351.25 158.375 351.25 158.375 353.25 161.375 C355.11475629 169.83231828 351.18495984 177.26967757 347.59814453 184.67211914 C346.62377168 186.69004386 345.68733746 188.72263164 344.75390625 190.75976562 C344.13759207 192.06613269 343.51917279 193.37150913 342.8984375 194.67578125 C342.34333496 195.84278564 341.78823242 197.00979004 341.21630859 198.2121582 C337.63975727 203.96510362 333.55923047 206.72137952 327.0390625 208.26953125 C313.8507789 211.06077887 313.8507789 211.06077887 303.19140625 218.4609375 C301.38778373 221.6633705 300.31980688 225.11620608 299.22363281 228.61230469 C297.32908443 233.98810946 294.71502852 239.07805887 292.2539978 244.21334839 C290.70160267 247.46844186 289.18542477 250.74022923 287.66796875 254.01171875 C287.37378555 254.64435135 287.07960236 255.27698395 286.77650452 255.92878723 C285.00230146 259.74549685 283.24210397 263.56842339 281.48828125 267.39453125 C280.7006435 269.09641094 279.91289331 270.79823861 279.125 272.5 C278.783479 273.25643799 278.44195801 274.01287598 278.09008789 274.79223633 C274.76974812 281.92700909 274.76974812 281.92700909 271.25 284.375 C264.80844681 285.78264816 261.18143416 285.08443477 255.35546875 282.19140625 C254.64143387 281.85705063 253.92739899 281.52269501 253.19172668 281.1782074 C250.93124431 280.11598852 248.68433789 279.02824249 246.4375 277.9375 C244.17082278 276.855256 241.90169418 275.77857195 239.62971497 274.70750427 C238.22156532 274.04177409 236.81684308 273.36873407 235.4160614 272.68763733 C232.50201322 271.2938837 230.52386605 270.375 227.25 270.375 C225.62025792 271.9780079 225.62025792 271.9780079 224.0625 274.0625 C219.82798522 279.1223863 214.88692176 283.18436217 208.25 284.375 C205.92154745 284.57090346 203.58582263 284.68673814 201.25 284.75 C200.033125 284.79898437 198.81625 284.84796875 197.5625 284.8984375 C191.66667148 284.54051674 186.53705393 281.82087296 181.25 279.375 C180.65155273 279.09968445 180.05310547 278.8243689 179.43652344 278.54071045 C175.41523291 276.68722836 171.41024171 274.80055558 167.41055298 272.90097046 C163.68660494 271.13259879 159.95818747 269.3736865 156.23046875 267.61328125 C155.47887985 267.25804886 154.72729095 266.90281647 153.95292664 266.53681946 C147.10140086 263.30004141 140.2371424 260.09109334 133.36450195 256.89941406 C131.60783089 256.08355329 129.8517589 255.26640302 128.09570312 254.44921875 C122.84452064 252.01241624 117.58914725 249.61301165 112.25 247.375 C112.27618408 248.16036133 112.30236816 248.94572266 112.3293457 249.75488281 C112.43448447 253.37804451 112.49869514 257.00088384 112.5625 260.625 C112.60439453 261.85992187 112.64628906 263.09484375 112.68945312 264.3671875 C112.84526839 276.20914767 109.56145122 285.04336654 102.2890625 294.33984375 C100.25 296.375 100.25 296.375 98.48364258 297.29711914 C96.30162194 298.48346315 94.85108413 299.46238669 93.25 301.375 C92.36115643 305.56255268 92.56299738 309.67485287 92.6875 313.9375 C92.62749285 326.24065703 91.59456672 334.33053085 82.625 343.375 C73.39392997 350.34973392 60.95928285 351.57543221 49.83300781 353.49121094 C48.21535631 353.77672813 46.59784702 354.06305198 44.98046875 354.35011292 C40.62734961 355.1204065 36.27234996 355.87952313 31.91690159 356.63651943 C27.35138114 357.43202772 22.7877048 358.23797971 18.22381592 359.04278564 C9.59815983 360.56223718 0.9709057 362.07240388 -7.65697408 363.57917142 C-17.48663584 365.29628849 -27.31445197 367.02385527 -37.14213324 368.75226545 C-57.34273542 372.30473859 -77.54559877 375.84420215 -97.75 379.375 C-97.75410889 380.07995605 -97.75821777 380.78491211 -97.76245117 381.51123047 C-97.79569301 384.75829321 -97.86637002 388.00355482 -97.9375 391.25 C-97.94330078 392.35859375 -97.94910156 393.4671875 -97.95507812 394.609375 C-98.20700474 404.1266028 -100.62462707 411.15764433 -107.0625 418.25 C-115.32727055 425.91797093 -124.14142609 426.61024769 -134.94628906 426.67016602 C-136.39528156 426.68169431 -137.84423131 426.70216001 -139.29296875 426.73168945 C-141.39091732 426.77444136 -143.48760702 426.79054281 -145.5859375 426.80078125 C-146.83938965 426.81536377 -148.0928418 426.82994629 -149.38427734 426.8449707 C-153.33394401 426.29346132 -154.94906018 425.15427474 -157.75 422.375 C-159.25078706 419.37342588 -158.90164321 416.28550152 -158.90390015 412.9929657 C-158.9082824 412.22299328 -158.91266465 411.45302086 -158.9171797 410.65971595 C-158.93059198 408.0657034 -158.93675198 405.47172484 -158.94287109 402.87768555 C-158.95077009 401.02345627 -158.95903891 399.16922854 -158.96765137 397.31500244 C-158.99389277 391.21392286 -159.00918012 385.11283633 -159.0234375 379.01171875 C-159.02879612 376.91365873 -159.03417362 374.81559876 -159.03956985 372.71753883 C-159.06120079 363.99242466 -159.07993884 355.26731236 -159.09119225 346.54217815 C-159.1074401 334.02585412 -159.14063581 321.50984011 -159.19759309 308.99363297 C-159.23625204 300.19953199 -159.25582008 291.40551408 -159.26111281 282.61133033 C-159.26477153 277.35559586 -159.27684821 272.10019189 -159.30921555 266.84454918 C-159.33922531 261.9008209 -159.34563338 256.95762432 -159.33383179 252.01382446 C-159.33361046 250.19855076 -159.34196397 248.38325289 -159.35948563 246.56806374 C-159.38209875 244.09072681 -159.37392041 241.61533082 -159.35800171 239.13798523 C-159.3718838 238.41852445 -159.38576588 237.69906367 -159.40006864 236.95780104 C-159.33832359 233.06172289 -158.85296304 231.49971143 -156.33699989 228.45231342 C-150.96595765 224.13946511 -145.41825455 225.15304734 -138.75 225.125 C-136.95755859 225.0940625 -136.95755859 225.0940625 -135.12890625 225.0625 C-124.07467643 225.01406964 -114.95121154 226.54337095 -106.75 234.375 C-97.94409276 244.17891006 -98.75 251.15930564 -98.75 265.375 C-55.85 265.375 -12.95 265.375 31.25 265.375 C31.25 246.565 31.25 227.755 31.25 208.375 C28.28 207.385 25.31 206.395 22.25 205.375 C19.48139571 204.15836358 16.76168383 202.91811307 14.04296875 201.6015625 C13.28786011 201.24137024 12.53275146 200.88117798 11.75476074 200.5100708 C10.14526814 199.74170745 8.53688078 198.97102521 6.92953491 198.19818115 C2.68706136 196.15838154 -1.5634391 194.13540627 -5.8125 192.109375 C-6.66064774 191.70431732 -7.50879547 191.29925964 -8.38264465 190.88192749 C-15.91858598 187.28545844 -23.48432456 183.75639089 -31.0625 180.25 C-32.19260498 179.72390137 -33.32270996 179.19780273 -34.48706055 178.65576172 C-39.27092229 176.4309254 -44.0586647 174.22686406 -48.89453125 172.1171875 C-57.41701725 168.35906406 -64.3091408 164.26696996 -70.75 157.375 C-71.33007812 156.78976563 -71.91015625 156.20453125 -72.5078125 155.6015625 C-80.96179496 146.55282751 -84.10498426 135.30703211 -84.125 123.1875 C-84.14949219 122.42630859 -84.17398438 121.66511719 -84.19921875 120.88085938 C-84.25846122 108.9435014 -79.05210044 98.27280241 -73.8125 87.8125 C-72.6479083 85.44227955 -71.48509453 83.07125448 -70.32421875 80.69921875 C-70.02815735 80.09655182 -69.73209595 79.49388489 -69.42706299 78.87295532 C-66.22361818 72.3379671 -63.17306831 65.73364368 -60.125 59.125 C-59.04449892 56.79937318 -57.96377226 54.47385116 -56.8828125 52.1484375 C-54.83095727 47.72740377 -52.80853876 43.29453331 -50.8046875 38.8515625 C-41.88063261 19.29053807 -41.88063261 19.29053807 -33.75 12.375 C-33.07195312 11.79105469 -32.39390625 11.20710938 -31.6953125 10.60546875 C-22.12267548 2.95108389 -12.14648501 0.01880261 0 0 Z M-19.57080078 27.94897461 C-26.63962505 35.31517192 -30.34163085 44.1967669 -34.5 53.375 C-35.24727253 54.99284664 -35.99596184 56.61003966 -36.74609375 58.2265625 C-38.44224856 61.8928829 -40.12922494 65.56294199 -41.78747559 69.24658203 C-42.47517546 70.76728399 -43.17302011 72.28341474 -43.87756348 73.79638672 C-44.24442261 74.59447754 -44.61128174 75.39256836 -44.98925781 76.21484375 C-45.49431854 77.30140259 -45.49431854 77.30140259 -46.00958252 78.40991211 C-46.9262941 80.49289769 -46.9262941 80.49289769 -46.75 83.375 C-25.93080509 93.26528645 -5.09343646 103.10914642 15.82519531 112.78759766 C21.93061451 115.61746903 28.02770425 118.46518164 34.125 121.3125 C35.38346148 121.90006953 36.64192502 122.48763463 37.90039062 123.07519531 C40.42290216 124.25298413 42.94535263 125.43090361 45.46777344 126.60888672 C49.23083466 128.36617103 52.99426418 130.12266543 56.7578125 131.87890625 C57.37615967 132.16745483 57.99450684 132.45600342 58.6315918 132.7532959 C60.50438829 133.62721064 62.37719258 134.50110867 64.25 135.375 C71.14244953 138.59116191 78.03488964 141.80734261 84.92633057 145.02566528 C97.69482504 150.98856167 110.46650353 156.94430771 123.25 162.875 C136.66560741 169.09894973 150.06792111 175.35111725 163.46777344 181.60888672 C167.23083466 183.36617103 170.99426575 185.12266206 174.7578125 186.87890625 C175.37702072 187.1678627 175.99622894 187.45681915 176.63420105 187.75453186 C179.74052894 189.20408077 182.84691653 190.65350159 185.95336914 192.1027832 C191.77414578 194.81856469 197.59439928 197.53545043 203.41287231 200.25616455 C206.13987656 201.5312286 208.86716885 202.80567586 211.59448242 204.08007812 C212.88564164 204.68361217 214.17666206 205.28744327 215.4675293 205.89160156 C218.38034574 207.25483501 221.29532839 208.61120717 224.22119141 209.94628906 C227.25 211.375 227.25 211.375 229.71240234 212.76464844 C232.72389942 214.39807059 235.01491476 215.55579521 238.48384094 215.04800415 C239.30168564 214.80222626 240.11953033 214.55644836 240.9621582 214.30322266 C241.93385452 214.01444244 242.90555084 213.72566223 243.9066925 213.4281311 C245.00998398 213.08059784 246.11327545 212.73306458 247.25 212.375 C248.49722336 211.98404144 249.74444672 211.59308289 251.02946472 211.1902771 C255.42396501 209.79860637 259.80616066 208.36997269 264.1875 206.9375 C265.3748172 206.55007126 265.3748172 206.55007126 266.58612061 206.15481567 C270.75975294 204.79278761 274.93232107 203.42755722 279.10400391 202.05957031 C283.406522 200.64937496 287.7125681 199.25028338 292.01948547 197.85359192 C295.34314148 196.77357791 298.66411673 195.6855013 301.98440552 194.59518433 C303.57184448 194.07545436 305.16028245 193.55876541 306.74972534 193.04519653 C308.9636544 192.3290156 311.17354656 191.60151137 313.3828125 190.87109375 C314.03734909 190.66217499 314.69188568 190.45325623 315.36625671 190.23800659 C318.6703836 189.13165086 321.12314423 188.19661979 323.25 185.375 C324.39534227 182.9812068 325.44114882 180.63921453 326.4375 178.1875 C327.375 175.91666667 328.3125 173.64583333 329.25 171.375 C318.53283343 165.96004825 307.74890859 160.71728605 296.875 155.625 C295.38050127 154.92340926 293.8860357 154.22174786 292.39160156 153.52001953 C282.56828495 148.91131962 272.72582359 144.34494861 262.86865234 139.80908203 C254.73371151 136.06506725 246.61370027 132.28974961 238.5 128.5 C237.87379761 128.2075238 237.24759521 127.91504761 236.60241699 127.6137085 C233.42294166 126.12854406 230.24365595 124.64297422 227.06445312 123.15722656 C221.41768923 120.51853499 215.76927447 117.88338121 210.12097168 115.24798584 C206.99724569 113.79047123 203.87362839 112.33272374 200.75 110.875 C199.50000052 110.29166555 198.25000052 109.70833222 197 109.125 C184.5 103.29166667 172 97.45833333 159.5 91.625 C158.88126007 91.33625504 158.26252014 91.04751007 157.62503052 90.75001526 C156.37492775 90.16663329 155.12482603 89.58324909 153.87472534 88.99986267 C150.75130616 87.54225519 147.62786897 86.08468633 144.50439453 84.62719727 C138.86050792 81.99357662 133.21675483 79.35967178 127.57366943 76.72433472 C114.80517496 70.76143833 102.03349647 64.80569229 89.25 58.875 C80.24660082 54.69802149 71.24731211 50.51241031 62.25372314 46.31436157 C60.38592019 45.44259681 58.51792545 44.57124409 56.64990234 43.69995117 C50.78064512 40.96163867 44.91360076 38.21877538 39.05227661 35.46351624 C36.31844447 34.17876769 33.58355524 32.89627859 30.84857178 31.61398315 C29.5510429 31.00486487 28.25402968 30.39464672 26.95758057 29.78323364 C11.56577619 22.52495097 -4.77124858 15.15563685 -19.57080078 27.94897461 Z M-56.75 102.375 C-57.56752303 103.95574564 -58.37881997 105.53971223 -59.1875 107.125 C-59.63996094 108.00671875 -60.09242187 108.8884375 -60.55859375 109.796875 C-63.82798243 116.87161771 -64.08210521 126.11392987 -61.8125 133.5625 C-56.26956871 144.99550217 -46.45384279 150.20767998 -35.4375 155.1875 C-33.96280381 155.87533995 -32.48910344 156.56531856 -31.01635742 157.25732422 C-27.30352406 158.99569452 -23.57903834 160.70726801 -19.85046387 162.41156006 C-16.697098 163.85794467 -13.55582421 165.3293506 -10.4140625 166.80078125 C-5.84818178 168.93580553 -1.27679717 171.05814104 3.30078125 173.16796875 C9.95468094 176.23500801 16.59607838 179.32822498 23.23419189 182.42922974 C25.13042654 183.31503495 27.02685595 184.20042191 28.92333984 185.08569336 C35.07330582 187.95664225 41.22242757 190.82939331 47.37109375 193.703125 C49.76816371 194.82305678 52.16529992 195.94284676 54.5625 197.0625 C55.16467346 197.3437674 55.76684692 197.62503479 56.38726807 197.91482544 C64.27131107 201.59639823 72.16195803 205.26348184 80.05859375 208.91796875 C80.90801544 209.31107742 81.75743713 209.7041861 82.63259888 210.10920715 C84.37534245 210.91569749 86.11808947 211.72218037 87.86083984 212.52865601 C101.61477806 218.89366943 115.35510283 225.28530954 129.0625 231.75 C141.56965824 237.64827243 154.08865294 243.51839386 166.64453125 249.3125 C171.13600014 251.38640601 175.60950805 253.4941299 180.07421875 255.625 C181.16718262 256.1408667 182.26014648 256.6567334 183.38623047 257.18823242 C185.43847935 258.15693806 187.48607188 259.13559889 189.52783203 260.1262207 C194.54415016 262.47715057 198.59679922 264.35114274 204.25 263.375 C208.30756113 260.65371156 210.28955462 258.02741464 212.3984375 253.65625 C212.92824219 252.55925781 213.45804687 251.46226562 214.00390625 250.33203125 C214.53886719 249.19121094 215.07382812 248.05039062 215.625 246.875 C216.18316406 245.73417969 216.74132812 244.59335937 217.31640625 243.41796875 C220.12857778 238.05572409 220.12857778 238.05572409 221.30639648 232.23217773 C219.60403739 229.23937773 216.72763665 228.28423718 213.69921875 226.94140625 C212.68390831 226.47037224 212.68390831 226.47037224 211.64808655 225.98982239 C209.41723643 224.95870561 207.17763463 223.94826646 204.9375 222.9375 C203.37924337 222.22160505 201.82163153 221.50430505 200.26464844 220.78564453 C197.10148441 219.32802286 193.93495644 217.87814815 190.76513672 216.43505859 C185.62050669 214.09153105 180.49514128 211.70799351 175.37084961 209.3203125 C171.97067818 207.73634041 168.56771379 206.15851031 165.1640625 204.58203125 C157.89524059 201.2129209 150.63437353 197.82690495 143.375 194.4375 C142.7530072 194.1471286 142.1310144 193.8567572 141.49017334 193.55758667 C136.44463447 191.20209252 131.39942975 188.84588306 126.35424805 186.48962402 C121.94465708 184.43024336 117.534916 182.37118455 113.125 180.3125 C112.50254395 180.02189697 111.88008789 179.73129395 111.23876953 179.43188477 C102.29000712 175.25448089 93.33448875 171.09186076 84.375 166.9375 C73.64036357 161.95959187 62.92308805 156.94562265 52.21154785 151.91827393 C41.71392724 146.99190538 31.20329678 142.09458441 20.68310547 137.21655273 C12.8691662 133.59280106 5.0602019 129.95860363 -2.74453735 126.31509399 C-4.61222345 125.44346269 -6.48026768 124.57260308 -8.34838867 123.7019043 C-14.22940983 120.9597408 -20.10659987 118.20997679 -25.97351074 115.43772888 C-28.71653243 114.1421531 -31.46136697 112.85044458 -34.20635986 111.55905151 C-35.51110671 110.94390029 -36.81496541 110.32686118 -38.11785889 109.70779419 C-39.9291707 108.84728405 -41.74382571 107.993822 -43.55859375 107.140625 C-44.58782959 106.65368164 -45.61706543 106.16673828 -46.67749023 105.66503906 C-50.00886533 104.26631153 -53.26137978 103.30194262 -56.75 102.375 Z M52.25 219.375 C52.19908245 225.92200379 52.16417533 232.46895605 52.14013672 239.01611328 C52.13011003 241.24106759 52.11648528 243.46600883 52.09912109 245.69091797 C52.07472608 248.89814491 52.06348329 252.10519685 52.0546875 255.3125 C52.04436493 256.29927734 52.03404236 257.28605469 52.02340698 258.30273438 C52.02207151 266.61613665 52.79125356 273.7031988 58.25 280.375 C64.56573576 285.14402496 69.52221843 286.00485054 77.25 285.375 C83.08433339 283.5446209 86.71764722 279.20157569 90.25 274.375 C91.48180134 270.67959598 91.37412112 267.27196622 91.34765625 263.42578125 C91.3462413 262.65316452 91.34482635 261.88054779 91.34336853 261.08451843 C91.33777466 258.61880611 91.32522333 256.15318485 91.3125 253.6875 C91.30748421 252.01497527 91.30292144 250.34244912 91.29882812 248.66992188 C91.28780724 244.57157954 91.27054684 240.47330521 91.25 236.375 C86.50280028 234.10751581 81.75218485 231.84741013 76.99829102 229.59399414 C75.38242783 228.82679519 73.76750695 228.05760822 72.15356445 227.28637695 C69.83010345 226.17652539 67.50331876 225.0739281 65.17578125 223.97265625 C64.45787918 223.62783707 63.73997711 223.28301788 63.00032043 222.92774963 C59.42810854 221.24617217 56.20385624 219.91768615 52.25 219.375 Z M261.75683594 228.41552734 C260.26483987 228.88456029 258.76732363 229.33641666 257.26464844 229.77001953 C248.01948989 232.33342086 248.01948989 232.33342086 240.86132812 238.33789062 C239.28615393 241.35894726 238.04015112 244.06212056 237.25 247.375 C237.92829289 250.47015524 237.92829289 250.47015524 240.25952148 251.63354492 C241.12134033 252.03677979 241.98315918 252.44001465 242.87109375 252.85546875 C243.80630859 253.29697266 244.74152344 253.73847656 245.70507812 254.19335938 C246.68927734 254.64517578 247.67347656 255.09699219 248.6875 255.5625 C250.15799805 256.25762695 250.15799805 256.25762695 251.65820312 256.96679688 C256.26880639 259.40002963 256.26880639 259.40002963 261.25 260.375 C263.53354699 255.5718079 265.81207653 250.76628121 268.0859375 245.95849609 C268.86059451 244.32242309 269.63663178 242.6870029 270.4140625 241.05224609 C271.52965827 238.70579529 272.64031013 236.35706095 273.75 234.0078125 C274.09998047 233.27442657 274.44996094 232.54104065 274.81054688 231.78543091 C276.61972231 228.23531188 276.61972231 228.23531188 277.25 224.375 C272.11388296 224.375 266.62864852 226.85437639 261.75683594 228.41552734 Z M-138.75 246.375 C-138.75 298.845 -138.75 351.315 -138.75 405.375 C-127.05703504 406.231529 -127.05703504 406.231529 -121.98503113 403.75463867 C-117.7873429 399.2392317 -118.92905272 392.04742606 -118.98950195 386.30078125 C-118.98300585 384.85003344 -118.97394275 383.39929518 -118.96250916 381.94857788 C-118.9394464 378.01444523 -118.9541353 374.08128382 -118.97697854 370.14718246 C-118.99590604 366.02820216 -118.98473441 361.90928657 -118.97807312 357.7902832 C-118.97173414 350.87337839 -118.98999376 343.95686231 -119.02270508 337.04003906 C-119.06019931 329.04581376 -119.05842064 321.05232488 -119.0356639 313.05806065 C-119.01470768 305.36449142 -119.02199285 297.6711941 -119.04198265 289.97763062 C-119.04996459 286.70494817 -119.04798217 283.43249596 -119.03795815 280.15982056 C-119.02739945 276.30504444 -119.04155403 272.45112548 -119.07470131 268.59648514 C-119.08290261 267.18277949 -119.0826313 265.76899522 -119.07322311 264.35529709 C-118.62155945 256.08332152 -118.62155945 256.08332152 -122.16642761 249.05786133 C-128.59554149 244.87012996 -128.00677433 246.375 -138.75 246.375 Z M-98.75 286.375 C-98.75 309.805 -98.75 333.235 -98.75 357.375 C-92.96596616 356.79659662 -87.48980938 356.24828937 -81.81732178 355.24990845 C-80.53329468 355.0256871 -79.24926758 354.80146576 -77.92633057 354.57044983 C-76.53648407 354.32390628 -75.14665304 354.0772756 -73.75683594 353.83056641 C-72.26762917 353.56898921 -70.77836983 353.30771116 -69.2890625 353.04670715 C-65.27219116 352.34161786 -61.25619119 351.63168577 -57.24042797 350.92031527 C-54.72814987 350.4754602 -52.21570115 350.03158171 -49.70319366 349.58802414 C-40.9293407 348.03895502 -32.15625205 346.48563142 -23.38378906 344.92871094 C-15.21787053 343.4795681 -7.05024969 342.04031445 1.11819673 340.60549605 C8.14636982 339.37048194 15.17324317 338.12825235 22.1991632 336.88048494 C26.38917085 336.13650621 30.5796524 335.39550788 34.771492 334.66191483 C38.70958418 333.97249953 42.64598194 333.27411799 46.58126831 332.56886864 C48.02302695 332.31206071 49.4653577 332.05844062 50.90828705 331.8082943 C52.88214199 331.4655913 54.85376624 331.1101142 56.82525635 330.75405884 C57.92763767 330.55901575 59.030019 330.36397266 60.16580582 330.16301918 C65.06589422 328.91103457 68.40708815 327.63936777 71.25 323.375 C71.52356843 321.44362318 71.52356843 321.44362318 71.4453125 319.36328125 C71.43886719 318.60595703 71.43242187 317.84863281 71.42578125 317.06835938 C71.40902344 316.28267578 71.39226562 315.49699219 71.375 314.6875 C71.36597656 313.89021484 71.35695312 313.09292969 71.34765625 312.27148438 C71.32411585 310.305861 71.28824547 308.34039225 71.25 306.375 C70.34378906 306.21644531 69.43757812 306.05789063 68.50390625 305.89453125 C58.01946166 303.88639953 50.00323666 300.77581681 42.25 293.375 C41.95186307 292.79431228 41.65372614 292.21362455 41.34655476 291.61534023 C40.20152015 289.38611636 39.18071123 287.99031737 37.25 286.375 C32.91428706 285.32472904 28.63884805 285.4911778 24.19799805 285.58032227 C22.85737716 285.5822979 21.51674869 285.58118625 20.1761322 285.57722473 C16.54364642 285.57521846 12.91278286 285.61633236 9.28067374 285.66524243 C5.48243195 285.70904079 1.68415177 285.71311655 -2.11430359 285.72142029 C-9.30393666 285.74316601 -16.49282349 285.80059304 -23.68212813 285.87086672 C-33.39922095 285.96378437 -43.11651825 286.00153259 -52.83394337 286.04238224 C-68.1398544 286.1081781 -83.44419078 286.24763691 -98.75 286.375 Z " fill="#000000" transform="translate(158.75,42.625)"/>
<path d="M0 0 C2.58933344 0.95108243 4.89862962 1.9264183 7.34765625 3.1484375 C8.03357849 3.4767305 8.71950073 3.8050235 9.4262085 4.14326477 C11.64456641 5.20805343 13.85340709 6.29113906 16.0625 7.375 C18.35481036 8.48316083 20.64913599 9.58706754 22.94364929 10.69065857 C24.46875935 11.42455016 25.99310593 12.16003051 27.51667786 12.89710999 C34.75047007 16.38906966 42.07201119 19.66939746 49.46313477 22.81591797 C54.16899676 24.88840624 57.77315153 26.8319874 61 31 C61.96548562 34.45201561 61.78880782 37.51324081 61 41 C58.45242151 44.26612627 57.05579555 45.671615 53.00085449 46.31933594 C46.81034 46.43413713 42.4499014 44.88622651 36.96875 42.125 C36.13396118 41.72224854 35.29917236 41.31949707 34.43908691 40.90454102 C31.784411 39.61933782 29.14227156 38.31048536 26.5 37 C24.75860962 36.15070738 23.01642669 35.30303781 21.2734375 34.45703125 C18.69002349 33.20259086 16.10863012 31.9448457 13.53344727 30.67358398 C9.3963897 28.6327205 5.24923741 26.64301196 1.03515625 24.765625 C0.25386353 24.4137915 -0.5274292 24.06195801 -1.33239746 23.69946289 C-2.7942832 23.04526409 -4.26157127 22.40294974 -5.73498535 21.77514648 C-9.94169739 19.88185292 -12.16177487 18.27462955 -14 14 C-14.4898067 10.63257892 -14.7490388 8.24007534 -12.9453125 5.25390625 C-8.84506409 0.19531575 -6.402639 -0.43295782 0 0 Z " fill="#000000" transform="translate(172,109)"/>
<path d="M0 0 C3.51038651 2.59463351 4.77811815 4.23728114 6 8.4375 C6 12.55333147 5.29147823 14.60229091 3 18 C0.04881112 20.40467242 -3.29107729 20.41186021 -7.03125 20.328125 C-10.14316604 19.80947233 -11.85067869 18.21445226 -14 16 C-15.87174644 12.25650712 -15.44771687 7.6565524 -14.375 3.6875 C-10.43646377 -1.14615811 -5.71917207 -1.66375915 0 0 Z " fill="#000000" transform="translate(264,152)"/>
</svg>
