<?xml version="1.0" encoding="UTF-8"?>
<svg version="1.1" xmlns="http://www.w3.org/2000/svg" width="512" height="512">
<path d="M0 0 C1.20049406 -0.00872064 1.20049406 -0.00872064 2.42524052 -0.01761746 C5.12400532 -0.03228879 7.82187076 -0.01829931 10.52062988 -0.00457001 C12.46814186 -0.00917611 14.41565036 -0.01552706 16.36315155 -0.02347898 C21.72802851 -0.04023539 27.09262224 -0.03189731 32.45750046 -0.01953411 C38.23808498 -0.0105117 44.01861961 -0.02443935 49.79919434 -0.0354538 C61.12856818 -0.05327369 72.45783623 -0.04938359 83.78721428 -0.03780323 C92.99190008 -0.02878282 102.19655617 -0.02753887 111.40124512 -0.0318985 C113.3636556 -0.0328179 113.3636556 -0.0328179 115.36571074 -0.03375587 C118.02314568 -0.03503472 120.68058062 -0.03633158 123.33801556 -0.03764623 C147.56630949 -0.04913871 171.79454987 -0.03722043 196.02283466 -0.01627585 C218.1503859 0.00270724 240.27784507 0.00100876 262.40539551 -0.01811981 C287.25373009 -0.0395285 312.102013 -0.04796347 336.95035553 -0.03567076 C339.59821064 -0.03439651 342.24606577 -0.03313903 344.8939209 -0.0318985 C346.84829677 -0.03097285 346.84829677 -0.03097285 348.84215498 -0.03002849 C358.03959861 -0.02656961 367.23700966 -0.03241553 376.43444824 -0.04181671 C387.63759776 -0.05301593 398.84063513 -0.05004045 410.04377174 -0.02869374 C415.76371054 -0.01815534 421.4834621 -0.01410892 427.20339966 -0.02729034 C432.43410968 -0.03916237 437.66445797 -0.03273775 442.89513493 -0.01138014 C444.7927823 -0.00689197 446.69045991 -0.00922955 448.58808804 -0.01888329 C451.15755532 -0.03095757 453.72576562 -0.01866467 456.29516602 0 C457.41356542 -0.014047 457.41356542 -0.014047 458.55455875 -0.02837777 C462.02207472 0.02234841 463.82952696 0.256558 466.60661316 2.41153383 C468.30275 4.71400014 468.65214515 5.74518603 468.66516113 8.56586456 C468.67776978 9.35348175 468.69037842 10.14109894 468.70336914 10.95258331 C468.69122375 12.21522003 468.69122375 12.21522003 468.67883301 13.50336456 C468.68265991 14.37605988 468.68648682 15.24875519 468.69042969 16.14789581 C468.69314791 17.99035548 468.68579295 19.8328538 468.66906738 21.67523956 C468.64765549 24.4938239 468.66887102 27.30985941 468.69445801 30.12836456 C468.69181471 31.92003685 468.6866897 33.71170755 468.67883301 35.50336456 C468.68692993 36.34512238 468.69502686 37.18688019 468.70336914 38.05414581 C468.68445618 39.23557159 468.68445618 39.23557159 468.66516113 40.44086456 C468.66197876 41.130513 468.65879639 41.82016144 468.65551758 42.53070831 C467.86945593 45.58352162 466.67532228 46.60527507 464.14758301 48.50336456 C461.10589745 49.09945093 458.10167781 49.02551745 455.01080322 48.98438263 C454.07633559 48.98780033 453.14186795 48.99121803 452.17908311 48.99473929 C449.04034369 49.00134047 445.9024549 48.9793048 442.76379395 48.95746613 C440.51692729 48.95633813 438.27005916 48.95697056 436.02319336 48.95923615 C429.91605842 48.9603861 423.80923628 48.93683101 417.70217419 48.90894032 C411.32268538 48.88397362 404.94318979 48.88158839 398.56365967 48.87683868 C387.85361274 48.86580973 377.14370286 48.8408071 366.43371582 48.80512238 C355.40247167 48.76840547 344.37125874 48.74009216 333.33996582 48.72309113 C332.65998172 48.72204023 331.97999762 48.72098934 331.27940795 48.7199066 C327.86812244 48.71468644 324.4568367 48.70963161 321.04555082 48.70465899 C292.74614904 48.66319308 264.44687219 48.59244393 236.14758301 48.50336456 C236.14758301 53.78336456 236.14758301 59.06336456 236.14758301 64.50336456 C239.36650299 64.49004089 239.36650299 64.49004089 242.65045166 64.47644806 C262.83972568 64.39478605 283.02897797 64.33521715 303.21837997 64.29611588 C313.5988186 64.27547811 323.97913615 64.2473343 334.35949707 64.20160675 C343.4055191 64.16177618 352.45145346 64.13594059 361.49756074 64.12701058 C366.28880555 64.12178942 371.07979952 64.10949264 375.87096405 64.08044434 C380.378771 64.05333491 384.88622329 64.04491047 389.394104 64.05093384 C391.05015234 64.04983159 392.7062123 64.04185099 394.36219025 64.02654266 C396.62082491 64.00668388 398.87811498 64.01140918 401.13677979 64.0223465 C402.40147976 64.01865932 403.66617973 64.01497215 404.96920395 64.01117325 C408.14758301 64.50336456 408.14758301 64.50336456 410.5540123 66.27726364 C412.27187876 68.67699658 412.64925587 69.69949028 412.65551758 72.60199738 C412.67243652 73.81321259 412.67243652 73.81321259 412.68969727 75.04889679 C412.67755188 76.36440521 412.67755188 76.36440521 412.66516113 77.70648956 C412.67567505 79.10224213 412.67567505 79.10224213 412.68640137 80.52619171 C412.70400762 83.6022195 412.69234907 86.67732741 412.67883301 89.75336456 C412.68152716 91.89041063 412.68540894 94.02745551 412.69042969 96.16449738 C412.69632831 100.64345724 412.68774984 105.12209803 412.66906738 109.60102081 C412.64627788 115.34478909 412.65939898 121.08780976 412.68335724 126.8315506 C412.69780522 131.24447013 412.69321376 135.65721217 412.68284607 140.07013702 C412.68017603 142.18805784 412.68345825 144.30599473 412.69276428 146.42389679 C412.70291319 149.38311251 412.68745161 152.34111436 412.66516113 155.30023956 C412.67325806 156.17724518 412.68135498 157.05425079 412.68969727 157.95783234 C412.67841797 158.76530914 412.66713867 159.57278595 412.65551758 160.40473175 C412.65325542 161.4533136 412.65325542 161.4533136 412.65094757 162.52307892 C411.88907096 165.52037634 410.61352711 166.67236132 408.14758301 168.50336456 C405.08502197 168.98438263 405.08502197 168.98438263 401.45129395 168.95746613 C400.78746704 168.95805023 400.12364014 168.95863434 399.43969727 168.95923615 C397.25324563 168.95645721 395.06817039 168.92537784 392.88195801 168.89398956 C391.36310572 168.88652641 389.84424379 168.88083382 388.32537842 168.87683868 C384.33354975 168.86158798 380.34230603 168.82231179 376.35070801 168.77802277 C372.27526767 168.73705745 368.19973253 168.71882503 364.12414551 168.69867706 C356.13168999 168.65581631 348.13970932 168.58757261 340.14758301 168.50336456 C340.15127018 169.46857906 340.15495735 170.43379356 340.15875626 171.42825699 C340.24749002 194.89632928 340.31325534 218.36437986 340.3548317 241.83258438 C340.37547128 253.18156388 340.40361859 264.53043268 340.44934082 275.87934113 C340.48916579 285.76916649 340.51500566 295.65891169 340.52393699 305.54881501 C340.52915908 310.78718121 340.54146194 316.02531804 340.57050323 321.26361084 C340.59760373 326.19164703 340.60603886 331.11935884 340.60001373 336.04746246 C340.60111638 337.85831463 340.60910214 339.66917737 340.62440491 341.47996521 C340.64424926 343.94875803 340.63954311 346.41631932 340.62860107 348.88513947 C340.64025244 349.60498638 340.65190381 350.32483329 340.66390824 351.06649375 C340.62617332 354.20708935 340.30274022 356.24868228 338.65841293 358.94775772 C335.03524977 361.19252044 331.62629114 361.05594252 327.49328613 361.01129913 C326.16932201 361.02065908 326.16932201 361.02065908 324.81861115 361.03020811 C321.85508165 361.04618852 318.8923689 361.03351409 315.92883301 361.02094269 C313.80667642 361.02636156 311.6845236 361.03348289 309.56237793 361.04218292 C303.79384166 361.06044707 298.02559095 361.05333588 292.25704956 361.04066658 C286.22641213 361.03055497 280.1957995 361.03992714 274.16516113 361.04621124 C264.03686117 361.053493 253.90867778 361.04388603 243.78039551 361.02484894 C232.06282458 361.00307927 220.34553202 361.01013026 208.62796783 361.03215456 C198.57607893 361.05029345 188.52427394 361.05287426 178.47237396 361.04239988 C172.46505672 361.03615666 166.45787041 361.03535214 160.45056152 361.04854584 C154.80342548 361.06008166 149.1566491 361.05211988 143.509552 361.02896881 C141.43426105 361.02366961 139.35893994 361.02521608 137.28366089 361.03401947 C134.45598881 361.04491064 131.6294775 361.03128922 128.80187988 361.01129913 C127.5627824 361.02468346 127.5627824 361.02468346 126.29865265 361.03833818 C122.89021168 360.99142843 120.56193996 360.76008307 117.63675308 358.94775772 C115.60588796 355.61420106 115.60525019 352.67329903 115.66656494 348.88513947 C115.66314724 348.11401392 115.65972954 347.34288838 115.65620828 346.5483954 C115.6496153 343.9623699 115.67162804 341.37738049 115.69348145 338.7914505 C115.69460962 336.93866755 115.69397665 335.0858828 115.69171143 333.23310089 C115.69056218 328.20028421 115.71410562 323.16784765 115.74200726 318.13511944 C115.76698581 312.87672278 115.76936011 307.61831774 115.77410889 302.35987091 C115.78654909 292.40094993 115.81938488 282.44220426 115.85950685 272.48336053 C115.90419202 261.14614424 115.92620342 249.80891965 115.94628859 238.47163725 C115.98811655 215.14878243 116.05848895 191.82608331 116.14758301 168.50336456 C115.30455627 168.51224701 114.46152954 168.52112946 113.59295654 168.53028107 C105.64754108 168.61043506 97.70226143 168.67133297 89.75653458 168.71061325 C85.67153931 168.73148668 81.58687816 168.75979919 77.5020752 168.80512238 C73.55983955 168.84858987 69.61792524 168.87250351 65.67546844 168.88287354 C64.17153617 168.89026338 62.66762144 168.90469423 61.16382599 168.92628479 C59.05678841 168.95533268 56.95107772 168.95932027 54.84387207 168.95746613 C53.64474182 168.96634857 52.44561157 168.97523102 51.21014404 168.98438263 C48.14758301 168.50336456 48.14758301 168.50336456 45.76081085 166.73114777 C44.02092771 164.32846023 43.6459386 163.32042645 43.63964844 160.40473175 C43.62836914 159.59725494 43.61708984 158.78977814 43.60546875 157.95783234 C43.61356567 157.08082672 43.6216626 156.20382111 43.63000488 155.30023956 C43.62299561 154.36973785 43.61598633 153.43923615 43.60876465 152.48053741 C43.5911584 149.40450963 43.60281694 146.32940172 43.61633301 143.25336456 C43.61363886 141.11631849 43.60975708 138.97927362 43.60473633 136.84223175 C43.5988377 132.36327189 43.60741617 127.88463109 43.62609863 123.40570831 C43.64888813 117.66194004 43.63576704 111.91891936 43.61180878 106.17517853 C43.5973608 101.76225899 43.60195225 97.34951696 43.61231995 92.9365921 C43.61498999 90.81867128 43.61170777 88.70073439 43.60240173 86.58283234 C43.59225283 83.62361662 43.6077144 80.66561477 43.63000488 77.70648956 C43.62190796 76.82948395 43.61381104 75.95247833 43.60546875 75.04889679 C43.61674805 74.24141998 43.62802734 73.43394318 43.63964844 72.60199738 C43.64115654 71.90294281 43.64266464 71.20388824 43.64421844 70.48365021 C44.40912951 67.47441491 45.66298717 66.3348841 48.14758301 64.50336456 C51.32596207 64.01117325 51.32596207 64.01117325 55.15838623 64.0223465 C55.86417494 64.0189288 56.56996364 64.0155111 57.29713988 64.01198983 C59.66208883 64.00540118 62.02590271 64.02740171 64.39074707 64.049263 C66.08589654 64.05039127 67.78104796 64.04975801 69.47619629 64.04749298 C74.0792893 64.04634411 78.6819664 64.06988135 83.28496265 64.09778881 C88.09492198 64.12277365 92.90489058 64.12514216 97.71490479 64.12989044 C106.82385044 64.1423288 115.93260435 64.17516206 125.04146552 64.2152884 C135.411346 64.25997934 145.78123558 64.28198642 156.15118837 64.30207014 C177.48342988 64.34389393 198.81548762 64.41506731 220.14758301 64.50336456 C220.14758301 59.22336456 220.14758301 53.94336456 220.14758301 48.50336456 C218.39053732 48.50889532 218.39053732 48.50889532 216.59799576 48.51453781 C188.80345809 48.60113543 161.00893092 48.66710966 133.2142867 48.70762588 C129.79459096 48.71262882 126.37489551 48.71780609 122.9552002 48.72309113 C121.93398381 48.72466499 121.93398381 48.72466499 120.89213678 48.72627065 C109.86290069 48.74368446 98.83374785 48.77522748 87.80456117 48.81197575 C76.490859 48.84935811 65.17721859 48.87129518 53.86345077 48.87971854 C47.50727528 48.88494241 41.15128871 48.89725668 34.79517365 48.92628479 C28.81655944 48.9533685 22.83821257 48.96182376 16.85954285 48.95579529 C14.66168008 48.95689868 12.46380868 48.96489419 10.26599884 48.98018646 C7.27178834 49.00000381 4.27859542 48.99533366 1.28436279 48.98438263 C0.40887795 48.996034 -0.4666069 49.00768536 -1.36862159 49.0196898 C-7.24247429 48.96137297 -7.24247429 48.96137297 -10.39171982 46.59659195 C-11.99425637 44.30010405 -12.35722096 43.209137 -12.36999512 40.44086456 C-12.38260376 39.65324738 -12.3952124 38.86563019 -12.40820312 38.05414581 C-12.4001062 37.212388 -12.39200928 36.37063019 -12.38366699 35.50336456 C-12.3874939 34.63066925 -12.3913208 33.75797394 -12.39526367 32.85883331 C-12.39798189 31.01637364 -12.39062694 29.17387532 -12.37390137 27.33148956 C-12.35248947 24.51290523 -12.373705 21.69686972 -12.39929199 18.87836456 C-12.3966487 17.08669228 -12.39152369 15.29502157 -12.38366699 13.50336456 C-12.39176392 12.66160675 -12.39986084 11.81984894 -12.40820312 10.95258331 C-12.39559448 10.16496613 -12.38298584 9.37734894 -12.36999512 8.56586456 C-12.36681274 7.87621613 -12.36363037 7.18656769 -12.36035156 6.47602081 C-10.73153715 0.1502239 -5.60063784 -0.07034351 0 0 Z M4.14758301 16.50336456 C4.14758301 21.78336456 4.14758301 27.06336456 4.14758301 32.50336456 C151.98758301 32.50336456 299.82758301 32.50336456 452.14758301 32.50336456 C452.14758301 27.22336456 452.14758301 21.94336456 452.14758301 16.50336456 C304.30758301 16.50336456 156.46758301 16.50336456 4.14758301 16.50336456 Z M60.14758301 80.50336456 C60.14758301 104.26336456 60.14758301 128.02336456 60.14758301 152.50336456 C78.62758301 152.50336456 97.10758301 152.50336456 116.14758301 152.50336456 C116.14758301 128.74336456 116.14758301 104.98336456 116.14758301 80.50336456 C97.66758301 80.50336456 79.18758301 80.50336456 60.14758301 80.50336456 Z M132.14758301 80.50336456 C132.14758301 167.62336456 132.14758301 254.74336456 132.14758301 344.50336456 C195.50758301 344.50336456 258.86758301 344.50336456 324.14758301 344.50336456 C324.14758301 257.38336456 324.14758301 170.26336456 324.14758301 80.50336456 C310.94758301 80.50336456 297.74758301 80.50336456 284.14758301 80.50336456 C281.67258301 87.92836456 281.67258301 87.92836456 279.14758301 95.50336456 C274.2437396 105.41112982 274.2437396 105.41112982 270.96398926 108.67914581 C268.91238709 110.31051932 268.91238709 110.31051932 269.14758301 112.50336456 C268.56105957 112.77535675 267.97453613 113.04734894 267.37023926 113.32758331 C265.19069968 114.48055592 263.48848591 115.75778745 261.58508301 117.31586456 C248.27602866 127.4714676 233.29624439 128.73233423 217.14758301 127.50336456 C212.80007183 126.699623 209.11323409 125.43565332 205.14758301 123.50336456 C204.17434082 123.03285675 203.20109863 122.56234894 202.19836426 122.07758331 C188.7678192 115.13816951 180.36983291 104.65695351 175.14758301 90.50336456 C174.15758301 87.20336456 173.16758301 83.90336456 172.14758301 80.50336456 C158.94758301 80.50336456 145.74758301 80.50336456 132.14758301 80.50336456 Z M190.14758301 80.50336456 C191.55669716 90.36716366 196.13224985 98.38718683 204.14758301 104.50336456 C213.50492552 110.46179002 223.59014622 113.53714895 234.71008301 112.00336456 C244.73798653 109.69373081 253.92793576 104.82387044 260.14758301 96.50336456 C264.71411533 88.97854347 264.71411533 88.97854347 266.14758301 80.50336456 C241.06758301 80.50336456 215.98758301 80.50336456 190.14758301 80.50336456 Z M340.14758301 80.50336456 C340.14758301 104.26336456 340.14758301 128.02336456 340.14758301 152.50336456 C358.62758301 152.50336456 377.10758301 152.50336456 396.14758301 152.50336456 C396.14758301 128.74336456 396.14758301 104.98336456 396.14758301 80.50336456 C377.66758301 80.50336456 359.18758301 80.50336456 340.14758301 80.50336456 Z " fill="#000000" transform="translate(27.8524169921875,135.49663543701172)"/>
<path d="M0 0 C5.61 0 11.22 0 17 0 C16.70947738 9.15146262 13.26705978 14.57284583 7.0625 21.125 C4.73214502 23.86347163 4.73214502 23.86347163 4.6875 27.3125 C6.29890307 31.8397753 8.79342073 34.23139468 12.0546875 37.6796875 C16.34856744 42.80130333 17.61919846 49.09187849 17.34375 55.6796875 C16.2240655 63.23755788 12.85321789 68.80564976 7.5859375 74.2109375 C5.68376876 76.20135742 5.68376876 76.20135742 4 80 C-1.61 80 -7.22 80 -13 80 C-12.57736735 70.98383678 -9.79822185 65.89851774 -3.625 59.4375 C-1.38662489 56.85520789 -1.02110929 56.18998363 -0.625 52.625 C-2.3076129 48.18902054 -4.83023979 45.72967477 -8.0546875 42.3203125 C-12.34856744 37.19869667 -13.61919846 30.90812151 -13.34375 24.3203125 C-12.2240655 16.76244212 -8.85321789 11.19435024 -3.5859375 5.7890625 C-1.68376876 3.79864258 -1.68376876 3.79864258 0 0 Z " fill="#000000" transform="translate(406,48)"/>
<path d="M0 0 C5.61 0 11.22 0 17 0 C16.70947738 9.15146262 13.26705978 14.57284583 7.0625 21.125 C4.73214502 23.86347163 4.73214502 23.86347163 4.6875 27.3125 C6.29890307 31.8397753 8.79342073 34.23139468 12.0546875 37.6796875 C16.34856744 42.80130333 17.61919846 49.09187849 17.34375 55.6796875 C16.2240655 63.23755788 12.85321789 68.80564976 7.5859375 74.2109375 C5.68376876 76.20135742 5.68376876 76.20135742 4 80 C-1.61 80 -7.22 80 -13 80 C-12.57736735 70.98383678 -9.79822185 65.89851774 -3.625 59.4375 C-1.38662489 56.85520789 -1.02110929 56.18998363 -0.625 52.625 C-2.3076129 48.18902054 -4.83023979 45.72967477 -8.0546875 42.3203125 C-12.34856744 37.19869667 -13.61919846 30.90812151 -13.34375 24.3203125 C-12.2240655 16.76244212 -8.85321789 11.19435024 -3.5859375 5.7890625 C-1.68376876 3.79864258 -1.68376876 3.79864258 0 0 Z " fill="#000000" transform="translate(110,48)"/>
<path d="M0 0 C5.61 0 11.22 0 17 0 C16.70947738 9.15146262 13.26705978 14.57284583 7.0625 21.125 C4.73214502 23.86347163 4.73214502 23.86347163 4.6875 27.3125 C6.29890307 31.8397753 8.79342073 34.23139468 12.0546875 37.6796875 C16.34856744 42.80130333 17.61919846 49.09187849 17.34375 55.6796875 C16.2240655 63.23755788 12.85321789 68.80564976 7.5859375 74.2109375 C5.68376876 76.20135742 5.68376876 76.20135742 4 80 C-1.61 80 -7.22 80 -13 80 C-12.57736735 70.98383678 -9.79822185 65.89851774 -3.625 59.4375 C-1.38662489 56.85520789 -1.02110929 56.18998363 -0.625 52.625 C-2.3076129 48.18902054 -4.83023979 45.72967477 -8.0546875 42.3203125 C-12.34856744 37.19869667 -13.61919846 30.90812151 -13.34375 24.3203125 C-12.2240655 16.76244212 -8.85321789 11.19435024 -3.5859375 5.7890625 C-1.68376876 3.79864258 -1.68376876 3.79864258 0 0 Z " fill="#000000" transform="translate(334,32)"/>
<path d="M0 0 C5.61 0 11.22 0 17 0 C16.70947738 9.15146262 13.26705978 14.57284583 7.0625 21.125 C4.73214502 23.86347163 4.73214502 23.86347163 4.6875 27.3125 C6.29890307 31.8397753 8.79342073 34.23139468 12.0546875 37.6796875 C16.34856744 42.80130333 17.61919846 49.09187849 17.34375 55.6796875 C16.2240655 63.23755788 12.85321789 68.80564976 7.5859375 74.2109375 C5.68376876 76.20135742 5.68376876 76.20135742 4 80 C-1.61 80 -7.22 80 -13 80 C-12.57736735 70.98383678 -9.79822185 65.89851774 -3.625 59.4375 C-1.38662489 56.85520789 -1.02110929 56.18998363 -0.625 52.625 C-2.3076129 48.18902054 -4.83023979 45.72967477 -8.0546875 42.3203125 C-12.34856744 37.19869667 -13.61919846 30.90812151 -13.34375 24.3203125 C-12.2240655 16.76244212 -8.85321789 11.19435024 -3.5859375 5.7890625 C-1.68376876 3.79864258 -1.68376876 3.79864258 0 0 Z " fill="#000000" transform="translate(182,32)"/>
<path d="M0 0 C5.61 0 11.22 0 17 0 C16.70947738 9.15146262 13.26705978 14.57284583 7.0625 21.125 C4.73214502 23.86347163 4.73214502 23.86347163 4.6875 27.3125 C6.29890307 31.8397753 8.79342073 34.23139468 12.0546875 37.6796875 C16.34856744 42.80130333 17.61919846 49.09187849 17.34375 55.6796875 C16.2240655 63.23755788 12.85321789 68.80564976 7.5859375 74.2109375 C5.68376876 76.20135742 5.68376876 76.20135742 4 80 C-1.61 80 -7.22 80 -13 80 C-12.57736735 70.98383678 -9.79822185 65.89851774 -3.625 59.4375 C-1.38662489 56.85520789 -1.02110929 56.18998363 -0.625 52.625 C-2.3076129 48.18902054 -4.83023979 45.72967477 -8.0546875 42.3203125 C-12.34856744 37.19869667 -13.61919846 30.90812151 -13.34375 24.3203125 C-12.2240655 16.76244212 -8.85321789 11.19435024 -3.5859375 5.7890625 C-1.68376876 3.79864258 -1.68376876 3.79864258 0 0 Z " fill="#000000" transform="translate(254,16)"/>
</svg>
