<?xml version="1.0" encoding="UTF-8"?>
<svg version="1.1" xmlns="http://www.w3.org/2000/svg" width="512" height="512">
<path d="M0 0 C1.12923524 -0.01064158 1.12923524 -0.01064158 2.28128332 -0.02149814 C4.79973338 -0.03907752 7.31663992 -0.02097511 9.83506775 -0.00291443 C11.64210716 -0.00805326 13.44914157 -0.01533426 15.25616455 -0.02459717 C20.16112784 -0.04312274 25.06554806 -0.03016581 29.97048879 -0.01050687 C35.10157872 0.00586885 40.23263396 -0.00293165 45.36373901 -0.00802612 C53.97959579 -0.01254787 62.59523552 0.00332886 71.21104431 0.03126526 C81.17626736 0.06332765 91.14109914 0.06329774 101.10635 0.04605049 C110.68894556 0.03019558 120.27139748 0.03691164 129.85398674 0.0539875 C133.93407953 0.06086533 138.01405744 0.05981808 142.09414864 0.05244255 C146.89676084 0.04479024 151.69892686 0.0568713 156.50146294 0.08429146 C158.26552379 0.09118707 160.02962622 0.09126069 161.79368591 0.08407593 C164.19881389 0.07540778 166.60255644 0.09129074 169.00756836 0.11352539 C169.70844088 0.10528462 170.4093134 0.09704386 171.13142449 0.08855337 C174.44335991 0.14520835 176.1873101 0.43894381 178.86968136 2.44551182 C181.19716517 5.68001483 181.05378967 7.74270613 180.44029236 11.62818909 C178.81529236 14.56568909 178.81529236 14.56568909 175.44029236 16.62818909 C170.7443516 17.04300605 166.14136174 16.91445177 161.44029236 16.62818909 C161.44029236 19.92818909 161.44029236 23.22818909 161.44029236 26.62818909 C187.84029236 26.62818909 214.24029236 26.62818909 241.44029236 26.62818909 C241.44029236 23.32818909 241.44029236 20.02818909 241.44029236 16.62818909 C240.48767517 16.6861969 239.53505798 16.74420471 238.55357361 16.80397034 C228.32973028 17.17173449 228.32973028 17.17173449 224.06529236 14.56568909 C222.02305499 10.8739523 221.75978271 8.78685916 222.44029236 4.62818909 C224.01090336 2.44551182 224.01090336 2.44551182 226.44029236 0.62818909 C229.05799897 0.23288968 231.25709602 0.08276774 233.87301636 0.11352539 C234.99991161 0.1031071 234.99991161 0.1031071 236.14957243 0.09247833 C238.66857411 0.0741724 241.1866378 0.08448215 243.70567322 0.09474182 C245.51094265 0.08768512 247.31620616 0.07894116 249.12145996 0.06863403 C254.02645773 0.04610189 258.93113341 0.04908874 263.83616328 0.0579555 C267.92925069 0.06306002 272.02227727 0.05577717 276.11535841 0.04848343 C285.77051725 0.03147215 295.42551809 0.03506252 305.08067322 0.05177307 C315.04532826 0.06869616 325.00954531 0.05286002 334.97415251 0.02055019 C343.5262905 -0.00613043 352.07829203 -0.01342585 360.63046747 -0.00493473 C365.73969495 -0.0000011 370.84865883 -0.00224465 375.95785332 -0.02272224 C380.76214448 -0.04105534 385.56580478 -0.03514976 390.37006187 -0.01052284 C392.1337121 -0.0055074 393.89741018 -0.00902371 395.66102219 -0.0216713 C398.06827123 -0.0375695 400.47343459 -0.02268428 402.88058472 0 C403.92854742 -0.01775359 403.92854742 -0.01775359 404.99768108 -0.03586584 C408.84425207 0.03782293 410.36423474 0.56609164 413.38713932 3.03415012 C415.44029236 5.62818909 415.44029236 5.62818909 415.85044861 7.76100159 C415.73572205 8.41842346 415.62099548 9.07584534 415.50279236 9.75318909 C415.41126892 10.41576721 415.31974548 11.07834534 415.22544861 11.76100159 C414.10204011 14.43258995 413.00270476 15.26520376 410.44029236 16.62818909 C406.98716736 16.92115784 406.98716736 16.92115784 403.19029236 16.81568909 C401.29537048 16.77508362 401.29537048 16.77508362 399.36216736 16.73365784 C398.39794861 16.69885315 397.43372986 16.66404846 396.44029236 16.62818909 C396.44029236 19.92818909 396.44029236 23.22818909 396.44029236 26.62818909 C397.53494812 26.61247864 398.62960388 26.59676819 399.75743103 26.58058167 C403.82945867 26.52616799 407.90145433 26.49179753 411.97373962 26.46339417 C413.73421132 26.44833356 415.49464566 26.42788083 417.25498962 26.40187073 C419.78950739 26.3653668 422.32352788 26.34843554 424.85826111 26.33522034 C425.64178452 26.31973648 426.42530792 26.30425262 427.23257446 26.28829956 C431.81619979 26.28689676 434.86634094 26.66500529 438.44029236 29.62818909 C440.51050423 32.88564307 440.69319552 35.48811787 440.70098877 39.30784607 C440.70807358 40.46582703 440.71515839 41.62380798 440.72245789 42.81687927 C440.71998047 44.08347382 440.71750305 45.35006836 440.71495056 46.65504456 C440.71929889 48.00549095 440.72448244 49.35593487 440.73043823 50.70637512 C440.7438278 54.37174129 440.74440688 58.03700434 440.74187493 61.70239019 C440.74080501 64.76395819 440.74568922 67.82550534 440.75048035 70.88706887 C440.76157577 78.11150111 440.76201301 85.33588135 440.75596619 92.56031799 C440.74992786 100.00845999 440.76223366 107.45641302 440.78353626 114.90452278 C440.80116245 121.30295797 440.80715194 127.70133307 440.80389851 134.09979165 C440.80208685 137.91959083 440.80470991 141.73925527 440.81861305 145.55903244 C440.83120314 149.15256023 440.82923636 152.74579397 440.81620216 156.33931732 C440.81271482 158.28236662 440.82400619 160.22542495 440.83576965 162.16844177 C440.77055419 172.9871865 440.77055419 172.9871865 437.44029236 177.62818909 C434.39765207 179.14950923 431.23440774 178.76906256 427.89644051 178.76241016 C427.10517232 178.76476239 426.31390413 178.76711462 425.49865812 178.76953813 C422.81896191 178.77625148 420.13931392 178.77576921 417.45960999 178.77536011 C415.53032732 178.77865727 413.60104534 178.78238252 411.67176425 178.78650159 C406.34806783 178.7965463 401.02438267 178.80024233 395.70067811 178.8028909 C389.96779031 178.80678657 384.2349115 178.81636531 378.50202942 178.82510376 C364.64733115 178.84488771 350.79263212 178.85493623 336.93792325 178.86383155 C330.42031927 178.86821076 323.9027161 178.87357847 317.38511276 178.87882042 C295.7315466 178.89583364 274.07798159 178.91035448 252.42440987 178.91756916 C251.02363656 178.91804392 249.62286325 178.91851981 248.22208994 178.91899682 C247.18008154 178.91935139 247.18008154 178.91935139 246.11702248 178.91971311 C242.59733769 178.92091434 239.07765291 178.92212978 235.55796814 178.9233551 C234.51022178 178.92371533 234.51022178 178.92371533 233.44130883 178.92408283 C210.78376219 178.93197941 188.12626783 178.95541856 165.46874403 178.98791105 C141.52673664 179.02218305 117.58476118 179.04191665 93.64272869 179.0452134 C80.58637722 179.04738269 67.53010262 179.05619258 54.47377396 179.08167458 C43.35842675 179.10331776 32.24317507 179.11146353 21.12780918 179.10170779 C15.45242829 179.09714469 9.77724474 179.09916549 4.10189056 179.11846924 C-1.08817177 179.13597062 -6.27789088 179.13521007 -11.4679562 179.11957195 C-13.35086639 179.11717594 -15.23379954 179.12162136 -17.11667441 179.1334006 C-19.66626495 179.14836958 -22.21461555 179.13895236 -24.76417351 179.12317371 C-25.50392742 179.13339592 -26.24368134 179.14361813 -27.00585204 179.1541501 C-30.40915471 179.10783161 -32.24039089 178.87095524 -34.98442852 176.78475255 C-37.58116116 173.22981511 -37.68754245 170.33581342 -37.70014954 166.0620575 C-37.70585968 164.90400604 -37.71156982 163.74595459 -37.717453 162.55281067 C-37.71857086 161.2810498 -37.71968872 160.00928894 -37.72084045 158.69898987 C-37.72546941 157.34706995 -37.73049417 155.99515134 -37.73588562 154.64323425 C-37.74900331 150.96964012 -37.75545322 147.29606425 -37.75989628 143.62245035 C-37.76282774 141.32734208 -37.76693266 139.03223879 -37.77140045 136.73713303 C-37.78507309 129.55622828 -37.79474116 122.37533494 -37.79860234 115.19441807 C-37.8030841 106.90499211 -37.82063835 98.61573095 -37.84960294 90.3263551 C-37.87121569 83.91862275 -37.88130639 77.51093678 -37.88264346 71.10316837 C-37.88369169 67.27610811 -37.88960331 63.44920283 -37.90746307 59.62218094 C-37.92393707 56.02212036 -37.9261027 52.42233138 -37.91732407 48.82224655 C-37.91618614 46.87301918 -37.92990831 44.92380085 -37.94407654 42.97462463 C-37.93572281 41.22908798 -37.93572281 41.22908798 -37.92720032 39.44828796 C-37.92866688 38.43913393 -37.93013344 37.4299799 -37.93164444 36.39024544 C-37.41556109 32.55773599 -35.96534236 29.73107809 -32.90248108 27.32789612 C-29.32315474 26.25887264 -25.77447559 26.38446096 -22.07533264 26.43287659 C-21.25973877 26.43570648 -20.4441449 26.43853638 -19.60383606 26.44145203 C-17.00564236 26.45262351 -14.40779669 26.47772234 -11.80970764 26.50318909 C-10.04538971 26.51322282 -8.28106637 26.52234798 -6.51673889 26.53053284 C-2.19759491 26.5525529 2.12128976 26.58706175 6.44029236 26.62818909 C6.44029236 23.32818909 6.44029236 20.02818909 6.44029236 16.62818909 C4.99396423 16.68039612 4.99396423 16.68039612 3.51841736 16.73365784 C2.25513611 16.76072815 0.99185486 16.78779846 -0.30970764 16.81568909 C-1.56267639 16.85049377 -2.81564514 16.88529846 -4.10658264 16.92115784 C-7.74370768 16.61257822 -9.09821755 16.26847992 -11.55970764 13.62818909 C-12.34486389 11.76100159 -12.34486389 11.76100159 -12.62220764 9.75318909 C-12.7369342 9.09576721 -12.85166077 8.43834534 -12.96986389 7.76100159 C-11.6811937 1.05991659 -5.85886656 -0.09925537 0 0 Z M22.44029236 16.62818909 C22.44029236 19.92818909 22.44029236 23.22818909 22.44029236 26.62818909 C63.03029236 26.62818909 103.62029236 26.62818909 145.44029236 26.62818909 C145.44029236 23.32818909 145.44029236 20.02818909 145.44029236 16.62818909 C104.85029236 16.62818909 64.26029236 16.62818909 22.44029236 16.62818909 Z M257.44029236 16.62818909 C257.44029236 19.92818909 257.44029236 23.22818909 257.44029236 26.62818909 C298.03029236 26.62818909 338.62029236 26.62818909 380.44029236 26.62818909 C380.44029236 23.32818909 380.44029236 20.02818909 380.44029236 16.62818909 C339.85029236 16.62818909 299.26029236 16.62818909 257.44029236 16.62818909 Z M-20.55970764 43.62818909 C-20.55970764 82.89818909 -20.55970764 122.16818909 -20.55970764 162.62818909 C125.96029236 162.62818909 272.48029236 162.62818909 423.44029236 162.62818909 C423.44029236 123.35818909 423.44029236 84.08818909 423.44029236 43.62818909 C276.92029236 43.62818909 130.40029236 43.62818909 -20.55970764 43.62818909 Z " fill="#000000" transform="translate(54.55970764160156,247.37181091308594)"/>
<path d="M0 0 C2.82864135 1.34159659 5.14034354 3.15606069 7.5625 5.125 C8.24723389 5.6627002 8.93196777 6.20040039 9.63745117 6.75439453 C32.23750249 24.79399038 52.57862402 47.30419117 57 77 C58.54093675 95.87280629 56.79480169 115.1971978 44.96484375 130.66015625 C34.42292311 142.12042932 19.13473586 146.27088134 4 147 C2.41251953 147.07927734 2.41251953 147.07927734 0.79296875 147.16015625 C-15.79150849 147.58826285 -31.11350489 143.92121079 -44 133.125 C-53.49832966 123.9797681 -57.34491635 114.40422449 -57.99609375 101.39453125 C-58.00846759 90.64165998 -53.21896311 82.27212222 -47.375 73.5 C-41.74761288 64.69031317 -40.51085307 57.77690221 -41.75390625 47.5324707 C-42.09068878 44.4076646 -42.21688739 42.41949692 -40.75390625 39.58984375 C-38.47636053 37.52534239 -36.33899819 37.00177501 -33.30078125 36.78515625 C-24.95914126 37.56408698 -18.7077666 43.68508436 -12.93359375 49.20703125 C-11.31728083 51.11332326 -11.31728083 51.11332326 -10 51 C-8.93471919 44.86604438 -8.78213572 38.84326114 -8.75 32.625 C-8.729375 31.635 -8.70875 30.645 -8.6875 29.625 C-8.65747153 23.93460576 -9.19660239 19.28464126 -11.30981445 13.98120117 C-12.53678859 10.45913002 -12.43963918 7.7055302 -12 4 C-9.16787971 -0.72020048 -5.08558065 -0.86118435 0 0 Z M9 29 C8.94054199 29.66717041 8.88108398 30.33434082 8.81982422 31.02172852 C7.67323621 43.37763963 6.2404579 55.48315919 3.0625 67.5 C2.70164307 68.86620483 2.70164307 68.86620483 2.33349609 70.26000977 C-2.56564656 87.87839304 -2.56564656 87.87839304 -8 91 C-14.32727273 90.67272727 -14.32727273 90.67272727 -17 88 C-17.98025797 84.47943937 -17.98539927 81.43443875 -17.75 77.8125 C-17.648464 71.58495863 -19.81761095 67.23957626 -23 62 C-23.66 62 -24.32 62 -25 62 C-25.20753906 62.79921875 -25.41507813 63.5984375 -25.62890625 64.421875 C-27.98189727 72.80994342 -31.37416445 79.6524519 -36 87 C-40.07902225 93.87571715 -41.81662433 98.96208338 -41 107 C-38.92654696 114.70675017 -34.35407191 120.36095641 -27.5703125 124.47265625 C-19.18815377 128.84207942 -11.69915745 130.36862112 -2.3125 130.3125 C-0.84538574 130.30404053 -0.84538574 130.30404053 0.65136719 130.29541016 C11.92495746 130.10620567 22.03195236 128.30552188 31 121 C38.31264034 113.06895456 40.39309773 102.48285744 41 92 C41.05285156 91.24460938 41.10570312 90.48921875 41.16015625 89.7109375 C41.91456365 69.57153987 31.95508465 52.55891583 19 38 C16.10497714 34.88456545 13.19608848 31.80958476 10 29 C9.67 29 9.34 29 9 29 Z " fill="#000000" transform="translate(139,86)"/>
<path d="M0 0 C3.10546875 1.58203125 3.10546875 1.58203125 6.1875 3.8125 C6.74356934 4.21484863 7.29963867 4.61719727 7.87255859 5.03173828 C13.45676558 9.16496819 18.56824983 13.77784542 23.5546875 18.60595703 C24.96938288 19.97046896 26.40638916 21.31172835 27.84375 22.65234375 C44.65574474 38.73235557 56.64556464 59.47509487 58.203125 83.078125 C58.48316187 102.02728634 55.73272773 119.56048144 42.37890625 133.71875 C29.88552836 145.46312442 10.89249905 147.32396616 -5.44921875 147.1484375 C-19.0668052 146.57916546 -31.19761584 142.39953275 -42 134 C-42.92232422 133.28457031 -42.92232422 133.28457031 -43.86328125 132.5546875 C-51.38250357 125.91909885 -56.47245094 115.17263821 -57.203125 105.23828125 C-57.40429827 92.68171647 -53.48929134 84.57356022 -47 74 C-46.03020857 72.33997436 -45.07054948 70.67395243 -44.125 69 C-43.73570312 68.319375 -43.34640625 67.63875 -42.9453125 66.9375 C-41.20960637 63.38001967 -40.8942627 60.30165925 -41.078125 56.375 C-41.10390625 55.50359375 -41.1296875 54.6321875 -41.15625 53.734375 C-41.21877064 51.91085646 -41.29691279 50.08780685 -41.390625 48.265625 C-41.54774438 41.62733117 -41.54774438 41.62733117 -38.71484375 38.3828125 C-35.67083569 36.83233933 -33.59769444 36.63296715 -30.23828125 37.265625 C-22.33964425 39.85714988 -15.95143062 45.38105153 -10 51 C-6.7410337 39.15714924 -6.72406873 26.37037927 -10.24609375 14.61328125 C-12.4517023 6.96793349 -12.4517023 6.96793349 -10.6875 3.1875 C-7.64918773 -0.75105295 -4.78620417 -0.38269753 0 0 Z M9 29 C8.96132813 30.49273437 8.96132813 30.49273437 8.921875 32.015625 C8.25185924 50.53324165 5.48629211 74.27056183 -5 90 C-8.92010499 90.87113444 -12.17022458 91.37871915 -16 90 C-16.96403522 86.81868378 -17.01826151 84.12184099 -16.875 80.8125 C-16.82353806 74.39691168 -17.60726879 68.55667761 -22.109375 63.74609375 C-22.73328125 63.16988281 -23.3571875 62.59367187 -24 62 C-24.21914063 62.73863281 -24.43828125 63.47726563 -24.6640625 64.23828125 C-27.30624542 72.69111847 -30.81350144 80.15740938 -35.68359375 87.55859375 C-39.40252841 93.27522953 -41.64656643 98.06018702 -41 105 C-38.52879298 114.7124183 -33.35357786 120.51929013 -24.890625 125.60546875 C-17.10397359 129.36200193 -10.31836483 130.49851225 -1.6875 130.375 C-0.16564087 130.3608606 -0.16564087 130.3608606 1.38696289 130.34643555 C13.7403008 130.0976441 24.42704345 128.049119 33.25 118.875 C42.43698469 107.46010894 42.10402197 90.82750383 41 77 C38.36438983 60.6873301 28.32293094 47.35678126 17 36 C16.12730469 35.10410156 15.25460937 34.20820312 14.35546875 33.28515625 C12.02379601 30.88496986 12.02379601 30.88496986 9 29 Z " fill="#000000" transform="translate(373,86)"/>
<path d="M0 0 C0.70253906 0.4125 1.40507812 0.825 2.12890625 1.25 C10.74910583 7.00770447 16.4266173 16.22563842 18.46484375 26.296875 C20.0736612 37.64898013 17.42268877 47.58204339 11 57 C5.66517823 64.09490364 -3.203611 69.4920476 -12 71 C-25.48991855 71.88347074 -35.64059061 70.00364776 -46 61 C-54.82880847 51.60694437 -57.39726027 42.37842377 -57.27734375 29.640625 C-56.47241921 19.07457326 -51.31861944 10.77765694 -43.625 3.75 C-31.91596189 -5.77819731 -13.14325568 -7.83210767 0 0 Z M-35.92578125 18.984375 C-39.84378811 24.25825535 -41.58416424 29.42311645 -41 36 C-39.57986939 42.24304169 -37.07223338 46.94935925 -31.9140625 50.8125 C-26.3061198 54.29171343 -21.68414425 55.57097862 -15.1015625 54.5078125 C-8.78110727 52.98056495 -4.45167211 49.57768438 -0.80078125 44.25 C2.24813164 38.94382178 2.93251214 34.03729512 2 28 C-0.1558947 20.80517981 -4.99858772 16.37921811 -11.3125 12.625 C-20.56091928 10.47420482 -29.13601331 11.98802183 -35.92578125 18.984375 Z " fill="#000000" transform="translate(158,317)"/>
<path d="M0 0 C0.78938965 0.00757324 1.5787793 0.01514648 2.39208984 0.02294922 C13.20918654 0.32781288 21.09344297 4.62933397 28.8125 12.0625 C36.57081072 20.44147558 38.4584137 29.73726033 38.33203125 40.8359375 C37.73973934 51.13958166 33.43953771 59.44221014 25.9140625 66.515625 C15.88469843 74.66234394 5.90175079 76.41083617 -6.875 75.4375 C-18.21715636 72.9186201 -26.66509991 66.18379882 -33.0625 56.671875 C-37.98761596 48.05292207 -38.66979815 37.87011228 -36.70703125 28.296875 C-33.39747397 16.92318518 -27.03572534 9.35991173 -16.875 3.4375 C-11.2535316 0.74270382 -6.20044336 -0.08370001 0 0 Z M-17.6875 25.7265625 C-21.31801971 30.95737708 -21.64369054 36.21205565 -20.875 42.4375 C-18.78607551 48.94139463 -14.88204601 53.52392526 -9.125 57.1875 C-3.01355731 59.53805488 1.96814691 60.15759696 8.25 58 C14.75895101 55.05981964 18.74877426 50.53400791 21.625 44.0625 C22.71536137 36.15738003 21.89202558 29.93849028 17.05078125 23.421875 C12.35673711 18.58501004 6.7019913 16.20494419 0 15.875 C-7.74552821 16.3363324 -12.98588624 19.67067956 -17.6875 25.7265625 Z " fill="#000000" transform="translate(372.875,312.5625)"/>
<path d="M0 0 C1.21975021 -0.00503792 1.21975021 -0.00503792 2.46414185 -0.01017761 C5.16116856 -0.01970213 7.85813328 -0.02163153 10.55517578 -0.02270508 C12.42603583 -0.02591683 14.29689562 -0.02928083 16.16775513 -0.03279114 C20.09361351 -0.03878631 24.01944986 -0.04063066 27.9453125 -0.04003906 C32.97822224 -0.03993747 38.01099083 -0.0535854 43.04386711 -0.07081127 C46.90944061 -0.08192539 50.77497994 -0.08395844 54.64056778 -0.08342934 C56.49613049 -0.08461051 58.35169404 -0.08903993 60.20724106 -0.0967617 C62.80232393 -0.10654886 65.39709978 -0.10368851 67.9921875 -0.09765625 C68.76012634 -0.10327576 69.52806519 -0.10889526 70.3192749 -0.11468506 C74.06053014 -0.09256395 76.99234705 -0.02543019 80.12548828 2.14526367 C82.22228231 4.84114171 82.12059649 6.23820767 81.93798828 9.70776367 C80.843799 14.33702602 80.843799 14.33702602 78.12548828 16.14526367 C75.26904333 16.45185145 72.62882602 16.57558188 69.77026367 16.56518555 C68.91793655 16.57365509 68.06560944 16.58212463 67.18745422 16.59085083 C64.36586648 16.61427794 61.54482223 16.61524164 58.72314453 16.61401367 C56.76403076 16.62111183 54.80491909 16.62881032 52.84580994 16.63708496 C48.73756127 16.65054292 44.6295048 16.65209265 40.52124023 16.64624023 C35.25376128 16.64034308 29.98720368 16.67093027 24.71990299 16.71135712 C20.67328412 16.73719338 16.62688828 16.74011523 12.58019829 16.73646545 C10.63809328 16.73816054 8.69597839 16.74784032 6.75395393 16.76560974 C4.03870938 16.78771922 1.32534495 16.77813913 -1.38989258 16.76049805 C-2.19366333 16.77376129 -2.99743408 16.78702454 -3.82556152 16.8006897 C-7.70583729 16.74204255 -9.49713303 16.48953785 -12.40870667 13.83337402 C-14.40876915 10.16549973 -13.9765469 8.11259031 -12.87451172 4.14526367 C-9.37258853 -0.42246222 -5.35901207 -0.00314594 0 0 Z " fill="#000000" transform="translate(221.87451171875,341.854736328125)"/>
</svg>
