<?xml version="1.0" encoding="UTF-8"?>
<svg version="1.1" xmlns="http://www.w3.org/2000/svg" width="512" height="512">
<path d="M0 0 C0.99496994 -0.0066568 1.98993988 -0.0133136 3.01506042 -0.02017212 C5.11719926 -0.03028148 7.21937008 -0.03498967 9.3215332 -0.03466797 C12.52154047 -0.03903327 15.72015913 -0.07535011 18.91992188 -0.11328125 C20.96744323 -0.11915149 23.0149711 -0.1231195 25.0625 -0.125 C26.48632744 -0.14655655 26.48632744 -0.14655655 27.93891907 -0.16854858 C35.89605096 -0.11439944 41.61335489 2.23834262 47.73046875 7.3359375 C48.84421875 6.7378125 49.95796875 6.1396875 51.10546875 5.5234375 C61.14841225 0.6130243 70.24263924 -0.16970516 81.26147461 -0.11010742 C83.6602146 -0.10159003 86.05657157 -0.13044997 88.45507812 -0.16210938 C101.59151526 -0.22308133 111.91709432 1.96778233 121.73046875 11.3359375 C130.53897828 20.56306927 133.35621176 30.18638074 133.20117188 42.70068359 C132.73296403 54.52791257 128.18209925 63.17700857 119.6640625 71.30859375 C108.74934891 80.50506978 98.40507315 80.77352484 84.73046875 80.3359375 C85.06046875 85.6159375 85.39046875 90.8959375 85.73046875 96.3359375 C87.91671875 96.8515625 90.10296875 97.3671875 92.35546875 97.8984375 C111.30047915 102.78545994 126.89983448 114.19965916 137.35546875 130.7734375 C145.05000578 144.56021666 149.25615842 160.56524736 148.73046875 176.3359375 C149.3853125 176.36171875 150.04015625 176.3875 150.71484375 176.4140625 C168.36600808 177.51102751 183.4773746 185.90064121 195.73046875 198.3359375 C196.27960938 198.87476563 196.82875 199.41359375 197.39453125 199.96875 C205.75082118 208.86127244 212.89603647 222.00631426 213.2265625 234.2578125 C212.48842827 237.34983935 211.28159368 238.4626477 208.73046875 240.3359375 C205.27734375 240.9453125 205.27734375 240.9453125 201.48046875 241.0859375 C200.2171875 241.14265625 198.95390625 241.199375 197.65234375 241.2578125 C196.20601563 241.29648437 196.20601563 241.29648437 194.73046875 241.3359375 C195.87322266 242.31820312 195.87322266 242.31820312 197.0390625 243.3203125 C213.84236874 258.04370397 225.42872117 276.99616297 228.73046875 299.3359375 C230.50286622 328.43259224 224.57915578 351.04118906 205.54296875 373.3984375 C191.86977332 388.10748107 171.19105751 399.23141548 150.93237305 400.51293945 C121.19078526 401.14627606 98.30649097 395.15373295 76.35546875 374.3359375 C68.00527069 365.53154457 62.90600725 355.17096096 57.73046875 344.3359375 C56.61671875 345.480625 56.61671875 345.480625 55.48046875 346.6484375 C49.27969082 352.70828866 49.27969082 352.70828866 43.57798767 352.72361755 C42.01593094 352.7384745 42.01593094 352.7384745 40.4223175 352.75363159 C39.28513779 352.74912994 38.14795807 352.7446283 36.97631836 352.73999023 C35.17315155 352.75028511 35.17315155 352.75028511 33.33355713 352.76078796 C30.03751523 352.77595865 26.74203872 352.77754712 23.44600368 352.77184558 C20.68810606 352.76875198 17.93025942 352.77484893 15.17236906 352.78088433 C8.65726863 352.79493613 2.14229925 352.79336633 -4.37280273 352.78198242 C-11.07225007 352.77053426 -17.77129553 352.78451922 -24.47068983 352.8113789 C-30.23652831 352.83362203 -36.00224147 352.84015301 -41.76811975 352.83430248 C-45.205268 352.83094806 -48.6421595 352.83324438 -52.07927132 352.85055351 C-55.92301929 352.86551083 -59.76589746 352.8547479 -63.60961914 352.83764648 C-64.73262924 352.84731445 -65.85563934 352.85698242 -67.01268005 352.86694336 C-78.16808067 352.76355752 -86.80709754 349.61023582 -95.26953125 342.3359375 C-95.76582031 343.37492187 -96.26210937 344.41390625 -96.7734375 345.484375 C-100.69093067 353.57489226 -104.66764056 361.25265794 -110.26953125 368.3359375 C-110.84960938 369.07972656 -111.4296875 369.82351563 -112.02734375 370.58984375 C-125.45044139 386.73687543 -145.61416918 397.26788495 -166.26953125 400.3359375 C-195.41842192 402.17983818 -217.93910065 396.21500628 -240.33203125 377.1484375 C-254.56992015 363.91321683 -266.18993255 343.27000154 -267.4465332 323.55957031 C-267.84157624 304.08756873 -266.64105968 288.14259019 -258.26953125 270.3359375 C-259.10484375 269.91634766 -259.10484375 269.91634766 -259.95703125 269.48828125 C-270.71895383 263.83463611 -278.23930585 256.80396466 -282.41015625 245.1484375 C-286.53793185 226.83612393 -282.30140773 207.83072212 -272.47167969 192.10400391 C-265.01321843 181.13443111 -254.33256009 171.87013889 -242.26953125 166.3359375 C-241.60953125 166.3359375 -240.94953125 166.3359375 -240.26953125 166.3359375 C-240.81222656 165.57410156 -241.35492188 164.81226563 -241.9140625 164.02734375 C-248.85644947 154.00779067 -253.41534468 144.95737558 -251.26953125 132.3359375 C-249.62154117 129.8960545 -248.29146062 128.54949379 -245.35351753 127.93554115 C-242.86000151 127.73418937 -240.39246458 127.66942034 -237.89086914 127.64379883 C-236.46223038 127.60678108 -236.46223038 127.60678108 -235.00473022 127.5690155 C-231.83384003 127.49501762 -228.66373374 127.45328299 -225.4921875 127.41796875 C-223.84431149 127.39538781 -223.84431149 127.39538781 -222.16314507 127.37235069 C-216.30172798 127.29454846 -210.44069345 127.24260524 -204.57885742 127.21020508 C-199.81910495 127.17975532 -195.0637412 127.10469903 -190.30541992 126.98461914 C-162.60673725 126.29981121 -138.3057145 127.47777434 -112.36891174 137.95588684 C-97.60165017 143.8787706 -84.20151438 144.86766184 -68.39325619 144.32522774 C-57.35328154 143.95033266 -48.89802137 146.14907462 -40.3359375 153.36328125 C-31.36453528 161.92766333 -27.22048295 170.78772483 -26.78996277 183.18716431 C-26.71938495 187.18315667 -26.71497915 191.17569409 -26.74804688 195.17211914 C-26.7696505 198.2906521 -26.74809116 201.40692418 -26.72265625 204.52539062 C-26.72529671 206.5130259 -26.73041583 208.50065978 -26.73828125 210.48828125 C-26.73018433 211.41744858 -26.7220874 212.34661591 -26.71374512 213.30393982 C-26.73265808 214.60163048 -26.73265808 214.60163048 -26.75195312 215.92553711 C-26.7551355 216.68289658 -26.75831787 217.44025604 -26.76159668 218.2205658 C-27.5012198 221.30084014 -28.73769356 222.46790614 -31.26953125 224.3359375 C-34.28515625 224.7265625 -34.28515625 224.7265625 -37.51953125 224.5859375 C-38.5971875 224.54984375 -39.67484375 224.51375 -40.78515625 224.4765625 C-41.605 224.43015625 -42.42484375 224.38375 -43.26953125 224.3359375 C-43.18510237 233.63736098 -43.09020912 242.93860198 -42.98200417 252.23977947 C-42.93208647 256.55882755 -42.88575606 260.87785171 -42.84765625 265.19702148 C-42.81074621 269.36628848 -42.76437079 273.53535313 -42.71146774 277.70444679 C-42.69295416 279.29398863 -42.677835 280.88357379 -42.66618729 282.47318077 C-42.64927266 284.70197587 -42.62022575 286.93031064 -42.58837891 289.15893555 C-42.5683934 291.06088936 -42.5683934 291.06088936 -42.54800415 293.00126648 C-42.2779457 296.23517573 -41.75699606 298.46746214 -40.26953125 301.3359375 C-35.85109982 304.16902348 -30.45532888 303.68584815 -25.375 303.75 C-24.42764481 303.76936615 -23.48028961 303.7887323 -22.50422668 303.8086853 C-19.48858548 303.86830121 -16.47290573 303.91479455 -13.45703125 303.9609375 C-11.40818679 303.99913383 -9.35935811 304.03818652 -7.31054688 304.078125 C-2.29700363 304.17398803 2.71661478 304.25808557 7.73046875 304.3359375 C8.13990723 303.25662964 8.13990723 303.25662964 8.55761719 302.15551758 C9.71107646 299.3825573 11.02785562 296.8411438 12.49609375 294.22265625 C13.04910156 293.23458984 13.60210937 292.24652344 14.171875 291.22851562 C14.76871094 290.17083984 15.36554688 289.11316406 15.98046875 288.0234375 C16.60308594 286.91548828 17.22570312 285.80753906 17.8671875 284.66601562 C22.65160741 276.18016824 27.5455281 267.76092933 32.47753906 259.36010742 C37.24704327 251.21674362 41.86100366 242.9925806 46.44970703 234.74633789 C52.71529559 223.51524824 59.20825465 212.41950711 65.73046875 201.3359375 C61.8293196 195.31024361 57.69184116 189.58153902 53.23046875 183.9609375 C47.61531702 176.81376631 42.091448 169.60834552 36.80224609 162.21533203 C34.1619921 158.53700379 31.53245652 155.03433277 28.40625 151.75390625 C19.47043632 142.00523974 19.43286791 132.40742032 19.953125 119.49609375 C20.54419785 112.82101208 22.31614178 108.08506371 26.73046875 103.05859375 C27.39046875 102.51074219 28.05046875 101.96289062 28.73046875 101.3984375 C29.39046875 100.83253906 30.05046875 100.26664062 30.73046875 99.68359375 C32.73046875 98.3359375 32.73046875 98.3359375 36.73046875 97.3359375 C36.73046875 91.3959375 36.73046875 85.4559375 36.73046875 79.3359375 C35.08046875 78.6759375 33.43046875 78.0159375 31.73046875 77.3359375 C27.40515206 74.33356566 22.96159626 70.71185947 21.109375 65.6328125 C20.55759784 62.28801901 20.62645764 58.96430305 20.66796875 55.5859375 C20.67248047 54.88855469 20.67699219 54.19117188 20.68164062 53.47265625 C20.69336855 51.76037947 20.71130222 50.04814717 20.73046875 48.3359375 C19.3846875 48.3673584 19.3846875 48.3673584 18.01171875 48.39941406 C14.64947016 48.46801366 11.2879764 48.51794044 7.92529297 48.55566406 C6.47627958 48.57565045 5.0273455 48.60284947 3.57861328 48.63769531 C-5.82929652 48.85814254 -13.04471915 48.91447493 -20.51171875 42.37109375 C-21.05054688 41.72011719 -21.589375 41.06914062 -22.14453125 40.3984375 C-22.69882812 39.75003906 -23.253125 39.10164063 -23.82421875 38.43359375 C-28.30365222 31.93236193 -27.94416853 24.96452833 -27.26953125 17.3359375 C-25.58867542 10.67634417 -20.80574803 6.15046303 -15.26953125 2.3359375 C-10.38063233 -0.29211567 -5.40779845 0.01259915 0 0 Z M-9.26953125 19.3359375 C-10.68994946 22.17677391 -10.58405397 24.19071028 -10.26953125 27.3359375 C-8.03746694 30.18374369 -6.71960126 31.18591416 -3.26953125 32.3359375 C1.25084809 32.56478235 5.7736291 32.56424319 10.29907227 32.57617188 C12.52463437 32.58585771 14.74926467 32.61688282 16.97460938 32.6484375 C18.39973413 32.65497022 19.82486546 32.66021964 21.25 32.6640625 C23.18516479 32.67808105 23.18516479 32.67808105 25.15942383 32.69238281 C29.02582895 32.306456 31.44077824 31.36998078 34.73046875 29.3359375 C36.15088696 26.49510109 36.04499147 24.48116472 35.73046875 21.3359375 C33.49840444 18.48813131 32.18053876 17.48596084 28.73046875 16.3359375 C24.21008941 16.10709265 19.6873084 16.10763181 15.16186523 16.09570312 C12.93630313 16.08601729 10.71167283 16.05499218 8.48632812 16.0234375 C7.06120337 16.01690478 5.63607204 16.01165536 4.2109375 16.0078125 C2.27577271 15.99379395 2.27577271 15.99379395 0.30151367 15.97949219 C-3.56489145 16.365419 -5.97984074 17.30189422 -9.26953125 19.3359375 Z M54.73046875 23.3359375 C52.43980916 25.62659709 52.3725206 26.48362639 51.85546875 29.5859375 C50.32395937 36.93718251 46.43206407 40.84744757 40.73046875 45.3359375 C38.41355965 47.16104985 37.79833502 47.93546534 37.296875 50.89453125 C37.15182685 56.77630947 37.15182685 56.77630947 39.54296875 61.9609375 C42.65813413 63.91904145 45.14015365 64.46082808 48.74291992 64.44946289 C49.96054016 64.44928162 49.96054016 64.44928162 51.20275879 64.44909668 C52.47524475 64.44142273 52.47524475 64.44142273 53.7734375 64.43359375 C54.55674438 64.43258667 55.34005127 64.43157959 56.14709473 64.43054199 C59.07073431 64.42531338 61.99435301 64.41135211 64.91796875 64.3984375 C74.72515625 64.3675 74.72515625 64.3675 84.73046875 64.3359375 C84.73046875 48.4959375 84.73046875 32.6559375 84.73046875 16.3359375 C73.55878436 16.3359375 64.34949535 17.35757834 54.73046875 23.3359375 Z M100.73046875 18.3359375 C100.73046875 32.8559375 100.73046875 47.3759375 100.73046875 62.3359375 C106.42189507 59.55962275 106.42189507 59.55962275 110.48046875 55.4609375 C111.0528125 54.80351562 111.62515625 54.14609375 112.21484375 53.46875 C116.44338895 47.51827145 116.44791496 41.40002327 115.73046875 34.3359375 C113.94787075 27.65683613 109.25258278 23.2479074 103.73046875 19.3359375 C102.74046875 19.0059375 101.75046875 18.6759375 100.73046875 18.3359375 Z M52.73046875 80.3359375 C52.73046875 85.6159375 52.73046875 90.8959375 52.73046875 96.3359375 C58.01046875 96.3359375 63.29046875 96.3359375 68.73046875 96.3359375 C68.73046875 91.0559375 68.73046875 85.7759375 68.73046875 80.3359375 C63.45046875 80.3359375 58.17046875 80.3359375 52.73046875 80.3359375 Z M38.73046875 115.3359375 C35.57169613 120.76331459 35.81120527 127.28573699 36.73046875 133.3359375 C38.56028364 137.21157741 41.06153498 140.23267403 43.85546875 143.4609375 C45.33896365 145.28505756 46.82070183 147.11060755 48.30078125 148.9375 C49.42274902 150.29343262 49.42274902 150.29343262 50.56738281 151.67675781 C53.77523985 155.62032202 56.75207752 159.71804822 59.73046875 163.8359375 C65.59755146 171.86318502 71.60629799 179.77750608 77.66601562 187.66015625 C78.31248047 188.50320313 78.95894531 189.34625 79.625 190.21484375 C80.20096924 190.9632251 80.77693848 191.71160645 81.37036133 192.48266602 C84.94000052 197.3466278 84.2017567 203.11884285 83.3562603 208.89035034 C82.82329776 211.57255745 82.227479 214.23208443 81.60327148 216.89453125 C81.26436386 218.39882942 81.26436386 218.39882942 80.91860962 219.93351746 C80.17681544 223.21578271 79.42029021 226.49447079 78.6640625 229.7734375 C78.14486961 232.06338306 77.62682567 234.35358939 77.10987854 236.64404297 C75.75228988 242.64905514 74.38311842 248.6513569 73.01025391 254.65289307 C70.80717625 264.28624925 68.61546229 273.92214634 66.43577766 283.56082153 C65.67125179 286.92926208 64.89789298 290.29559246 64.12388611 293.66186523 C63.65832723 295.71199647 63.19310369 297.76220389 62.72827148 299.8125 C62.40027809 301.2228376 62.40027809 301.2228376 62.06565857 302.66166687 C61.87350769 303.51662247 61.68135681 304.37157806 61.48338318 305.25244141 C61.31285148 305.99716705 61.14231977 306.7418927 60.96662045 307.50918579 C60.54539768 309.43095785 60.54539768 309.43095785 61.73046875 311.3359375 C67.90521678 304.72260924 73.87341881 298.03561874 79.55078125 290.984375 C81.70804274 288.36318631 83.94357875 285.84439469 86.23046875 283.3359375 C89.34505543 279.91854378 92.32233495 276.430714 95.23046875 272.8359375 C98.84079317 268.37317537 102.61474804 264.10874217 106.48046875 259.8671875 C108.80908928 257.2474894 111.02609822 254.5607844 113.23046875 251.8359375 C116.84911554 247.36472995 120.6084049 243.06248558 124.4921875 238.8203125 C125.23082031 238.00046875 125.96945312 237.180625 126.73046875 236.3359375 C127.22892807 235.85239304 127.72738739 235.36884857 128.24095154 234.87065125 C132.00550322 230.99119932 133.4135645 228.3191525 133.4102478 222.90162659 C133.37928009 222.12842575 133.34831238 221.35522491 133.31640625 220.55859375 C133.30367172 219.34157021 133.30367172 219.34157021 133.29067993 218.09996033 C133.25733244 215.53138291 133.18209954 212.96605098 133.10546875 210.3984375 C133.07534454 208.6478321 133.04797304 206.89717703 133.0234375 205.14648438 C132.95760386 200.87506879 132.85422178 196.60605157 132.73046875 192.3359375 C131.70058838 192.28260254 130.67070801 192.22926758 129.60961914 192.17431641 C128.24493402 192.09573119 126.88027036 192.01677269 125.515625 191.9375 C124.83842407 191.90342041 124.16122314 191.86934082 123.46350098 191.83422852 C115.95389756 191.38187029 111.39273065 189.41658359 106.35546875 183.8984375 C100.77693642 177.18238322 100.98135938 169.70889416 101.73046875 161.3359375 C103.38674423 155.03812355 107.45576448 150.95185468 112.73046875 147.3359375 C116.30258 145.50631954 119.7672292 144.88894767 123.73046875 144.3359375 C120.58075032 134.25683852 111.43559572 125.21419726 102.48046875 120.0859375 C89.45030051 113.45338307 77.18126248 112.13474474 62.78466797 112.09570312 C60.60346296 112.08592851 58.42317517 112.05479747 56.2421875 112.0234375 C54.83984926 112.01691174 53.43750439 112.01165959 52.03515625 112.0078125 C50.14772705 111.99379395 50.14772705 111.99379395 48.22216797 111.97949219 C44.32444693 112.37738568 41.98050278 113.15338949 38.73046875 115.3359375 Z M-233.26953125 144.3359375 C-230.09719357 150.92248542 -226.18089954 155.28712554 -219.64453125 158.7109375 C-214.75251577 159.99831 -210.37639184 160.40344943 -205.31389236 160.05795097 C-171.84276554 157.78648553 -145.11836891 168.07454906 -114.76647949 181.10461426 C-108.6633005 183.70604005 -102.52571237 186.22303489 -96.390625 188.74804688 C-86.52970956 192.81727603 -76.69025904 196.9334197 -66.87878418 201.12052917 C-64.34538412 202.19968601 -61.80882249 203.27072116 -59.26953125 204.3359375 C-57.9147788 204.90620698 -57.9147788 204.90620698 -56.53265762 205.48799706 C-55.64710064 205.85311205 -54.76154366 206.21822704 -53.84915161 206.59440613 C-52.66015101 207.08757214 -52.66015101 207.08757214 -51.4471302 207.5907011 C-48.65490754 208.54627924 -46.1925764 208.64362646 -43.26953125 208.3359375 C-43.21080197 204.5235037 -43.17569209 200.71118844 -43.14453125 196.8984375 C-43.11939453 195.29452148 -43.11939453 195.29452148 -43.09375 193.65820312 C-43.03857297 184.63675917 -43.33948521 176.54815566 -49.26953125 169.3359375 C-54.78271913 163.86212953 -59.52299089 161.38060855 -67.26953125 160.3359375 C-69.63634931 160.35895801 -72.00294879 160.43403458 -74.3671875 160.546875 C-87.94190405 160.9454121 -101.03856759 161.18957382 -113.76953125 155.93359375 C-114.97630524 155.43745323 -114.97630524 155.43745323 -116.2074585 154.93128967 C-117.88592627 154.23577374 -119.56395738 153.53920318 -121.24157715 152.84164429 C-156.2856527 138.39077279 -196.11493438 143.03653725 -233.26953125 144.3359375 Z M118.73046875 163.3359375 C117.31005054 166.17677391 117.41594603 168.19071028 117.73046875 171.3359375 C119.96253306 174.18374369 121.28039874 175.18591416 124.73046875 176.3359375 C127.063467 176.37547984 129.39755064 176.37995482 131.73046875 176.3359375 C131.58936889 174.23144812 131.442427 172.1273498 131.29296875 170.0234375 C131.21175781 168.85167969 131.13054687 167.67992187 131.046875 166.47265625 C130.84373165 163.31002792 130.84373165 163.31002792 129.73046875 160.3359375 C125.28625272 159.94380079 122.543598 161.08272476 118.73046875 163.3359375 Z M-215.17129517 176.80844116 C-232.26640872 179.05487354 -245.46969236 185.63075836 -256.26953125 199.1484375 C-260.46901412 205.11571739 -263.10895965 211.39124307 -265.26953125 218.3359375 C-265.46933594 218.95984375 -265.66914063 219.58375 -265.875 220.2265625 C-267.28657431 227.77359347 -267.82633064 237.99232887 -263.671875 244.66015625 C-257.87207621 251.59083503 -252.21723214 255.13356164 -243.26953125 256.3359375 C-239.83181144 256.48209163 -236.39698847 256.47967781 -232.95654297 256.4777832 C-231.93131027 256.48125763 -230.90607758 256.48473206 -229.84977722 256.48831177 C-227.62851373 256.4956487 -225.407243 256.50100504 -223.18597031 256.50460243 C-219.66201663 256.51179468 -216.13820004 256.52748289 -212.61428833 256.54594421 C-202.59639384 256.59827748 -192.57857508 256.6463542 -182.56054688 256.66186523 C-176.42617051 256.67198424 -170.29214077 256.70140799 -164.15790176 256.74318504 C-161.82891596 256.75544363 -159.49988109 256.76062577 -157.17086411 256.75838661 C-133.86676921 256.74149724 -133.86676921 256.74149724 -124.26953125 261.3359375 C-123.15835938 261.83996094 -122.0471875 262.34398437 -120.90234375 262.86328125 C-106.63865311 270.88383003 -98.26580251 282.10097657 -93.19140625 297.63671875 C-92.1778789 301.70371196 -91.7622158 305.61162078 -91.39453125 309.7734375 C-90.33179696 319.70435937 -88.15060912 325.47863757 -80.21875 331.9296875 C-73.32396733 336.9038794 -65.09744784 336.47996869 -56.94970703 336.44946289 C-55.92470596 336.44960892 -54.8997049 336.44975494 -53.84364319 336.4499054 C-50.46735492 336.44921066 -47.09112234 336.44143879 -43.71484375 336.43359375 C-41.36929352 336.43172801 -39.0237429 336.43030484 -36.67819214 336.42930603 C-30.51329467 336.42549312 -24.34842086 336.4156733 -18.18353271 336.40460205 C-11.88928548 336.39436157 -5.59503442 336.38980276 0.69921875 336.38476562 C13.04297913 336.37404993 25.38672197 336.35698823 37.73046875 336.3359375 C38.23853322 334.60912313 38.73657342 332.87935771 39.23046875 331.1484375 C39.50890625 330.18550781 39.78734375 329.22257813 40.07421875 328.23046875 C40.69724483 325.48247874 40.85349687 323.13995334 40.73046875 320.3359375 C39.19737061 320.33046906 39.19737061 320.33046906 37.63330078 320.32489014 C27.98181332 320.28788252 18.33064322 320.23004688 8.67939758 320.15203476 C3.71805536 320.11259522 -1.24311031 320.08038944 -6.20458984 320.06494141 C-10.9964295 320.04975164 -15.78778366 320.01526488 -20.57940674 319.96762848 C-22.40370453 319.9528386 -24.22807165 319.94489786 -26.0524292 319.94405365 C-28.616203 319.94167498 -31.17864482 319.91452448 -33.7421875 319.88183594 C-34.86321114 319.88938148 -34.86321114 319.88938148 -36.00688171 319.89707947 C-42.33016331 319.77306187 -47.48578009 317.73813203 -52.29296875 313.58984375 C-52.73898438 313.03167969 -53.185 312.47351563 -53.64453125 311.8984375 C-54.10601562 311.34285156 -54.5675 310.78726563 -55.04296875 310.21484375 C-58.17650671 305.41474261 -58.57197239 300.94872457 -58.58837891 295.33276367 C-58.60344734 294.14660965 -58.60344734 294.14660965 -58.61882019 292.93649292 C-58.64960442 290.33397113 -58.66667399 287.73155199 -58.68359375 285.12890625 C-58.70230924 283.32000346 -58.72188294 281.51110936 -58.74227905 279.70222473 C-58.79356605 274.94956594 -58.83321016 270.19687885 -58.87042236 265.4440918 C-58.91048351 260.59091207 -58.96156623 255.7378497 -59.01171875 250.88476562 C-59.10843741 241.36857206 -59.19285521 231.85231218 -59.26953125 222.3359375 C-66.26271284 219.12605597 -73.28362771 216.00219055 -80.37036133 213.00463867 C-81.31554626 212.60401215 -82.2607312 212.20338562 -83.23455811 211.7906189 C-91.96452027 208.10127991 -100.72346076 204.48291253 -109.49271107 200.88807201 C-115.34455708 198.48727843 -121.18401957 196.06321052 -127.00073242 193.57836914 C-157.47666254 180.58311411 -182.04401856 172.79672752 -215.17129517 176.80844116 Z M148.73046875 193.3359375 C148.73046875 203.5659375 148.73046875 213.7959375 148.73046875 224.3359375 C163.25046875 224.3359375 177.77046875 224.3359375 192.73046875 224.3359375 C183.3524061 208.70583309 173.42517674 199.44873227 155.79296875 194.0234375 C152.60311123 193.18991194 152.60311123 193.18991194 148.73046875 193.3359375 Z M134.73046875 252.3359375 C133.0787412 254.10157729 131.4340883 255.87298348 129.79296875 257.6484375 C129.32439453 258.14794922 128.85582031 258.64746094 128.37304688 259.16210938 C126.17349772 261.55154766 124.77020062 263.21674188 123.73046875 266.3359375 C123.9055707 268.4685547 123.9055707 268.4685547 124.39550781 270.80395508 C124.56608704 271.70531693 124.73666626 272.60667877 124.91241455 273.53535461 C125.10502869 274.50724228 125.29764282 275.47912994 125.49609375 276.48046875 C125.69015808 277.48301193 125.88422241 278.48555511 126.08416748 279.51847839 C126.49745587 281.64172532 126.91465746 283.7642137 127.33544922 285.88598633 C127.97542301 289.12291658 128.59789163 292.36287163 129.21875 295.60351562 C129.62263982 297.66687406 130.02755472 299.73003217 130.43359375 301.79296875 C130.61811096 302.75878372 130.80262817 303.72459869 130.99273682 304.71968079 C131.98677635 309.66209018 133.04811568 313.98396552 135.73046875 318.3359375 C138.57130516 319.75635571 140.58524153 319.65046022 143.73046875 319.3359375 C146.25053719 317.89932439 146.25053719 317.89932439 147.73046875 315.3359375 C148.31086005 308.63110156 146.71301627 302.20425153 145.39453125 295.65625 C145.1551181 294.44774384 144.91570496 293.23923767 144.66903687 291.99411011 C144.16294318 289.45015187 143.65340062 286.90687762 143.140625 284.36425781 C142.61521168 281.75222167 142.09398582 279.13985487 141.58105469 276.52539062 C140.84034217 272.75466253 140.08799345 268.98644695 139.33203125 265.21875 C139.10174225 264.04281281 138.87145325 262.86687561 138.63418579 261.65530396 C138.41410858 260.57683197 138.19403137 259.49835999 137.96728516 258.38720703 C137.77631256 257.43347198 137.58533997 256.47973694 137.38858032 255.49710083 C137.1714035 254.78391693 136.95422668 254.07073303 136.73046875 253.3359375 C136.07046875 253.0059375 135.41046875 252.6759375 134.73046875 252.3359375 Z M54.73046875 255.3359375 C55.73046875 257.3359375 55.73046875 257.3359375 55.73046875 257.3359375 Z M53.73046875 257.3359375 C53.29814941 258.09511475 52.86583008 258.85429199 52.42041016 259.63647461 C50.76826515 262.536395 49.11526194 265.43582177 47.46142578 268.33477783 C46.72622173 269.62353535 45.99119466 270.91239384 45.25634766 272.20135498 C40.41216272 280.69561069 35.53901212 289.16891573 30.47509766 297.53491211 C28.40810723 300.71181517 28.40810723 300.71181517 27.73046875 304.3359375 C33.34046875 304.3359375 38.95046875 304.3359375 44.73046875 304.3359375 C47.42862712 294.68483256 49.78104038 284.98827766 51.98046875 275.2109375 C52.25068848 274.0252417 52.5209082 272.8395459 52.79931641 271.61791992 C53.17515869 269.92759644 53.17515869 269.92759644 53.55859375 268.203125 C53.78450195 267.19362793 54.01041016 266.18413086 54.24316406 265.14404297 C54.7065111 262.47399406 54.82326127 260.03867423 54.73046875 257.3359375 C54.40046875 257.3359375 54.07046875 257.3359375 53.73046875 257.3359375 Z M-242.42993164 276.64404297 C-243.54097049 278.96976481 -243.54097049 278.96976481 -244.26953125 281.3359375 C-244.55473129 282.01246368 -244.83993134 282.68898987 -245.1337738 283.38601685 C-245.88493706 285.24811203 -246.48720544 287.16817135 -247.08203125 289.0859375 C-247.48035156 290.33890625 -247.87867188 291.591875 -248.2890625 292.8828125 C-252.73582954 308.54393627 -251.51686984 325.40790468 -245.26953125 340.3359375 C-244.88539063 341.27566406 -244.50125 342.21539062 -244.10546875 343.18359375 C-241.15649456 349.67334307 -236.9525177 355.00278032 -232.26953125 360.3359375 C-231.67527344 361.02558594 -231.08101562 361.71523438 -230.46875 362.42578125 C-217.71433081 376.21803326 -199.85727717 383.25086251 -181.30322266 384.29736328 C-162.47422336 384.65450396 -144.0752003 377.52882394 -130.45068359 364.59326172 C-122.52762641 356.78691512 -116.57514007 348.64330408 -112.26953125 338.3359375 C-112.26953125 337.6759375 -112.26953125 337.0159375 -112.26953125 336.3359375 C-120.3011951 335.35078196 -120.3011951 335.35078196 -128.26953125 336.3359375 C-130.89044977 338.75836993 -132.07597788 341.07435675 -133.671875 344.25390625 C-139.88586455 356.24128463 -152.42822181 362.1530661 -164.58984375 366.53125 C-176.68004235 369.17517878 -191.08398446 368.78616645 -202.26953125 363.3359375 C-203.72939453 362.63017578 -203.72939453 362.63017578 -205.21875 361.91015625 C-219.93926942 354.30422699 -227.94458538 342.58236318 -233.3828125 327.18359375 C-234.52224732 322.23935017 -234.5992649 317.57978966 -234.58203125 312.5234375 C-234.59814453 311.58951172 -234.61425781 310.65558594 -234.63085938 309.69335938 C-234.63703969 300.78752853 -232.58641153 293.14743515 -228.26953125 285.3359375 C-224.99234485 285.98688548 -222.51775441 287.21198043 -219.64453125 288.8984375 C-216.64588476 290.79532689 -216.64588476 290.79532689 -213.26953125 291.3359375 C-213.54667969 291.93921875 -213.82382813 292.5425 -214.109375 293.1640625 C-214.47160156 293.96328125 -214.83382812 294.7625 -215.20703125 295.5859375 C-215.56667969 296.37484375 -215.92632812 297.16375 -216.296875 297.9765625 C-219.77719326 306.41878028 -219.56623754 317.64694331 -216.70703125 326.2734375 C-212.13044731 336.94679935 -203.8803931 345.19685356 -193.20703125 349.7734375 C-183.43720605 352.93869644 -172.20866413 352.68796818 -162.7421875 348.67578125 C-156.87963045 345.49907182 -152.20040892 341.70480572 -148.26953125 336.3359375 C-149.37876953 336.3265918 -150.48800781 336.31724609 -151.63085938 336.30761719 C-155.77611331 336.26751648 -159.92064065 336.20170352 -164.06542969 336.12841797 C-165.85374565 336.10032416 -167.64218311 336.07905236 -169.43066406 336.06494141 C-172.01299727 336.04334999 -174.59388744 335.99662041 -177.17578125 335.9453125 C-177.96569458 335.94408386 -178.75560791 335.94285522 -179.56945801 335.94158936 C-186.09049626 335.77243837 -191.31976527 333.88139193 -196.29296875 329.58984375 C-196.73898438 329.03167969 -197.185 328.47351563 -197.64453125 327.8984375 C-198.10601562 327.34285156 -198.5675 326.78726563 -199.04296875 326.21484375 C-203.27399231 319.73356244 -202.93985773 312.82832081 -202.26953125 305.3359375 C-200.63741692 299.12999379 -196.57557219 294.79975633 -191.26953125 291.3359375 C-187.17973954 289.35376623 -183.79992605 289.06599582 -179.27612305 289.01708984 C-178.59264297 289.00704422 -177.9091629 288.9969986 -177.20497131 288.98664856 C-174.95957228 288.95590845 -172.71429199 288.93880736 -170.46875 288.921875 C-168.90646856 288.90315593 -167.34419714 288.88358196 -165.78193665 288.8631897 C-161.68030724 288.81194041 -157.57864509 288.77227629 -153.47686768 288.73504639 C-149.28723089 288.69496145 -145.09772951 288.64388963 -140.90820312 288.59375 C-132.69540512 288.49707606 -124.4825399 288.41264415 -116.26953125 288.3359375 C-117.21366867 287.20670003 -118.16178916 286.08079195 -119.11157227 284.95629883 C-119.90290306 284.01528069 -119.90290306 284.01528069 -120.71022034 283.05525208 C-127.99718857 275.0205551 -139.05820319 272.77378901 -149.43095779 272.22068405 C-151.76611381 272.15156261 -154.10005313 272.10989626 -156.43603516 272.07958984 C-157.31514053 272.06498718 -158.19424591 272.05038452 -159.09999084 272.03533936 C-167.13626592 271.91018982 -175.17344589 271.84076431 -183.21048927 271.78749657 C-188.60003839 271.7516207 -193.98810914 271.69796263 -199.37695312 271.60205078 C-204.60588497 271.50929949 -209.83350563 271.46059353 -215.06321335 271.44310379 C-217.05126318 271.42901413 -219.03926689 271.39938443 -221.02684402 271.35380173 C-233.14279161 270.38960276 -233.14279161 270.38960276 -242.42993164 276.64404297 Z M151.73046875 242.3359375 C151.84664519 243.71171111 151.97392652 245.08654795 152.10546875 246.4609375 C152.20988281 247.60949219 152.20988281 247.60949219 152.31640625 248.78125 C152.82045662 251.89114568 153.4127292 254.45979339 154.73046875 257.3359375 C157.20776956 258.88719431 157.20776956 258.88719431 160.23046875 259.7734375 C166.5047371 262.10839931 171.45955404 265.25257723 176.73046875 269.3359375 C177.96796875 270.24472656 177.96796875 270.24472656 179.23046875 271.171875 C186.99834386 277.89594189 191.99216263 287.57257223 194.73046875 297.3359375 C194.90408936 297.9455835 195.07770996 298.55522949 195.2565918 299.18334961 C197.77186946 310.60900811 196.83285945 324.86426181 191.73046875 335.3359375 C191.25996094 336.30917969 190.78945313 337.28242188 190.3046875 338.28515625 C182.71008083 352.98376192 170.97240666 361.06935077 155.55859375 366.44140625 C140.61597736 369.93309926 124.45979093 368.06092409 111.20703125 360.3515625 C96.20890551 350.99547785 89.85166704 337.64790243 84.73046875 321.3359375 C93.14546875 319.8509375 93.14546875 319.8509375 101.73046875 318.3359375 C101.93671875 319.6146875 102.14296875 320.8934375 102.35546875 322.2109375 C104.30857747 330.89749098 109.60702501 338.97701652 116.73046875 344.3359375 C128.06958905 350.92186545 138.9426842 353.33197219 151.91015625 350.6875 C163.07692123 346.98633427 171.52188268 339.16789206 177.05078125 328.87890625 C181.11689551 319.39604538 181.33750251 308.11351863 178.10546875 298.3359375 C174.18669557 289.16463324 167.73141225 281.72613202 158.73046875 277.3359375 C159.25708513 282.85709453 160.04916607 288.16511846 161.2421875 293.57910156 C166.33908318 316.77720656 166.33908318 316.77720656 161.06640625 325.62109375 C157.45293768 330.25943499 153.36114462 333.54583824 147.73046875 335.3359375 C139.88658585 336.14188007 132.13862408 336.43265639 125.73046875 331.3359375 C119.45831733 325.40130096 117.57674929 319.36205836 116.00390625 310.97265625 C115.85136383 310.18067337 115.69882141 309.38869049 115.54165649 308.57270813 C115.05824777 306.05715442 114.58176428 303.54034667 114.10546875 301.0234375 C113.77780087 299.31176139 113.44968079 297.60017178 113.12109375 295.88867188 C112.31897893 291.70541059 111.52306996 287.52101129 110.73046875 283.3359375 C109.74046875 283.3359375 108.75046875 283.3359375 107.73046875 283.3359375 C105.79384694 285.33014275 104.04553561 287.31364838 102.29296875 289.4609375 C101.21116748 290.75540056 100.12912974 292.04966604 99.046875 293.34375 C98.49531738 294.00922852 97.94375977 294.67470703 97.37548828 295.36035156 C94.86037212 298.3808799 92.29459176 301.35702988 89.73046875 304.3359375 C88.74466112 305.48816957 87.75898492 306.6405141 86.7734375 307.79296875 C84.64246197 310.28038318 82.4970013 312.75450502 80.34375 315.22265625 C79.79138672 315.85880859 79.23902344 316.49496094 78.66992188 317.15039062 C77.60850733 318.37235527 76.54355777 319.59126094 75.47460938 320.80664062 C73.3068561 323.30879698 71.78860837 325.16151865 70.73046875 328.3359375 C74.92035113 347.33488693 86.89736976 363.17479277 103.04296875 373.7734375 C120.99563167 384.05347425 140.81102157 386.63601222 160.68359375 381.328125 C179.03440781 375.95698643 194.73662583 362.76919084 204.3125 346.26171875 C212.28765063 329.80610492 215.38380007 309.32846234 209.66796875 291.6484375 C203.1331219 273.20815127 190.87702906 257.10107431 173.02832031 248.39379883 C162.81756184 243.53983138 162.81756184 243.53983138 151.73046875 242.3359375 Z M-185.26953125 307.3359375 C-186.68994946 310.17677391 -186.58405397 312.19071028 -186.26953125 315.3359375 C-184.03746694 318.18374369 -182.71960126 319.18591416 -179.26953125 320.3359375 C-176.9543197 320.42591813 -174.63653599 320.45350644 -172.31958008 320.44946289 C-171.61688492 320.44960892 -170.91418976 320.44975494 -170.19020081 320.4499054 C-167.86895657 320.44920907 -165.54779271 320.44142976 -163.2265625 320.43359375 C-161.61659285 320.43172858 -160.00662264 320.43030514 -158.39665222 320.42930603 C-154.16010978 320.42548868 -149.92360165 320.41566505 -145.68707275 320.40460205 C-141.36365218 320.39437114 -137.04022606 320.38980481 -132.71679688 320.38476562 C-124.23435751 320.37404209 -115.7519526 320.3564516 -107.26953125 320.3359375 C-107.59953125 315.0559375 -107.92953125 309.7759375 -108.26953125 304.3359375 C-117.42314836 304.26808396 -126.57659764 304.21307664 -135.73040962 304.18050098 C-139.98117564 304.16486406 -144.23176025 304.14366205 -148.48242188 304.10961914 C-152.58674776 304.07695498 -156.69089944 304.05906964 -160.79534531 304.05130577 C-162.35900488 304.0457749 -163.92265523 304.03497438 -165.48624039 304.01874733 C-167.68130127 303.99687864 -169.87564799 303.99397442 -172.07080078 303.99536133 C-173.31878448 303.98869949 -174.56676819 303.98203766 -175.85256958 303.97517395 C-179.63015006 304.37401171 -182.04571625 305.35702068 -185.26953125 307.3359375 Z " fill="#000000" transform="translate(283.26953125,111.6640625)"/>
<path d="M0 0 C36.96 0 73.92 0 112 0 C112 5.28 112 10.56 112 16 C75.04 16 38.08 16 0 16 C0 10.72 0 5.44 0 0 Z " fill="#000000" transform="translate(48,336)"/>
<path d="M0 0 C5.28 0 10.56 0 16 0 C16 5.28 16 10.56 16 16 C10.72 16 5.44 16 0 16 C0 10.72 0 5.44 0 0 Z " fill="#000000" transform="translate(176,336)"/>
</svg>
