<?xml version="1.0" encoding="UTF-8"?>
<svg version="1.1" xmlns="http://www.w3.org/2000/svg" width="512" height="512">
<path d="M0 0 C1.40330566 0.24943359 1.40330566 0.24943359 2.83496094 0.50390625 C29.97700727 5.42722 61.86148024 13.59863076 79.5 36.5 C85.26343571 45.01524005 87.13686356 52.71655236 86 63 C83.64150927 73.95013555 78.23503398 82.88224037 70.3125 90.6875 C65.37524443 95.93385617 64.30963418 100.88127556 63.046875 107.77734375 C62.37667843 111.15015859 61.12428043 113.65155547 59.47216797 116.65625 C55.89007514 124.44864031 56.32883947 132.34123872 56.3984375 140.72265625 C56.39292141 142.43502303 56.38478256 144.14738314 56.37417603 145.85972595 C56.35141151 150.34914317 56.35545293 154.83807146 56.36798096 159.32751465 C56.38634862 166.48451405 56.37582061 173.64122192 56.34212112 180.79815483 C56.33613795 183.26501055 56.34912629 185.73120941 56.36410522 188.19801331 C56.37370051 202.23074982 55.05425692 216.519304 49.875 229.6875 C49.577146 230.46730225 49.27929199 231.24710449 48.97241211 232.05053711 C39.63334714 255.52142829 22.65750782 272.22832812 2 286 C4.09909398 294.68037101 6.32278154 301.96435004 12 309 C12.60199219 309.82113281 13.20398438 310.64226562 13.82421875 311.48828125 C24.29590022 324.63273475 40.29157259 328.37003246 56.0078125 331.54296875 C57.79033168 331.92093217 59.57237766 332.30113332 61.35397339 332.6834259 C65.99710699 333.67491926 70.64492919 334.64205658 75.29467773 335.60198975 C82.7403328 337.14227632 90.17899762 338.71549704 97.61581039 340.29784584 C100.18267021 340.83960916 102.75202024 341.36785442 105.322052 341.89433289 C124.21062111 345.82909394 141.38076665 351.88670986 156 365 C156.90621094 365.81210937 157.81242187 366.62421875 158.74609375 367.4609375 C173.92495791 381.81875353 185.31381723 402.71460304 186.15390015 423.87684631 C186.17186607 425.35542684 186.18453941 426.83407794 186.19287109 428.31274414 C186.20104858 429.12488876 186.20922607 429.93703339 186.21765137 430.77378845 C186.24233775 433.4442371 186.25897142 436.11463351 186.2734375 438.78515625 C186.27876118 439.7001483 186.28408485 440.61514034 186.28956985 441.55785942 C186.31621892 446.39411453 186.33562644 451.23034447 186.35009766 456.06665039 C186.36347227 460.06590464 186.39140105 464.06465295 186.43212891 468.0637207 C186.48138438 472.90120623 186.50620831 477.73823076 186.51332474 482.57595634 C186.52004114 484.41678346 186.53527335 486.25760011 186.55921555 488.09828377 C186.59079887 490.67162165 186.59091564 493.24316999 186.58349609 495.81665039 C186.59990143 496.57470978 186.61630676 497.33276917 186.63320923 498.11380005 C186.58970447 501.8008287 186.20152084 503.73500115 183.95053101 506.69504106 C180.30903001 509.53978672 177.61938671 509.70066541 173.1835022 509.6292057 C172.39920232 509.63647291 171.61490243 509.64374011 170.80683589 509.65122753 C168.16842826 509.66953219 165.53146437 509.65209758 162.89306641 509.63491821 C160.98664924 509.64067726 159.08023762 509.64861691 157.17383766 509.65855443 C151.92711 509.67948076 146.68083544 509.66908624 141.43410587 509.65362334 C135.77893523 509.64233744 130.12384397 509.65975882 124.46868896 509.67352295 C113.38708377 509.69578939 102.30564763 509.69093897 91.22403574 509.67645974 C82.22008276 509.66518091 73.21617725 509.66363073 64.21221924 509.66907883 C62.93212341 509.66984499 61.65202758 509.67061116 60.33314097 509.67140054 C57.73288328 509.67299912 55.13262561 509.67462019 52.53236794 509.6762635 C28.8292875 509.69012403 5.12631604 509.67573515 -18.57674679 509.64955051 C-40.22113586 509.62582192 -61.86537785 509.62794504 -83.50976562 509.65185547 C-107.81976726 509.67862073 -132.12966479 509.6891576 -156.43968391 509.67379415 C-159.03052901 509.67220136 -161.62137412 509.6706295 -164.21221924 509.66907883 C-165.48705968 509.66830745 -166.76190013 509.66753607 -168.0753721 509.66674132 C-177.071488 509.66241902 -186.06755183 509.66972229 -195.06365967 509.68147659 C-206.0226739 509.69548048 -216.98150901 509.69174606 -227.94050264 509.66507287 C-233.53504327 509.65190635 -239.12928494 509.64683069 -244.72382355 509.66331863 C-249.84113177 509.67817234 -254.95786276 509.67010569 -260.0751183 509.64343087 C-261.930356 509.63782644 -263.78564204 509.64073003 -265.64084888 509.65280981 C-268.1557678 509.66793428 -270.668689 509.65250758 -273.1835022 509.6292057 C-273.91014549 509.64091153 -274.63678877 509.65261737 -275.38545156 509.66467792 C-279.22065926 509.59325871 -280.89302825 509.08375477 -283.94926929 506.69083536 C-286.63965584 503.16068524 -286.69833068 500.24365869 -286.63110352 495.9753418 C-286.63825882 495.18101242 -286.64541412 494.38668304 -286.65278625 493.56828308 C-286.66967563 490.94467381 -286.65025102 488.32277498 -286.62890625 485.69921875 C-286.62973583 483.86139282 -286.63219859 482.02356697 -286.63621521 480.18574524 C-286.63907456 476.32794934 -286.62437479 472.47073343 -286.59692383 468.61303711 C-286.56310459 463.71227625 -286.56876942 458.81257017 -286.5875864 453.91176128 C-286.59826293 450.10996528 -286.58911875 446.30840599 -286.57420158 442.50663185 C-286.56907903 440.70286581 -286.56942805 438.89907437 -286.57574654 437.09531212 C-286.63021381 412.16995264 -279.50441408 389.01517462 -261.8125 370.81640625 C-260.884375 369.88699219 -259.95625 368.95757812 -259 368 C-257.7934375 366.77603516 -257.7934375 366.77603516 -256.5625 365.52734375 C-243.69535533 353.18927576 -227.09177927 346.48784041 -209.87109375 342.87890625 C-208.02826561 342.47804054 -208.02826561 342.47804054 -206.14820862 342.06907654 C-202.90032482 341.3645857 -199.65068855 340.66981878 -196.3996582 339.98010254 C-193.1846964 339.2958681 -189.97235984 338.59954909 -186.75976562 337.90429688 C-167.25055557 333.68806034 -167.25055557 333.68806034 -160.18304443 332.19204712 C-156.51216923 331.41478958 -152.84386398 330.62625281 -149.17578125 329.8359375 C-148.08309433 329.60810074 -146.99040741 329.38026398 -145.86460876 329.14552307 C-134.05205646 326.57816873 -121.46873577 322.1224624 -114 312 C-113.67 311.34 -113.34 310.68 -113 310 C-112.34 310 -111.68 310 -111 310 C-110.7525 309.34 -110.505 308.68 -110.25 308 C-109.25326377 305.60783306 -108.18293962 303.36216994 -107 301.0625 C-104.33756928 295.76744189 -102.3134854 291.03040662 -103 285 C-104.98879992 283.13164898 -104.98879992 283.13164898 -107.75 281.8125 C-131.13038357 268.16893427 -145.82498187 244.28416392 -153.140625 218.83984375 C-155.58027184 207.93905809 -156.27571703 197.4488578 -156.24382973 186.33124924 C-156.23814143 183.77305437 -156.24754567 181.21529713 -156.2610321 178.65713501 C-156.29778117 171.39412171 -156.31670079 164.13126828 -156.30541992 156.86816406 C-156.29953514 152.39846597 -156.31797731 147.9293971 -156.35130882 143.45982742 C-156.35919826 141.77195623 -156.35807469 140.08401527 -156.34728432 138.39616013 C-156.2934731 129.60860738 -156.46816395 122.10583778 -160.82640076 114.18937683 C-162.61046327 110.86116649 -163.07122628 107.64435868 -163.75 103.9375 C-165.20255013 97.20561052 -167.72498768 93.29167877 -172.6171875 88.48828125 C-180.75918904 79.98589603 -185.94659642 69.26462146 -186.375 57.5 C-185.9391466 45.56432224 -181.00000221 37.01977157 -172.62890625 28.62109375 C-152.80602537 11.2723015 -125.32149264 4.50082336 -100 0 C-99.13149414 -0.16371094 -98.26298828 -0.32742188 -97.36816406 -0.49609375 C-66.54566655 -6.07712211 -30.76270328 -5.79868396 0 0 Z M-160.046875 46.82421875 C-162.59338626 49.66103229 -164.76254911 52.24676675 -165.28515625 56.10546875 C-164.47653721 63.66676611 -160.91035762 69.12601976 -156.41640186 75.10792923 C-153.00025113 77.782815 -149.83166325 77.5673669 -145.66960144 77.53485107 C-144.82174381 77.5439133 -143.97388618 77.55297553 -143.1003359 77.56231236 C-140.25441421 77.58766788 -137.40925468 77.58435564 -134.56323242 77.58105469 C-132.52475497 77.59302116 -130.4862866 77.60663131 -128.4478302 77.62176514 C-122.90640315 77.65714329 -117.36522305 77.66647833 -111.82369399 77.66902828 C-107.19893061 77.67282429 -102.5742249 77.68753716 -97.94948369 77.70171666 C-87.03815153 77.73430237 -76.1269514 77.744053 -65.21557617 77.74121094 C-53.95794983 77.73880799 -42.70109032 77.78100859 -31.44365805 77.84418559 C-21.78066624 77.89648311 -12.11792507 77.91794672 -2.4547928 77.9153893 C3.31754505 77.91436911 9.08920173 77.92578536 14.8613987 77.9681015 C20.29133413 78.00682052 25.71993718 78.00714968 31.14991951 77.97803497 C33.14173579 77.9738505 35.13363492 77.98331074 37.12530899 78.00747681 C47.32364541 78.50141236 47.32364541 78.50141236 56.68698692 75.3166275 C58.54717027 73.27180321 59.77796568 71.4701286 61 69 C61.65002597 67.79495378 61.65002597 67.79495378 62.31318378 66.5655632 C64.44553648 62.4109906 65.83654696 58.70557664 65 54 C58.21103107 40.42206215 41.42214658 33.05783749 27.8125 28.25 C-25.9897135 11.77413737 -115.06337468 4.97732304 -160.046875 46.82421875 Z M-144 98 C-138.80158633 113.595241 -131.7464408 124.6087907 -117 132.375 C-108.7824495 136.46094872 -100.6665617 137.29898197 -91.60595703 137.2746582 C-90.60794067 137.27976913 -89.60992432 137.28488007 -88.58166504 137.29014587 C-85.30698525 137.30396096 -82.03251784 137.30309118 -78.7578125 137.30078125 C-76.46532108 137.30467262 -74.17283037 137.30900819 -71.88034058 137.31376648 C-67.08410298 137.32121133 -62.28793901 137.32094999 -57.49169922 137.31567383 C-51.36664335 137.30988167 -45.24189011 137.32681281 -39.11688423 137.3500185 C-34.38461567 137.36479985 -29.65241925 137.36562154 -24.92013168 137.36250877 C-22.66285477 137.36301977 -20.40557359 137.36821564 -18.14831924 137.37832069 C-14.98296071 137.39075319 -11.81818232 137.38385254 -8.65283203 137.37231445 C-7.73404266 137.37995819 -6.8152533 137.38760193 -5.86862183 137.39547729 C8.88685705 137.277487 20.94828597 131.71059536 31.51953125 121.6015625 C38.46706396 114.3148589 40.67635865 107.97092405 44 98 C-18.04 98 -80.08 98 -144 98 Z M-135 146 C-135.07678551 153.55811976 -135.12890497 161.11613699 -135.16479492 168.67456055 C-135.17977503 171.23970295 -135.20016617 173.80482022 -135.22631836 176.36987305 C-135.53340403 207.28918474 -130.50979871 231.56040136 -108.5625 254.75 C-94.54195621 268.16511122 -74.42620193 277.1341034 -55 278 C-54.33484375 278.03996094 -53.6696875 278.07992187 -52.984375 278.12109375 C-29.92914852 278.84690644 -9.06421405 270.09289691 8 255 C8.61101562 254.47148437 9.22203125 253.94296875 9.8515625 253.3984375 C24.34162612 239.96700866 33.38318926 219.4837207 35 200 C35.12966231 195.80141853 35.11667437 191.60649027 35.09765625 187.40625 C35.0962413 186.21898315 35.09482635 185.03171631 35.09336853 183.80847168 C35.08779811 180.03895484 35.07525105 176.26949871 35.0625 172.5 C35.05748118 169.93489669 35.05291894 167.36979245 35.04882812 164.8046875 C35.03783836 158.53643783 35.02112981 152.26822325 35 146 C33.40285156 146.81404297 33.40285156 146.81404297 31.7734375 147.64453125 C30.30769559 148.36800642 28.84152587 149.09061528 27.375 149.8125 C26.68148437 150.16892578 25.98796875 150.52535156 25.2734375 150.89257812 C10.67482423 157.99636762 -4.58456308 157.46059486 -20.4296875 157.43359375 C-22.79273629 157.43816479 -25.15578376 157.44347308 -27.51882935 157.44947815 C-32.45254951 157.45837195 -37.38610749 157.45602887 -42.31982422 157.44604492 C-48.60239964 157.4345622 -54.88441239 157.45477602 -61.16691399 157.48396206 C-66.04179363 157.5024205 -70.91654082 157.50201241 -75.79144669 157.49632454 C-78.10599685 157.49617249 -80.42055666 157.50211885 -82.73507309 157.51461601 C-98.95442937 157.58987098 -113.78741944 156.85095625 -128.5 149.25 C-129.14324219 148.93417969 -129.78648437 148.61835938 -130.44921875 148.29296875 C-131.97301823 147.54244065 -133.4877385 146.77351306 -135 146 Z M-82 294 C-82.32613281 295.01320313 -82.65226563 296.02640625 -82.98828125 297.0703125 C-83.42944236 298.42195504 -83.87086242 299.77351307 -84.3125 301.125 C-84.52583984 301.79015625 -84.73917969 302.4553125 -84.95898438 303.140625 C-86.32560886 307.30169059 -88.01845147 311.08339088 -90 315 C-90 315.66 -90 316.32 -90 317 C-87.5977065 318.83324831 -85.18398527 320.55271778 -82.6875 322.25 C-75.10631375 327.48416518 -67.6790497 332.89221517 -60.3347168 338.45410156 C-59.579729 339.01838867 -58.82474121 339.58267578 -58.046875 340.1640625 C-57.38526367 340.66373535 -56.72365234 341.1634082 -56.04199219 341.67822266 C-53.7099096 343.18777492 -51.68422854 344.25593586 -49 345 C-46.99324909 344.32493868 -46.99324909 344.32493868 -45.2421875 342.84375 C-44.54287109 342.32200195 -43.84355469 341.80025391 -43.12304688 341.26269531 C-42.38119141 340.68100586 -41.63933594 340.09931641 -40.875 339.5 C-40.09962891 338.91573242 -39.32425781 338.33146484 -38.52539062 337.72949219 C-36.87072337 336.48219898 -35.22145882 335.2277122 -33.57714844 333.96679688 C-30.09723154 331.31103612 -26.574196 328.71601588 -23.04736328 326.12304688 C-21.36845582 324.88856556 -19.69227491 323.65036626 -18.01904297 322.40820312 C-16.88039795 321.56418945 -16.88039795 321.56418945 -15.71875 320.703125 C-14.71231445 319.95530762 -14.71231445 319.95530762 -13.68554688 319.19238281 C-12 318 -12 318 -10 317 C-11.75728385 311.58920042 -13.79971705 306.31704086 -15.87890625 301.0234375 C-16.74984768 298.67462681 -17.47001673 296.44149596 -18 294 C-18.89525391 294.18175781 -18.89525391 294.18175781 -19.80859375 294.3671875 C-40.97221624 298.45525722 -60.9097614 298.8709642 -82 294 Z M-109.1875 336 C-110.26064453 336.8353125 -110.26064453 336.8353125 -111.35546875 337.6875 C-111.89816406 338.120625 -112.44085938 338.55375 -113 339 C-112.39180659 342.29541063 -111.26899242 344.26061077 -109.19140625 346.87109375 C-108.61366455 347.60440918 -108.03592285 348.33772461 -107.44067383 349.09326172 C-106.82087646 349.86686035 -106.2010791 350.64045898 -105.5625 351.4375 C-104.28615569 353.05314638 -103.0101162 354.66903361 -101.734375 356.28515625 C-101.10208984 357.08195801 -100.46980469 357.87875977 -99.81835938 358.69970703 C-97.28678176 361.90224789 -94.7957066 365.13489795 -92.3125 368.375 C-91.54550781 369.37273437 -90.77851563 370.37046875 -89.98828125 371.3984375 C-88.3132588 373.59011717 -86.65003362 375.78947877 -85 378 C-81.74957109 376.60493574 -79.92628208 375.03216606 -77.6875 372.3125 C-74.31967324 368.32505143 -70.73978684 364.63748264 -67 361 C-68.3308966 357.90580927 -69.56757687 356.28766495 -72.3515625 354.40625 C-73.0307373 353.93864258 -73.70991211 353.47103516 -74.40966797 352.98925781 C-75.14072754 352.49780273 -75.87178711 352.00634766 -76.625 351.5 C-83.54945604 346.75086696 -90.29611731 341.8339514 -96.90869141 336.65820312 C-102.0605679 332.70440659 -104.04093652 331.95024513 -109.1875 336 Z M-3.8125 337.375 C-4.97749053 338.29639407 -6.14421738 339.21559623 -7.3125 340.1328125 C-7.91707031 340.60750977 -8.52164062 341.08220703 -9.14453125 341.57128906 C-12.14232075 343.87958698 -15.22308309 346.06667242 -18.3125 348.25 C-23.26789098 351.75850678 -28.16574752 355.32596812 -33 359 C-31.44067258 362.79319535 -29.05753612 365.11373748 -26.125 367.9375 C-22.81386612 371.13496809 -19.8079725 374.34963575 -17 378 C-12.79142411 376.59714137 -11.18501953 373.53425247 -8.6875 370.0625 C-7.62424427 368.60932282 -6.55905895 367.15755598 -5.4921875 365.70703125 C-4.92983398 364.94213379 -4.36748047 364.17723633 -3.78808594 363.38916016 C-1.93997529 360.91979768 -0.04636153 358.49317041 1.8671875 356.07421875 C2.50358154 355.26911865 3.13997559 354.46401855 3.7956543 353.63452148 C5.03974936 352.06643832 6.28848902 350.50202696 7.54223633 348.94165039 C8.39338013 347.86451782 8.39338013 347.86451782 9.26171875 346.765625 C9.76662842 346.13430664 10.27153809 345.50298828 10.79174805 344.85253906 C12.06744211 342.89659512 12.57468473 341.28224113 13 339 C11.73608512 337.99126984 10.46359117 336.99328178 9.1875 336 C8.47980469 335.443125 7.77210938 334.88625 7.04296875 334.3125 C2.43667392 331.35319778 -0.20263227 334.44921485 -3.8125 337.375 Z M-144.39453125 350.3125 C-145.59658203 350.58320313 -146.79863281 350.85390625 -148.03710938 351.1328125 C-149.28298828 351.41898437 -150.52886719 351.70515625 -151.8125 352 C-153.71032227 352.42925781 -153.71032227 352.42925781 -155.64648438 352.8671875 C-158.7654371 353.57336547 -161.88318251 354.28446726 -165 355 C-165.268125 356.11375 -165.53625 357.2275 -165.8125 358.375 C-171.2605384 380.00958545 -180.39540561 397.09340531 -200 409 C-214.86810154 417.15887072 -229.22444903 418.47069332 -245.8125 418.6875 C-247.58400832 418.72075329 -249.35549375 418.75525001 -251.12695312 418.79101562 C-255.41784017 418.87498787 -259.70868362 418.94222062 -264 419 C-265.09561691 422.54078641 -265.12057444 425.81899445 -265.11352539 429.51269531 C-265.11367142 430.15701508 -265.11381744 430.80133484 -265.1139679 431.46517944 C-265.1132735 433.58619603 -265.10550336 435.70712383 -265.09765625 437.828125 C-265.09579039 439.30214388 -265.09436728 440.77616338 -265.09336853 442.25018311 C-265.08955661 446.12338992 -265.07973765 449.99655903 -265.06866455 453.86975098 C-265.05662 458.52037782 -265.05204188 463.17101729 -265.04621124 467.82165527 C-265.03652517 474.88112971 -265.01735937 481.94052148 -265 489 C-252.13 489 -239.26 489 -226 489 C-225.82969316 478.03602436 -225.82969316 478.03602436 -225.70214844 467.0715332 C-225.67276371 465.68958229 -225.64193523 464.30766099 -225.609375 462.92578125 C-225.60824707 462.21723999 -225.60711914 461.50869873 -225.60595703 460.77868652 C-225.50420723 457.23791759 -225.06936899 455.11378067 -223.21191406 452.06713867 C-219.25583068 448.36999099 -215.18311138 448.87048526 -209.92407227 448.85473633 C-209.21950897 448.85137772 -208.51494568 448.8480191 -207.78903198 448.84455872 C-205.46480537 448.83507601 -203.14065099 448.83310704 -200.81640625 448.83203125 C-199.197423 448.82881711 -197.57844004 448.82545292 -195.9594574 448.82194519 C-192.56760993 448.81596085 -189.17578792 448.81410461 -185.78393555 448.81469727 C-181.44171049 448.81479892 -177.09964883 448.80114035 -172.7574625 448.78392506 C-169.41427361 448.77279749 -166.07112414 448.77077828 -162.72791862 448.77130699 C-161.12717055 448.77012826 -159.52642141 448.76571249 -157.9256916 448.75797462 C-155.6854525 448.74815818 -153.44556728 448.75105903 -151.20532227 448.75708008 C-149.93165298 448.75565506 -148.6579837 448.75423004 -147.34571838 448.75276184 C-143.21835137 449.0577614 -140.28822049 449.81652581 -137.21948242 452.63574219 C-135.49957693 455.97018959 -135.52039705 459.15739283 -135.48828125 462.828125 C-135.47164429 463.49247559 -135.45500732 464.15682617 -135.43786621 464.84130859 C-135.38026175 467.31055411 -135.34786266 469.78033582 -135.3125 472.25 C-135.209375 477.7775 -135.10625 483.305 -135 489 C-118.17 489 -101.34 489 -84 489 C-82.57390056 484.00865196 -81.52119064 479.59584493 -80.76318359 474.5234375 C-80.65560226 473.81189514 -80.54802094 473.10035278 -80.43717957 472.36724854 C-80.08621736 470.03717744 -79.74207061 467.70616236 -79.3984375 465.375 C-79.15493557 463.74263663 -78.91116696 462.11031302 -78.66714478 460.47802734 C-78.15815821 457.06587838 -77.65258977 453.65324492 -77.14941406 450.24023438 C-76.50602876 445.87827943 -75.8538395 441.51769463 -75.19904137 437.15744019 C-74.69436788 433.78985238 -74.19453602 430.42155938 -73.69612503 427.05303955 C-73.45763198 425.44534772 -73.21761952 423.83788049 -72.97602463 422.23065186 C-72.63842261 419.97998642 -72.30740809 417.72844382 -71.97802734 415.4765625 C-71.78864594 414.19861816 -71.59926453 412.92067383 -71.40414429 411.60400391 C-71.00399582 408.03563315 -70.92769432 404.5873434 -71 401 C-72.32 400.34 -73.64 399.68 -75 399 C-75.598125 399.639375 -76.19625 400.27875 -76.8125 400.9375 C-79.61993404 403.58450924 -81.50376653 403.94382263 -85.3125 404.375 C-90.41936018 403.85565829 -93.16051479 401.16065484 -96.38012695 397.37890625 C-97.79232145 395.54920906 -99.15185824 393.68987097 -100.5 391.8125 C-101.55050715 390.38035292 -102.60265594 388.9494089 -103.65625 387.51953125 C-104.20152344 386.77783691 -104.74679688 386.03614258 -105.30859375 385.27197266 C-108.7111456 380.70151257 -112.24432824 376.23151483 -115.76733398 371.75366211 C-118.71724097 367.98945149 -121.60119617 364.19818821 -124.37890625 360.3046875 C-124.91580078 359.55960937 -125.45269531 358.81453125 -126.00585938 358.046875 C-127.01975626 356.6322535 -128.02052756 355.20810196 -129.00585938 353.7734375 C-130.49313005 351.63081872 -130.49313005 351.63081872 -133 349 C-136.94463188 348.54488289 -140.5520518 349.43838145 -144.39453125 350.3125 Z M31.46118164 350.27490234 C30.81717407 351.17136475 30.81717407 351.17136475 30.16015625 352.0859375 C29.66193359 352.76011719 29.16371094 353.43429687 28.65039062 354.12890625 C27.86438477 355.24072266 27.86438477 355.24072266 27.0625 356.375 C25.90866155 357.9461279 24.75367579 359.51641373 23.59765625 361.0859375 C23.00484863 361.90030273 22.41204102 362.71466797 21.80126953 363.55371094 C18.94637159 367.43092391 15.97247386 371.21266046 13 375 C9.42098764 379.57727095 5.86265911 384.16708129 2.3671875 388.80859375 C1.78066406 389.58525391 1.19414062 390.36191406 0.58984375 391.16210938 C-0.52422997 392.64035071 -1.63386956 394.12194804 -2.73828125 395.60742188 C-7.62147863 402.0785999 -7.62147863 402.0785999 -11 404 C-16.09089186 404.55537002 -18.84393193 403.92048027 -23 401 C-24.32608822 400.31903578 -25.65686601 399.64669414 -27 399 C-28.61482077 400.17660346 -28.61482077 400.17660346 -30 402 C-30.2471724 404.38444512 -30.2471724 404.38444512 -29.85766602 407.08886719 C-29.73827667 408.16406616 -29.61888733 409.23926514 -29.49588013 410.3470459 C-28.53263656 417.44288287 -27.42981052 424.51080309 -26.27734375 431.578125 C-26.00933519 433.24242914 -25.74172847 434.90679804 -25.47450256 436.57122803 C-24.77652273 440.91184552 -24.07315595 445.25157266 -23.36859131 449.59112549 C-22.52090359 454.81947324 -21.6800386 460.04892224 -20.83800507 465.27818298 C-19.56384163 473.18630244 -18.28112103 481.09299058 -17 489 C0.16 489 17.32 489 35 489 C35.17030684 478.03602436 35.17030684 478.03602436 35.29785156 467.0715332 C35.32723629 465.68958229 35.35806477 464.30766099 35.390625 462.92578125 C35.39175293 462.21723999 35.39288086 461.50869873 35.39404297 460.77868652 C35.49579277 457.23791759 35.93063101 455.11378067 37.78808594 452.06713867 C41.74416932 448.36999099 45.81688862 448.87048526 51.07592773 448.85473633 C51.78049103 448.85137772 52.48505432 448.8480191 53.21096802 448.84455872 C55.53519463 448.83507601 57.85934901 448.83310704 60.18359375 448.83203125 C61.802577 448.82881711 63.42155996 448.82545292 65.0405426 448.82194519 C68.43239007 448.81596085 71.82421208 448.81410461 75.21606445 448.81469727 C79.55828951 448.81479892 83.90035117 448.80114035 88.2425375 448.78392506 C91.58572639 448.77279749 94.92887586 448.77077828 98.27208138 448.77130699 C99.87282945 448.77012826 101.47357859 448.76571249 103.0743084 448.75797462 C105.3145475 448.74815818 107.55443272 448.75105903 109.79467773 448.75708008 C111.06834702 448.75565506 112.3420163 448.75423004 113.65428162 448.75276184 C117.78164863 449.0577614 120.71177951 449.81652581 123.78051758 452.63574219 C125.50042307 455.97018959 125.47960295 459.15739283 125.51171875 462.828125 C125.52835571 463.49247559 125.54499268 464.15682617 125.56213379 464.84130859 C125.61973825 467.31055411 125.65213734 469.78033582 125.6875 472.25 C125.790625 477.7775 125.89375 483.305 126 489 C138.87 489 151.74 489 165 489 C165.0290877 477.36718992 165.0290877 477.36718992 165.04882812 465.734375 C165.05480501 460.98957195 165.06187454 456.24478821 165.07543945 451.5 C165.08630771 447.67450499 165.0922852 443.84903068 165.09487724 440.02352142 C165.09672438 438.56429468 165.10033136 437.10506906 165.10573006 435.64585114 C165.11299274 433.60144098 165.11398873 431.5571163 165.11352539 429.51269531 C165.115746 428.34909485 165.11796661 427.18549438 165.12025452 425.9866333 C165.01864113 423.4629699 164.74229493 421.39892955 164 419 C162.39898437 418.98598145 162.39898437 418.98598145 160.765625 418.97167969 C156.72454279 418.93116327 152.68417384 418.86525062 148.64355469 418.79248047 C146.90992544 418.764622 145.17617746 418.74323704 143.44238281 418.72900391 C122.16218327 418.5440659 102.88775298 414.55637295 87.1328125 399.19140625 C86.42898438 398.46824219 85.72515625 397.74507813 85 397 C84.37867188 396.41089844 83.75734375 395.82179688 83.1171875 395.21484375 C72.57226144 384.4571277 68.42488181 369.22643214 65 355 C60.60611864 353.99128968 56.2096048 352.99455656 51.8125 352 C50.56662109 351.71382813 49.32074219 351.42765625 48.03710938 351.1328125 C46.83505859 350.86210937 45.63300781 350.59140625 44.39453125 350.3125 C43.28956299 350.06113281 42.18459473 349.80976563 41.04614258 349.55078125 C35.95786054 348.3872896 35.95786054 348.3872896 31.46118164 350.27490234 Z M88 360 C88.83908551 370.62841641 95.53751556 378.91837601 103 386 C112.27151014 393.83360226 123.00755997 398.15759823 135.17578125 398.09765625 C136.33271484 398.09443359 137.48964844 398.09121094 138.68164062 398.08789062 C139.87982422 398.07951172 141.07800781 398.07113281 142.3125 398.0625 C143.53001953 398.05798828 144.74753906 398.05347656 146.00195312 398.04882812 C149.00135226 398.03706578 152.00065089 398.02062826 155 398 C153.38033419 393.63300648 151.21806052 390.5708377 148.0625 387.1875 C147.57450928 386.66269043 147.08651855 386.13788086 146.58374023 385.59716797 C141.87004557 380.6603085 136.78633772 376.63385282 131 373 C130.18144531 372.46890625 129.36289062 371.9378125 128.51953125 371.390625 C116.50874928 364.50704538 101.5305196 362.17191911 88 360 Z M-189 360 C-193.25421029 360.87653436 -197.5023349 361.77982235 -201.75 362.6875 C-202.93722656 362.93177734 -204.12445313 363.17605469 -205.34765625 363.42773438 C-224.76732607 367.61941174 -241.06374584 376.79432936 -253.0625 392.9375 C-255.1782139 395.6777059 -255.1782139 395.6777059 -255 398 C-250.89597283 398.08832196 -246.79219544 398.14083048 -242.6875 398.1875 C-241.53958984 398.21263672 -240.39167969 398.23777344 -239.20898438 398.26367188 C-223.99605655 398.39296021 -211.43827397 393.97714769 -200.328125 383.4609375 C-194.63112668 377.43894263 -190.25001708 371.01568586 -188 363 C-188.495 361.515 -188.495 361.515 -189 360 Z M-52.9453125 375.75 C-54.02425781 376.86375 -54.02425781 376.86375 -55.125 378 C-55.84945312 378.7425 -56.57390625 379.485 -57.3203125 380.25 C-57.87460938 380.8275 -58.42890625 381.405 -59 382 C-57.69628054 384.96184809 -56.42071276 386.75770306 -53.875 388.75 C-52.92625 389.4925 -51.9775 390.235 -51 391 C-47.05860922 389.33248852 -44.2107188 386.77289351 -41 384 C-42.59092052 379.86360664 -45.60474918 376.76786752 -49 374 C-51.18829043 373.77706675 -51.18829043 373.77706675 -52.9453125 375.75 Z M-51 415 C-52.79759089 422.55779883 -54.01804658 430.14697853 -55.1640625 437.828125 C-55.36281579 439.1485242 -55.56174271 440.46889728 -55.76083374 441.78924561 C-56.17467863 444.53887566 -56.5862057 447.28883992 -56.99609375 450.0390625 C-57.52042103 453.55562024 -58.05096022 457.0712085 -58.58326149 460.58656693 C-59.0928589 463.9582309 -59.59694358 467.3307123 -60.1015625 470.703125 C-60.2921524 471.96151184 -60.48274231 473.21989868 -60.67910767 474.51641846 C-60.85283905 475.68823669 -61.02657043 476.86005493 -61.20556641 478.06738281 C-61.35941803 479.09502747 -61.51326965 480.12267212 -61.67178345 481.18145752 C-62.09638952 484.3548086 -62.09638952 484.3548086 -62 489 C-54.08 489 -46.16 489 -38 489 C-39.51814635 474.87463835 -41.63972333 460.87338745 -43.88623047 446.84667969 C-44.50736523 442.95383989 -45.11507137 439.05903729 -45.72265625 435.1640625 C-46.11637022 432.692578 -46.51087157 430.22121877 -46.90625 427.75 C-47.08651733 426.58355957 -47.26678467 425.41711914 -47.45251465 424.21533203 C-47.62609497 423.14911621 -47.79967529 422.08290039 -47.97851562 420.984375 C-48.12792603 420.04303711 -48.27733643 419.10169922 -48.43127441 418.13183594 C-48.61895386 417.42833008 -48.8066333 416.72482422 -49 416 C-49.66 415.67 -50.32 415.34 -51 415 Z M-205 469 C-205 475.6 -205 482.2 -205 489 C-188.83 489 -172.66 489 -156 489 C-156 482.4 -156 475.8 -156 469 C-172.17 469 -188.34 469 -205 469 Z M56 469 C56 475.6 56 482.2 56 489 C72.17 489 88.34 489 105 489 C105 482.4 105 475.8 105 469 C88.83 469 72.66 469 56 469 Z " fill="#000000" transform="translate(306,3)"/>
<path d="M0 0 C2.64352348 2.30242368 2.98942604 3.95921471 3.875 7.375 C4.02273095 11.65919756 3.21446447 13.36696738 1 17 C-8.27610225 25.15832467 -20.58234932 30.1701048 -33 30 C-40.61345659 29.34970476 -47.29631801 27.66483124 -54 24 C-54.95519531 23.48179687 -55.91039062 22.96359375 -56.89453125 22.4296875 C-65.27407394 17.53155377 -65.27407394 17.53155377 -67.3125 13.5 C-68.3342309 8.29846087 -67.24033122 5.01553823 -64.5 0.5625 C-60.39833417 -2.00104115 -56.67817933 -2.0033978 -52 -1 C-48.92018849 0.58413281 -46.16717734 2.36294564 -43.34765625 4.37109375 C-38.1188278 7.99908287 -32.12658875 7.67742354 -26 7 C-21.56225187 5.43622209 -17.65951104 3.31165199 -13.96875 0.39453125 C-9.31051665 -2.90505071 -5.063672 -1.98237372 0 0 Z " fill="#000000" transform="translate(288,232)"/>
</svg>
