<?xml version="1.0" encoding="UTF-8"?>
<svg version="1.1" xmlns="http://www.w3.org/2000/svg" width="512" height="512">
<path d="M0 0 C1.2113562 -0.0112793 2.4227124 -0.02255859 3.67077637 -0.03417969 C5.01001216 -0.02640276 6.34924559 -0.01821011 7.68847656 -0.00964355 C9.10128501 -0.01506471 10.5140878 -0.02218734 11.92687988 -0.03088379 C15.76164099 -0.04912126 19.59597171 -0.04204814 23.43074036 -0.02936745 C27.44342206 -0.01924186 31.45606686 -0.02863189 35.46875 -0.03491211 C42.20742409 -0.04218982 48.94592284 -0.03259765 55.68457031 -0.0135498 C63.4759158 0.0082193 71.26684261 0.001168 79.05817795 -0.02085543 C85.74704955 -0.03900598 92.4357951 -0.04156948 99.12468338 -0.03110075 C103.11993523 -0.02486387 107.11499028 -0.02403537 111.11022949 -0.0372467 C114.86636457 -0.04879972 118.62195976 -0.04079024 122.3780365 -0.01766968 C123.75669966 -0.01237954 125.13540824 -0.01390167 126.51405334 -0.02272034 C128.39542013 -0.03364541 130.27688618 -0.0175175 132.15820312 0 C133.73773773 0.00226215 133.73773773 0.00226215 135.34918213 0.00457001 C138.78031782 0.63723048 139.96734132 1.77956053 142.07910156 4.50793457 C142.54907227 7.3170166 142.54907227 7.3170166 142.50488281 10.51574707 C142.49650391 11.66687988 142.488125 12.8180127 142.47949219 14.00402832 C142.45048828 15.20156738 142.42148437 16.39910645 142.39160156 17.63293457 C142.38193359 18.83820801 142.37226563 20.04348145 142.36230469 21.28527832 C142.24761935 30.170899 142.24761935 30.170899 141.07910156 32.50793457 C152.29910156 32.50793457 163.51910156 32.50793457 175.07910156 32.50793457 C174.74910156 31.84793457 174.41910156 31.18793457 174.07910156 30.50793457 C173.78165188 26.22219752 173.80105217 21.92777752 173.76660156 17.63293457 C173.73759766 16.43539551 173.70859375 15.23785645 173.67871094 14.00402832 C173.67033203 12.85289551 173.66195312 11.7017627 173.65332031 10.51574707 C173.63144653 8.93237549 173.63144653 8.93237549 173.60913086 7.3170166 C174.21024508 3.72407104 175.24847263 2.75264349 178.07910156 0.50793457 C180.809021 0.00457001 180.809021 0.00457001 184 0 C185.2113562 -0.0112793 186.4227124 -0.02255859 187.67077637 -0.03417969 C189.01001216 -0.02640276 190.34924559 -0.01821011 191.68847656 -0.00964355 C193.10128501 -0.01506471 194.5140878 -0.02218734 195.92687988 -0.03088379 C199.76164099 -0.04912126 203.59597171 -0.04204814 207.43074036 -0.02936745 C211.44342206 -0.01924186 215.45606686 -0.02863189 219.46875 -0.03491211 C226.20742409 -0.04218982 232.94592284 -0.03259765 239.68457031 -0.0135498 C247.4759158 0.0082193 255.26684261 0.001168 263.05817795 -0.02085543 C269.74704955 -0.03900598 276.4357951 -0.04156948 283.12468338 -0.03110075 C287.11993523 -0.02486387 291.11499028 -0.02403537 295.11022949 -0.0372467 C298.86636457 -0.04879972 302.62195976 -0.04079024 306.3780365 -0.01766968 C307.75669966 -0.01237954 309.13540824 -0.01390167 310.51405334 -0.02272034 C312.39542013 -0.03364541 314.27688618 -0.0175175 316.15820312 0 C317.73773773 0.00226215 317.73773773 0.00226215 319.34918213 0.00457001 C322.82347928 0.64518894 324.00119379 1.68281066 326.07910156 4.50793457 C326.57129288 6.70241928 326.57129288 6.70241928 326.56011963 9.12701416 C326.56836761 10.51097633 326.56836761 10.51097633 326.57678223 11.92289734 C326.55521057 13.43017143 326.55521057 13.43017143 326.53320312 14.96789551 C326.53378723 16.0316188 326.53437134 17.0953421 326.53497314 18.19129944 C326.53218557 21.70863431 326.50106042 25.22512266 326.46972656 28.74230957 C326.4622666 31.18039487 326.45657252 33.61848616 326.45257568 36.05657959 C326.43730023 42.47483869 326.39800133 48.89273595 326.35375977 55.31085205 C326.31284864 61.85956934 326.29457352 68.40834508 326.27441406 74.95715332 C326.23150945 87.80756815 326.16400298 100.65773212 326.07910156 113.50793457 C327.2584729 113.96498779 327.2584729 113.96498779 328.46166992 114.43127441 C334.27817157 116.82384715 338.86224811 121.28384887 341.41894531 127.03918457 C343.1956133 133.68329206 343.36586764 141.56324262 340.57910156 147.94543457 C337.80724835 152.53879132 333.24211758 157.6383232 327.95410156 159.09216309 C327.33535156 159.22936768 326.71660156 159.36657227 326.07910156 159.50793457 C326.08798401 160.29196655 326.09686646 161.07599854 326.10601807 161.88378906 C326.18640235 169.298199 326.24718621 176.71239552 326.28635025 184.1271286 C326.30716236 187.93849892 326.33536153 191.74950703 326.38085938 195.56066895 C326.42454735 199.24357121 326.44828656 202.92612665 326.45861053 206.60926819 C326.46596106 208.00941929 326.48031454 209.40955293 326.50202179 210.80955505 C326.63884576 220.00562966 326.38001623 226.59993254 320.11425781 233.75012207 C319.46328125 234.2889502 318.81230469 234.82777832 318.14160156 235.38293457 C317.49320312 235.93723145 316.84480469 236.49152832 316.17675781 237.06262207 C309.67552599 241.54205554 302.7076924 241.18257185 295.07910156 240.50793457 C288.41950823 238.82707874 283.89362709 234.04415135 280.07910156 228.50793457 C278.07910156 223.50793457 278.07910156 223.50793457 278.07910156 208.50793457 C198.87910156 208.50793457 119.67910156 208.50793457 38.07910156 208.50793457 C38.07910156 213.45793457 38.07910156 218.40793457 38.07910156 223.50793457 C35.6231126 230.87590145 30.74253268 236.16056991 23.75097656 239.67980957 C17.27695191 241.68637861 8.9063258 241.78406727 2.64160156 239.00793457 C-3.26351866 235.43946407 -7.74716715 230.02909254 -9.92089844 223.50793457 C-10.16140747 220.47697449 -10.16140747 220.47697449 -10.14794922 217.06530762 C-10.14779816 215.78435715 -10.14764709 214.50340668 -10.14749146 213.18363953 C-10.13727974 211.79564252 -10.12684777 210.40764713 -10.11621094 209.01965332 C-10.11247794 207.59190571 -10.10963232 206.16415552 -10.1076355 204.73640442 C-10.10002162 200.98974458 -10.08039262 197.24324131 -10.05822754 193.49664307 C-10.03772057 189.66904823 -10.02862343 185.84142795 -10.01855469 182.01379395 C-9.99714443 174.51176967 -9.96303584 167.00987411 -9.92089844 159.50793457 C-11.09241455 159.05873657 -11.09241455 159.05873657 -12.28759766 158.60046387 C-17.70677392 156.3521036 -21.7448365 152.30877941 -24.92089844 147.44543457 C-27.25408405 140.70512059 -27.29846626 131.61850001 -24.42089844 125.07043457 C-21.64904523 120.47707783 -17.08391445 115.37754594 -11.79589844 113.92370605 C-10.86777344 113.71789917 -10.86777344 113.71789917 -9.92089844 113.50793457 C-9.92458561 112.94986492 -9.92827278 112.39179527 -9.93207169 111.81681442 C-10.02040857 98.23782728 -10.08634569 84.65889048 -10.12814713 71.07967758 C-10.14904039 64.51284851 -10.17739039 57.94622649 -10.22265625 51.3795166 C-10.26605103 45.04475107 -10.29002243 38.71018496 -10.30040741 32.37528229 C-10.30781016 29.95589304 -10.3222656 27.53651496 -10.34381866 25.11721039 C-10.37276709 21.73386365 -10.3768579 18.35134574 -10.375 14.96789551 C-10.3893811 13.96304611 -10.40376221 12.95819672 -10.4185791 11.92289734 C-10.41308044 11.00025589 -10.40758179 10.07761444 -10.4019165 9.12701416 C-10.40560368 8.32689785 -10.40929085 7.52678154 -10.41308975 6.70241928 C-9.14167764 1.0336999 -5.26290566 0.00753735 0 0 Z M6.07910156 16.50793457 C6.07910156 48.18793457 6.07910156 79.86793457 6.07910156 112.50793457 C43.28993003 112.50793457 71.51419009 109.48070922 98.89160156 83.07043457 C116.79357031 64.52727783 125.07910156 42.07353136 125.07910156 16.50793457 C114.84910156 16.50793457 104.61910156 16.50793457 94.07910156 16.50793457 C93.99660156 20.81855957 93.91410156 25.12918457 93.82910156 29.57043457 C93.1661351 50.6738569 88.13436761 68.65318465 72.92675781 83.85559082 C58.35247087 97.43026961 41.72295649 103.33865749 22.07910156 104.50793457 C22.07910156 98.89793457 22.07910156 93.28793457 22.07910156 87.50793457 C23.46097656 87.59043457 24.84285156 87.67293457 26.26660156 87.75793457 C37.62179756 87.70981933 47.06982321 83.07598911 56.07910156 76.50793457 C56.71332031 76.06965332 57.34753906 75.63137207 58.00097656 75.17980957 C69.09303303 66.73356474 75.1047267 53.19694735 77.32910156 39.82043457 C78.12236107 32.08615438 78.07910156 24.28278831 78.07910156 16.50793457 C54.31910156 16.50793457 30.55910156 16.50793457 6.07910156 16.50793457 Z M191.07910156 16.50793457 C191.07910156 45.5661261 202.02829114 67.42578593 222.32910156 87.76184082 C247.25693759 111.17751032 277.41843392 112.50793457 310.07910156 112.50793457 C310.07910156 80.82793457 310.07910156 49.14793457 310.07910156 16.50793457 C286.31910156 16.50793457 262.55910156 16.50793457 238.07910156 16.50793457 C238.07910156 38.43741107 239.59443514 56.38075087 255.07910156 72.50793457 C264.34770829 81.06746756 276.43401959 87.7401067 289.32910156 87.57043457 C291.68035156 87.53949707 291.68035156 87.53949707 294.07910156 87.50793457 C294.07910156 93.11793457 294.07910156 98.72793457 294.07910156 104.50793457 C271.2824353 102.30180558 252.9855683 95.52557714 237.76269531 77.81262207 C226.61087405 63.29620957 222.72310866 47.76874729 222.39160156 29.75793457 C222.28847656 25.38543457 222.18535156 21.01293457 222.07910156 16.50793457 C211.84910156 16.50793457 201.61910156 16.50793457 191.07910156 16.50793457 Z M138.07910156 48.50793457 C137.76094482 49.28209717 137.44278809 50.05625977 137.11499023 50.85388184 C131.22083607 65.11250988 125.04322568 77.65956903 115.07910156 89.50793457 C114.39847656 90.34066895 113.71785156 91.17340332 113.01660156 92.03137207 C97.46076544 110.40983975 75.70379288 120.02193537 53.07910156 126.50793457 C53.14871094 128.20949707 53.14871094 128.20949707 53.21972656 129.94543457 C53.69050888 146.08986708 53.69050888 146.08986708 49.07910156 151.50793457 C45.67192412 155.00997542 42.46711385 157.31392843 38.07910156 159.50793457 C38.07910156 170.39793457 38.07910156 181.28793457 38.07910156 192.50793457 C117.27910156 192.50793457 196.47910156 192.50793457 278.07910156 192.50793457 C278.07910156 181.61793457 278.07910156 170.72793457 278.07910156 159.50793457 C275.10910156 157.52793457 272.13910156 155.54793457 269.07910156 153.50793457 C265.34730918 148.92093977 262.93669947 145.44741252 262.98144531 139.49621582 C262.98466797 138.7388916 262.98789062 137.98156738 262.99121094 137.20129395 C262.99958984 136.41561035 263.00796875 135.62992676 263.01660156 134.82043457 C263.02111328 134.02314941 263.025625 133.22586426 263.03027344 132.40441895 C263.04204306 130.438892 263.05997808 128.47340372 263.07910156 126.50793457 C262.51626465 126.3325415 261.95342773 126.15714844 261.37353516 125.97644043 C229.16831651 115.84626823 203.49188487 99.32629793 186.86816406 69.19152832 C184.1707255 63.85948427 182.1753621 58.24664823 180.20800781 52.61340332 C179.38798922 49.6758299 179.38798922 49.6758299 178.07910156 48.50793457 C175.12204836 48.41925158 172.188451 48.39273161 169.23144531 48.41027832 C168.34501846 48.41169327 167.45859161 48.41310822 166.54530334 48.41456604 C163.70236902 48.42018242 160.85951225 48.43273766 158.01660156 48.44543457 C156.09407665 48.45044746 154.17155052 48.45501073 152.24902344 48.45910645 C147.52568607 48.47015716 142.80240698 48.48743274 138.07910156 48.50793457 Z M-7.92089844 131.50793457 C-9.34131664 134.34877098 -9.23542116 136.36270735 -8.92089844 139.50793457 C-6.68883413 142.35574076 -5.37096845 143.35791123 -1.92089844 144.50793457 C2.5994809 144.73677942 7.12226191 144.73624026 11.64770508 144.74816895 C13.87326718 144.75785478 16.09789748 144.78887989 18.32324219 144.82043457 C19.74836694 144.82696729 21.17349827 144.83221671 22.59863281 144.83605957 C24.53379761 144.85007813 24.53379761 144.85007813 26.50805664 144.86437988 C30.37446176 144.47845307 32.78941105 143.54197785 36.07910156 141.50793457 C37.49951977 138.66709816 37.39362428 136.65316179 37.07910156 133.50793457 C34.84703725 130.66012838 33.52917158 129.65795791 30.07910156 128.50793457 C25.55872223 128.27908972 21.03594121 128.27962888 16.51049805 128.2677002 C14.28493594 128.25801436 12.06030565 128.22698925 9.83496094 128.19543457 C8.40983618 128.18890185 6.98470486 128.18365243 5.55957031 128.17980957 C3.62440552 128.16579102 3.62440552 128.16579102 1.65014648 128.15148926 C-2.21625864 128.53741607 -4.63120793 129.47389129 -7.92089844 131.50793457 Z M280.07910156 131.50793457 C278.65868336 134.34877098 278.76457884 136.36270735 279.07910156 139.50793457 C281.31116587 142.35574076 282.62903155 143.35791123 286.07910156 144.50793457 C290.5994809 144.73677942 295.12226191 144.73624026 299.64770508 144.74816895 C301.87326718 144.75785478 304.09789748 144.78887989 306.32324219 144.82043457 C307.74836694 144.82696729 309.17349827 144.83221671 310.59863281 144.83605957 C312.53379761 144.85007813 312.53379761 144.85007813 314.50805664 144.86437988 C318.37446176 144.47845307 320.78941105 143.54197785 324.07910156 141.50793457 C325.49951977 138.66709816 325.39362428 136.65316179 325.07910156 133.50793457 C322.84703725 130.66012838 321.52917158 129.65795791 318.07910156 128.50793457 C313.55872223 128.27908972 309.03594121 128.27962888 304.51049805 128.2677002 C302.28493594 128.25801436 300.06030565 128.22698925 297.83496094 128.19543457 C296.40983618 128.18890185 294.98470486 128.18365243 293.55957031 128.17980957 C291.62440552 128.16579102 291.62440552 128.16579102 289.65014648 128.15148926 C285.78374136 128.53741607 283.36879207 129.47389129 280.07910156 131.50793457 Z M6.07910156 160.50793457 C6.00488554 168.37331075 5.95046719 176.23848259 5.91430664 184.10412598 C5.90092606 186.77943178 5.87876771 189.45425606 5.8527832 192.1295166 C5.81635072 195.97707209 5.79936328 199.82430043 5.78613281 203.67199707 C5.77064896 204.865961 5.7551651 206.05992493 5.73921204 207.29006958 C5.6779819 215.33716104 5.6779819 215.33716104 9.07910156 222.50793457 C11.91993798 223.92835278 13.93387434 223.82245729 17.07910156 223.50793457 C19.92690775 221.27587026 20.92907822 219.95800458 22.07910156 216.50793457 C22.16737121 214.68260871 22.19673359 212.85418768 22.19262695 211.0267334 C22.19251366 209.34533012 22.19251366 209.34533012 22.19239807 207.62995911 C22.18723679 206.42051132 22.1820755 205.21106354 22.17675781 203.96496582 C22.17534286 202.72623215 22.17392792 201.48749847 22.17247009 200.21122742 C22.16781758 196.9216192 22.15883546 193.63205997 22.14776611 190.34246826 C22.13752786 186.98421834 22.1329673 183.62596124 22.12792969 180.2677002 C22.11689301 173.68108997 22.09962446 167.09452179 22.07910156 160.50793457 C16.79910156 160.50793457 11.51910156 160.50793457 6.07910156 160.50793457 Z M294.07910156 160.50793457 C294.00488554 168.37331075 293.95046719 176.23848259 293.91430664 184.10412598 C293.90092606 186.77943178 293.87876771 189.45425606 293.8527832 192.1295166 C293.81635072 195.97707209 293.79936328 199.82430043 293.78613281 203.67199707 C293.77064896 204.865961 293.7551651 206.05992493 293.73921204 207.29006958 C293.6779819 215.33716104 293.6779819 215.33716104 297.07910156 222.50793457 C299.91993798 223.92835278 301.93387434 223.82245729 305.07910156 223.50793457 C307.92690775 221.27587026 308.92907822 219.95800458 310.07910156 216.50793457 C310.16737121 214.68260871 310.19673359 212.85418768 310.19262695 211.0267334 C310.19251366 209.34533012 310.19251366 209.34533012 310.19239807 207.62995911 C310.18723679 206.42051132 310.1820755 205.21106354 310.17675781 203.96496582 C310.17534286 202.72623215 310.17392792 201.48749847 310.17247009 200.21122742 C310.16781758 196.9216192 310.15883546 193.63205997 310.14776611 190.34246826 C310.13752786 186.98421834 310.1329673 183.62596124 310.12792969 180.2677002 C310.11689301 173.68108997 310.09962446 167.09452179 310.07910156 160.50793457 C304.79910156 160.50793457 299.51910156 160.50793457 294.07910156 160.50793457 Z " fill="#000000" transform="translate(161.9208984375,23.4920654296875)"/>
<path d="M0 0 C0.66128906 0.34933594 1.32257812 0.69867188 2.00390625 1.05859375 C19.32503228 11.63726804 22.32162411 39.00862275 27.17062974 56.85553455 C28.07953853 60.19800239 28.9927104 63.5393059 29.90519714 66.88079834 C31.43191112 72.47424098 32.9551552 78.06861965 34.47631836 83.66357422 C36.23416046 90.12886151 37.99783441 96.59253704 39.76448995 103.05542111 C41.47070803 109.29780706 43.17264331 115.54135307 44.87268639 121.78542328 C45.59413354 124.43487275 46.31711988 127.08389501 47.04136086 129.73258209 C48.0486385 133.4172145 49.04967193 137.10352678 50.05004883 140.79003906 C50.35076797 141.88712692 50.65148712 142.98421478 50.96131897 144.11454773 C51.23176025 145.11510696 51.50220154 146.1156662 51.78083801 147.14654541 C52.01769727 148.01659336 52.25455652 148.88664131 52.49859333 149.78305435 C53 152 53 152 53 155 C53.5661565 154.99631283 54.132313 154.99262566 54.71562576 154.98882675 C68.53943058 154.90019927 82.3631851 154.83441269 96.1872139 154.79275131 C102.87264265 154.77219182 109.55785284 154.74369264 116.24316406 154.69824219 C122.70115926 154.65461452 129.15895707 154.63082696 135.61708832 154.62049103 C138.07452244 154.61313004 140.53194641 154.59875608 142.98929596 154.57707977 C146.44524543 154.54782163 149.90039089 154.54405344 153.35644531 154.54589844 C154.36058472 154.53151733 155.36472412 154.51713623 156.39929199 154.50231934 C170.13423847 154.58108171 180.82459405 160.10380827 190.75 169.3125 C200.37265108 179.47982944 203.50079315 190.8066761 203.42407227 204.45043945 C203.23908624 210.37684352 202.29139514 214.97629162 199 220 C198.649375 220.61875 198.29875 221.2375 197.9375 221.875 C194.70757437 227.07876907 190.15914979 229.87939067 185 233 C184.01 233.66 183.02 234.32 182 235 C182.24429749 236.05663345 182.24429749 236.05663345 182.49353027 237.13461304 C184.03489437 243.81016066 185.56568578 250.48805603 187.08496857 257.16866112 C187.86620219 260.60222819 188.65133485 264.0348004 189.44580078 267.46533203 C190.36134737 271.41950769 191.25916153 275.37753305 192.15625 279.3359375 C192.5827887 281.16153702 192.5827887 281.16153702 193.01794434 283.02401733 C196.81585591 299.95752425 196.81585591 299.95752425 193.453125 305.59179688 C190.09831444 307.51760772 187.61116111 307.51778978 183.75 307.53125 C183.05487305 307.5350769 182.35974609 307.53890381 181.64355469 307.54284668 C180.17771959 307.5455618 178.71183572 307.53822835 177.24609375 307.52148438 C175.00671025 307.50006419 172.77053413 307.52129443 170.53125 307.546875 C169.10415961 307.54423165 167.67707121 307.5391065 166.25 307.53125 C164.95578125 307.52673828 163.6615625 307.52222656 162.328125 307.51757812 C159 307 159 307 156.80688477 305.51049805 C154.27279588 301.98961762 152.58203131 298.26232486 150.83984375 294.30078125 C150.45299408 293.44065933 150.06614441 292.58053741 149.66757202 291.6943512 C148.41537937 288.90425958 147.17628531 286.10856679 145.9375 283.3125 C145.08365855 281.40283004 144.22908308 279.49348811 143.3737793 277.58447266 C140.90311914 272.06193482 138.44933325 266.53202328 136 261 C135.34604505 259.52489507 134.69207497 258.04979685 134.03808594 256.57470703 C131.00423011 249.72551954 127.99803876 242.86507426 125 236 C107.84 236 90.68 236 73 236 C70.2775 242.043125 67.555 248.08625 64.75 254.3125 C63.86006348 256.28549072 62.97012695 258.25848145 62.05322266 260.29125977 C58.41950345 268.35259767 54.79851029 276.41781194 51.2734375 284.52734375 C50.72824045 285.77630778 50.18299501 287.0252507 49.63769531 288.27416992 C48.65254474 290.53782206 47.67493367 292.80477519 46.70605469 295.07543945 C46.26938477 296.07663818 45.83271484 297.07783691 45.3828125 298.109375 C45.01559082 298.96499023 44.64836914 299.82060547 44.27001953 300.70214844 C42.75690566 303.43983159 41.51591079 305.11373334 39 307 C35.671875 307.51757812 35.671875 307.51757812 31.75 307.53125 C31.05487305 307.5350769 30.35974609 307.53890381 29.64355469 307.54284668 C28.17771959 307.5455618 26.71183572 307.53822835 25.24609375 307.52148438 C23.00671025 307.50006419 20.77053413 307.52129443 18.53125 307.546875 C17.10415961 307.54423165 15.67707121 307.5391065 14.25 307.53125 C12.95578125 307.52673828 11.6615625 307.52222656 10.328125 307.51757812 C7 307 7 307 4.546875 305.59179688 C-0.00558458 297.96412786 4.00170232 287.14290757 5.84375 279.1171875 C6.13613799 277.80889163 6.42758477 276.5003851 6.71813965 275.19168091 C7.47819322 271.78003485 8.25083356 268.37136526 9.02630615 264.9631958 C9.81826324 261.47199265 10.59804044 257.97807235 11.37890625 254.484375 C12.90749167 247.65357218 14.44941748 240.82584219 16 234 C15.4529541 233.73735352 14.9059082 233.47470703 14.34228516 233.20410156 C13.62347168 232.8531543 12.9046582 232.50220703 12.1640625 232.140625 C11.09599365 231.62290527 11.09599365 231.62290527 10.00634766 231.09472656 C2.62745661 227.06857087 -2.61816085 218.82140616 -5 211 C-5.48162639 208.75859997 -5.92774154 206.50938941 -6.34553528 204.25521851 C-8.05085195 195.38889728 -10.2502176 186.66521076 -12.47143555 177.91650391 C-12.91556573 176.1556042 -13.35934197 174.39461518 -13.80279541 172.63354492 C-14.75028393 168.87316691 -15.69985703 165.11332399 -16.6510067 161.35387039 C-18.15606103 155.4034262 -19.65399048 149.45120246 -21.15058899 143.49862671 C-25.40439047 126.58325963 -29.66427103 109.66943939 -33.9387207 92.75927734 C-36.30552306 83.39571293 -38.66472607 74.030268 -41.01552802 64.66267335 C-42.49985443 58.74959909 -43.99340703 52.83895896 -45.4938606 46.92995763 C-46.42497776 43.25360772 -47.3471501 39.57505791 -48.26681519 35.89582825 C-48.69363518 34.1957932 -49.12407776 32.49666275 -49.55848122 30.79854965 C-53.7343933 14.45902426 -53.7343933 14.45902426 -53 7 C-50.31049509 2.90399379 -45.85914487 1.25507038 -41.5 -0.6875 C-40.50419922 -1.14866211 -40.50419922 -1.14866211 -39.48828125 -1.61914062 C-26.80578277 -7.40347376 -12.11865632 -6.87298202 0 0 Z M-35 15 C-33.57910975 23.58218954 -31.6138208 31.98559155 -29.5 40.41992188 C-29.14799248 41.83530784 -28.79627555 43.25076611 -28.44482422 44.66629028 C-27.49778786 48.47647995 -26.54629981 52.28554391 -25.59362793 56.09432793 C-24.7970666 59.28045296 -24.0025545 62.46708766 -23.20797729 65.65370798 C-21.33466431 73.16612545 -19.45754321 80.67758435 -17.578125 88.18847656 C-15.63990839 95.93467937 -13.70867718 103.68260068 -11.7807312 111.43136549 C-10.12204778 118.09675437 -8.45883753 124.76100256 -6.79202271 131.42436266 C-5.79779967 135.39918618 -4.805363 139.37443452 -3.81738281 143.35081482 C-2.89016298 147.08189404 -1.95731738 150.81152113 -1.02008057 154.54009628 C-0.67699843 155.90900496 -0.33592976 157.27842005 0.00299072 158.64836502 C0.46531071 160.51575017 0.93556986 162.38116447 1.40625 164.24645996 C1.66728516 165.2913131 1.92832031 166.33616623 2.19726562 167.41268158 C2.92762219 170.19826773 2.92762219 170.19826773 5 173 C5.44988281 172.49210938 5.89976563 171.98421875 6.36328125 171.4609375 C14.41848117 162.8407436 23.92737062 158.64090328 35 155 C34.2814937 148.56311452 32.63218206 142.46652211 30.93652344 136.22485352 C30.62254105 135.05649963 30.30855865 133.88814575 29.98506165 132.68438721 C29.12668254 129.4953989 28.26445076 126.30751146 27.39960384 123.12027478 C26.8582692 121.12483009 26.31789881 119.12912664 25.77780914 117.13334465 C24.08434668 110.87668771 22.3874571 104.62097534 20.68564105 98.36658531 C18.72726185 91.16916139 16.78028227 83.96878264 14.84314895 76.76561219 C13.34069403 71.18153433 11.8280854 65.600269 10.30785966 60.02100319 C9.40207213 56.69586935 8.50051217 53.36973033 7.60955048 50.04059029 C6.61468318 46.32453366 5.59877132 42.61440847 4.58105469 38.90454102 C4.14751427 37.26702126 4.14751427 37.26702126 3.70521545 35.59642029 C1.5316163 27.77260772 -1.2042235 20.35276295 -8.125 15.5625 C-9.11886719 14.85287109 -9.11886719 14.85287109 -10.1328125 14.12890625 C-17.39628713 9.73739125 -27.86031008 11.01505679 -35 15 Z M18.625 182.25 C13.25327824 189.22408194 11.28072085 196.54874201 11.6171875 205.296875 C12.37020409 210.61409418 14.84966414 213.09441645 18.9375 216.3125 C23.60320287 218.8833975 27.73929541 219.12545428 33.00750732 219.14044189 C34.21301239 219.14615204 35.41851746 219.15186218 36.66055298 219.15774536 C38.63213882 219.15942215 38.63213882 219.15942215 40.64355469 219.16113281 C42.04839202 219.16576459 43.45322811 219.17078974 44.85806274 219.17617798 C48.66816634 219.18926965 52.47825234 219.19574066 56.2883749 219.20018864 C58.67163515 219.2031247 61.05489065 219.20723052 63.4381485 219.21169281 C70.9031086 219.22535948 78.36805777 219.23503009 85.83302951 219.2388947 C94.43481566 219.24337298 103.03644271 219.2609136 111.63818049 219.2898953 C118.2973935 219.31154916 124.95656186 219.32160096 131.61580968 219.32293582 C135.58828307 219.32398123 139.56060674 219.32983263 143.53304291 219.34775543 C147.2726711 219.3643003 151.01203804 219.36636077 154.75168991 219.35761642 C156.76692361 219.35648568 158.78214889 219.3701535 160.79733276 219.3843689 C171.95183903 219.46930999 171.95183903 219.46930999 181.61265182 214.54802322 C186.0352668 209.41396657 186.35220623 205.81944112 186.2734375 199.234375 C185.5428824 190.59295187 181.41817566 183.70645717 175 178 C165.73942847 171.12021813 154.80094178 170.69560928 143.64453125 170.74121094 C142.03002579 170.73595398 142.03002579 170.73595398 140.38290405 170.73059082 C136.85936853 170.72185823 133.33603722 170.72759262 129.8125 170.734375 C127.34350547 170.73302592 124.8745112 170.73108336 122.40551758 170.72857666 C117.24460304 170.72563686 112.08375799 170.72988619 106.92285156 170.73925781 C100.3293352 170.75065155 93.73598171 170.74408595 87.14247131 170.73211288 C82.04820544 170.72486338 76.95397776 170.7271964 71.85971069 170.73236847 C69.4293923 170.73369642 66.99907036 170.73208742 64.5687561 170.72740936 C61.1642344 170.7222932 57.75997135 170.73012561 54.35546875 170.74121094 C52.86978897 170.73513824 52.86978897 170.73513824 51.35409546 170.72894287 C38.75102166 170.80442733 27.60510433 172.72973902 18.625 182.25 Z M34 235 C31.26756337 245.7574307 28.68748288 256.5334802 26.28027344 267.36816406 C25.74092411 269.79076627 25.19474848 272.21177183 24.6484375 274.6328125 C24.30167107 276.1874081 23.95530141 277.74209227 23.609375 279.296875 C23.44693298 280.01349304 23.28449097 280.73011108 23.11712646 281.46844482 C22.39116232 284.76561885 22 287.59989304 22 291 C24.31 291 26.62 291 29 291 C34.52142323 280.35162118 39.42447719 269.47346948 44.21850586 258.48168945 C45.45586101 255.64541273 46.69921473 252.81181981 47.94335938 249.97851562 C48.73211601 248.17723444 49.52054041 246.37580773 50.30859375 244.57421875 C50.6803624 243.72647385 51.05213104 242.87872894 51.43516541 242.0052948 C53.20122552 238.61452289 53.20122552 238.61452289 54 235 C47.4 235 40.8 235 34 235 Z M144 235 C148.7069351 246.58630178 153.61375021 258.05472316 158.73632812 269.46289062 C159.89822496 272.05174823 161.05477844 274.64295059 162.2109375 277.234375 C162.95021094 278.88555545 163.68978233 280.53660254 164.4296875 282.1875 C164.94678787 283.3465686 164.94678787 283.3465686 165.47433472 284.52905273 C166.85638462 288.00789512 166.85638462 288.00789512 169 291 C171.33297433 291.04092937 173.66705225 291.04241723 176 291 C175.37278143 284.3081062 174.23007569 277.89980313 172.75 271.34765625 C172.53182617 270.3663121 172.31365234 269.38496796 172.08886719 268.37388611 C171.63052845 266.31702752 171.16988381 264.26068153 170.70703125 262.20483398 C169.99687573 259.04861448 169.29476963 255.89068174 168.59375 252.73242188 C168.14630286 250.72906174 167.69840246 248.72580277 167.25 246.72265625 C167.03956055 245.77689224 166.82912109 244.83112823 166.61230469 243.85670471 C166.41540039 242.98497116 166.21849609 242.11323761 166.015625 241.21508789 C165.84321289 240.44725479 165.67080078 239.67942169 165.49316406 238.88832092 C165.051296 236.93035231 165.051296 236.93035231 164 235 C157.4 235 150.8 235 144 235 Z " fill="#000000" transform="translate(61,181)"/>
<path d="M0 0 C1.06814941 -0.0038269 2.13629883 -0.00765381 3.23681641 -0.01159668 C5.47885082 -0.0142997 7.72091766 -0.00705241 9.96289062 0.00976562 C13.36661042 0.03119717 16.76821973 0.00990732 20.171875 -0.015625 C22.36458793 -0.01298144 24.55729955 -0.00785588 26.75 0 C27.75240723 -0.00809692 28.75481445 -0.01619385 29.78759766 -0.02453613 C41.03227718 0.12243166 50.22363982 3.74970578 58.375 11.53125 C66.80186071 20.35859518 69.97333679 29.69308051 69.85449219 41.80957031 C69.61980248 47.4070546 68.52212537 50.94543875 65.375 55.53125 C64.57623695 56.24451195 64.57623695 56.24451195 63.76133728 56.97218323 C61.98228586 58.97289402 62.00260178 60.01538856 62.00610352 62.66381836 C61.99922012 63.49155258 61.99233673 64.3192868 61.98524475 65.17210388 C61.99448219 66.50810387 61.99448219 66.50810387 62.00390625 67.87109375 C61.98652507 69.75716328 61.96894068 71.64323095 61.95117188 73.52929688 C61.94109192 76.50288303 61.93750436 79.47634863 61.93920898 82.44995117 C61.9356421 85.31986545 61.90831112 88.18884544 61.87890625 91.05859375 C61.89118004 92.39155739 61.89118004 92.39155739 61.90370178 93.75144958 C61.83014917 99.84118513 61.83014917 99.84118513 59.68725586 103.09008789 C56.87545441 104.8426023 55.17764329 105.04696337 51.875 105.0625 C50.823125 105.06765625 49.77125 105.0728125 48.6875 105.078125 C47.594375 105.06265625 46.50125 105.0471875 45.375 105.03125 C43.7353125 105.05445313 43.7353125 105.05445313 42.0625 105.078125 C41.010625 105.07296875 39.95875 105.0678125 38.875 105.0625 C37.9159375 105.05798828 36.956875 105.05347656 35.96875 105.04882812 C32.49866387 104.35637871 31.51109991 103.3492973 29.375 100.53125 C28.03418595 97.91810484 26.97257964 95.22506978 25.921875 92.484375 C25.61679016 91.71317322 25.31170532 90.94197144 24.99737549 90.1473999 C24.03009292 87.69574575 23.07739599 85.23872027 22.125 82.78125 C21.4697061 81.1129054 20.81346632 79.44493198 20.15625 77.77734375 C18.55151319 73.69953025 16.95982872 69.61683963 15.375 65.53125 C14.055 65.53125 12.735 65.53125 11.375 65.53125 C10.77026855 67.09020996 10.77026855 67.09020996 10.15332031 68.68066406 C8.65058132 72.54635398 7.13401763 76.40649536 5.61328125 80.26513672 C4.95781951 81.93390862 4.30608423 83.60414932 3.65820312 85.27587891 C2.7246825 87.68270125 1.77775628 90.08387114 0.828125 92.484375 C0.54253723 93.22931213 0.25694946 93.97424927 -0.03729248 94.74176025 C-1.63454082 98.7374664 -3.02577796 101.94291547 -6.625 104.53125 C-9.21875 105.04882812 -9.21875 105.04882812 -12.125 105.0625 C-13.176875 105.06765625 -14.22875 105.0728125 -15.3125 105.078125 C-16.405625 105.06265625 -17.49875 105.0471875 -18.625 105.03125 C-20.2646875 105.05445313 -20.2646875 105.05445313 -21.9375 105.078125 C-22.989375 105.07296875 -24.04125 105.0678125 -25.125 105.0625 C-26.0840625 105.05798828 -27.043125 105.05347656 -28.03125 105.04882812 C-30.625 104.53125 -30.625 104.53125 -32.94165039 103.08349609 C-35.48931154 99.22080579 -35.13305834 95.69288917 -35.05859375 91.1640625 C-35.06820082 89.29036376 -35.07797153 87.41666586 -35.08789062 85.54296875 C-35.07929698 82.59804772 -35.06247811 79.65334527 -35.0402832 76.70849609 C-35.02573261 73.85991926 -35.04103811 71.01259529 -35.05859375 68.1640625 C-35.04211288 67.2888797 -35.02563202 66.4136969 -35.00865173 65.51199341 C-35.05850095 59.3847525 -36.29657852 56.86423864 -40.625 52.53125 C-44.33098909 45.63586424 -43.5147295 35.86268764 -41.97265625 28.35546875 C-38.57917431 18.05850853 -31.71675249 10.27407236 -22.625 4.53125 C-15.10655211 0.96479721 -8.24954481 -0.06663553 0 0 Z M-19.625 23.53125 C-24.03984917 29.14018988 -25.9836671 34.23662249 -25.9140625 41.37109375 C-25.76994742 43.74727498 -25.76994742 43.74727498 -23.8125 46.03125 C-20.04403499 48.61534029 -16.95927562 48.66503482 -12.50463867 48.69238281 C-10.6120356 48.70679413 -10.6120356 48.70679413 -8.68119812 48.72149658 C-7.30179017 48.72634503 -5.92238012 48.73062374 -4.54296875 48.734375 C-3.1267344 48.74012949 -1.71050007 48.74588719 -0.29426575 48.75164795 C2.67565269 48.76215001 5.64554413 48.76799766 8.61547852 48.77148438 C12.4117954 48.7769632 16.20775256 48.80098108 20.00395679 48.82945633 C22.93028285 48.84812798 25.85652309 48.85329073 28.78290367 48.85482025 C30.18188122 48.85783782 31.58085757 48.86583605 32.97977638 48.87900543 C34.9419298 48.89615646 36.90423218 48.89232783 38.86645508 48.88769531 C40.53832634 48.89316376 40.53832634 48.89316376 42.24397278 48.89874268 C45.85870646 48.47447675 48.27103529 47.40448989 51.375 45.53125 C53.38293434 41.51538132 52.98568958 36.64726994 51.76171875 32.40625 C48.92518995 26.00844054 43.90515963 21.38038123 37.75 18.15625 C30.46885521 16.24015927 23.2137083 16.3451059 15.74487305 16.34594727 C13.57906256 16.34376668 11.41376713 16.32559283 9.24804688 16.30664062 C-1.16636111 16.26316042 -11.36278003 16.3310583 -19.625 23.53125 Z M-18.625 64.53125 C-18.625 72.45125 -18.625 80.37125 -18.625 88.53125 C-15.5389159 87.8749383 -15.5389159 87.8749383 -14.55004883 85.62939453 C-14.23060303 84.81583496 -13.91115723 84.00227539 -13.58203125 83.1640625 C-13.23076172 82.27847656 -12.87949219 81.39289063 -12.51757812 80.48046875 C-12.16115234 79.54847656 -11.80472656 78.61648438 -11.4375 77.65625 C-11.06947266 76.73199219 -10.70144531 75.80773437 -10.32226562 74.85546875 C-8.27037111 69.84081243 -8.27037111 69.84081243 -7.625 64.53125 C-11.255 64.53125 -14.885 64.53125 -18.625 64.53125 Z M34.375 64.53125 C35.38501188 69.5813094 36.91245757 73.99756516 38.75 78.78125 C39.05421875 79.60882813 39.3584375 80.43640625 39.671875 81.2890625 C40.12433594 82.46855469 40.12433594 82.46855469 40.5859375 83.671875 C40.85712402 84.38891602 41.12831055 85.10595703 41.40771484 85.84472656 C42.32980624 87.88596878 42.32980624 87.88596878 45.375 88.53125 C45.375 80.61125 45.375 72.69125 45.375 64.53125 C41.745 64.53125 38.115 64.53125 34.375 64.53125 Z " fill="#000000" transform="translate(362.625,383.46875)"/>
<path d="M0 0 C14.01721588 9.33350638 23.97085468 24.20156056 27.42163086 40.69335938 C29.40151238 53.31219606 29.11121157 67.50101921 23.81640625 79.20947266 C23.34203125 80.28068359 22.86765625 81.35189453 22.37890625 82.45556641 C14.34856639 98.84440906 0.98598798 110.03119998 -16.18359375 116.20947266 C-33.60183722 121.26582178 -52.77725401 119.2495237 -68.60131836 110.66967773 C-84.04490388 101.72907346 -94.07252256 87.56326684 -99.30078125 70.58056641 C-103.37904977 53.39198897 -100.28313242 34.97858889 -91.54296875 19.89306641 C-81.91142203 4.27643418 -67.59470783 -4.32234663 -50.30664062 -9.3347168 C-32.96980297 -13.05687364 -14.8364328 -9.14887544 0 0 Z M-72.58984375 23.27197266 C-82.01294409 34.72750641 -84.25694514 46.62635643 -83.39501953 61.07519531 C-82.19643271 73.17455555 -75.26471978 82.90051304 -66.74609375 91.13134766 C-55.12791493 100.55340731 -41.60758259 102.50020991 -27.18359375 101.20947266 C-15.01153854 98.83443749 -4.93392898 91.766277 2.81640625 82.20947266 C10.54271369 69.53040403 12.96954667 56.24431729 10.12890625 41.68603516 C6.58416792 30.19517507 -0.82857391 19.69143787 -11.18359375 13.38134766 C-32.73169211 2.284077 -55.69231374 5.41797869 -72.58984375 23.27197266 Z " fill="#000000" transform="translate(108.18359375,33.79052734375)"/>
<path d="M0 0 C5.28 0 10.56 0 16 0 C15.88205078 2.80564453 15.88205078 2.80564453 15.76171875 5.66796875 C14.90186149 21.30061857 14.90186149 21.30061857 21.7199707 34.6184082 C24.37361801 36.96825913 27.04214862 39.04181188 30 41 C28.46356148 44.68069887 26.21849055 46.98775204 23.375 49.75 C22.14910156 50.94882813 22.14910156 50.94882813 20.8984375 52.171875 C20.27195312 52.77515625 19.64546875 53.3784375 19 54 C15.99088776 52.6511018 13.90083637 51.14834287 11.58203125 48.8125 C10.96779297 48.19632813 10.35355469 47.58015625 9.72070312 46.9453125 C8.77614258 45.98238281 8.77614258 45.98238281 7.8125 45 C6.85053711 44.03707031 6.85053711 44.03707031 5.86914062 43.0546875 C1.46767857 38.61139529 -0.11397789 36.7853307 -0.11329651 30.28463745 C-0.10813522 29.50750397 -0.10297394 28.73037048 -0.09765625 27.9296875 C-0.0962413 27.13345978 -0.09482635 26.33723206 -0.09336853 25.51687622 C-0.08776345 22.9695462 -0.07521014 20.42230353 -0.0625 17.875 C-0.05748565 16.14974085 -0.05292263 14.42448033 -0.04882812 12.69921875 C-0.03864253 8.46608496 -0.0190682 4.23314046 0 0 Z " fill="#000000" transform="translate(64,56)"/>
</svg>
