<?xml version="1.0" encoding="UTF-8"?>
<svg version="1.1" xmlns="http://www.w3.org/2000/svg" width="512" height="512">
<path d="M0 0 C1.21042969 -0.01740234 1.21042969 -0.01740234 2.4453125 -0.03515625 C10.63439069 0.00472562 16.473645 2.473645 22.375 8.375 C27.02209136 15.53152069 26.95861819 21.86851266 26.8125 30.25 C26.8022731 31.25475876 26.8022731 31.25475876 26.7918396 32.27981567 C26.21572688 87.76183388 18.869463 156.18725347 -15.625 201.375 C-16.33140625 202.31214844 -17.0378125 203.24929688 -17.765625 204.21484375 C-22.80969732 210.64339046 -28.39120502 216.10425477 -34.625 221.375 C-32.58904308 229.12173628 -30.27665111 236.74430402 -27.796875 244.359375 C-27.07216642 246.61564458 -26.34823053 248.87216246 -25.625 251.12890625 C-24.49742461 254.64223008 -23.36557058 258.15389055 -22.22070312 261.66162109 C-21.1075969 265.07752529 -20.01319512 268.49895816 -18.921875 271.921875 C-18.40327911 273.48926422 -18.40327911 273.48926422 -17.87420654 275.08831787 C-16.12449666 280.63505812 -15.04810541 284.70237434 -16.625 290.375 C-18.98993426 293.19472931 -20.4530665 293.35350831 -24.125 293.8125 C-28.28663827 293.29229522 -29.01892684 292.54397199 -31.625 289.375 C-32.78936768 286.74349976 -32.78936768 286.74349976 -33.73144531 283.72021484 C-34.09151672 282.58578949 -34.45158813 281.45136414 -34.8225708 280.28256226 C-35.38219513 278.452733 -35.38219513 278.452733 -35.953125 276.5859375 C-36.34699402 275.33116608 -36.74086304 274.07639465 -37.14666748 272.78359985 C-37.97770935 270.13470351 -38.80069017 267.48349321 -39.6171875 264.83007812 C-40.664733 261.42591238 -41.725545 258.02607926 -42.79152298 254.62764549 C-43.80793422 251.38588211 -44.8182565 248.14224569 -45.828125 244.8984375 C-46.20930481 243.67450287 -46.59048462 242.45056824 -46.98321533 241.18954468 C-47.3306781 240.06142365 -47.67814087 238.93330261 -48.03613281 237.77099609 C-48.34383606 236.77490326 -48.65153931 235.77881042 -48.96856689 234.75253296 C-49.625 232.375 -49.625 232.375 -49.625 230.375 C-50.34558594 230.73851562 -51.06617188 231.10203125 -51.80859375 231.4765625 C-59.83723379 235.2354696 -67.87375399 237.63798618 -76.5 239.6875 C-77.56919678 239.94160645 -78.63839355 240.19571289 -79.73999023 240.45751953 C-90.8600662 243.01160365 -101.50463187 243.60898496 -112.875 243.625 C-113.62779236 243.62733643 -114.38058472 243.62967285 -115.15618896 243.63208008 C-127.27915485 243.64628126 -138.68196445 242.64986391 -150.625 240.375 C-152.935 247.305 -155.245 254.235 -157.625 261.375 C-155.09610107 261.35928955 -152.56720215 261.3435791 -149.96166992 261.32739258 C-141.61572378 261.27773219 -133.26977119 261.24456524 -124.92371655 261.21956348 C-119.86239509 261.20389287 -114.80122472 261.18262913 -109.73999023 261.14868164 C-104.85761844 261.11613797 -99.97539217 261.09815751 -95.0929203 261.09036827 C-93.22813945 261.08481578 -91.36336676 261.07397338 -89.49864769 261.05780983 C-86.89109318 261.03610178 -84.28414368 261.03303027 -81.67651367 261.03442383 C-80.51449936 261.01824509 -80.51449936 261.01824509 -79.32901001 261.0017395 C-74.12326189 261.03193795 -74.12326189 261.03193795 -71.6764679 262.71659851 C-70.04429596 265.29090094 -69.74628259 267.34293527 -69.625 270.375 C-70.8007413 273.09776932 -71.78174095 274.78119363 -74.2164917 276.49569702 C-77.75604623 277.78792459 -81.2523651 277.68366937 -84.97363281 277.69384766 C-85.81302399 277.70389328 -86.65241516 277.7139389 -87.51724243 277.72428894 C-90.28752975 277.7551423 -93.05772033 277.77216206 -95.828125 277.7890625 C-97.7505578 277.80777241 -99.67298237 277.82734569 -101.59539795 277.8477478 C-106.65221305 277.89909364 -111.70905479 277.93870629 -116.76599121 277.97589111 C-121.92739463 278.01591535 -127.08868702 278.06701491 -132.25 278.1171875 C-142.37492204 278.21397584 -152.49990673 278.29837138 -162.625 278.375 C-162.86734375 279.20644531 -163.1096875 280.03789062 -163.359375 280.89453125 C-163.86210938 282.52455078 -163.86210938 282.52455078 -164.375 284.1875 C-164.86226563 285.80591797 -164.86226563 285.80591797 -165.359375 287.45703125 C-166.7261357 290.60817397 -167.64646998 291.74016773 -170.625 293.375 C-174.54078329 293.86447291 -176.70647594 293.96379747 -180.0625 291.8125 C-182.18631051 288.49935561 -181.97062567 286.2460075 -181.625 282.375 C-181.295 281.055 -180.965 279.735 -180.625 278.375 C-208.015 278.045 -235.405 277.715 -263.625 277.375 C-262.965 279.355 -262.305 281.335 -261.625 283.375 C-261.83016304 289.42730978 -261.83016304 289.42730978 -264.25 292.3125 C-267.60182053 293.81199866 -269.99480218 293.82877473 -273.625 293.375 C-277.625 289.375 -277.625 289.375 -280.625 277.375 C-340.52 277.87 -340.52 277.87 -401.625 278.375 C-402.945 282.335 -404.265 286.295 -405.625 290.375 C-410.04210004 293.68782503 -411.30771312 294.03966086 -416.625 293.375 C-419.0625 291.875 -419.0625 291.875 -420.625 289.375 C-421.03109903 283.41141983 -420.14176423 278.77011225 -418.21875 273.15625 C-417.97459351 272.41290405 -417.73043701 271.66955811 -417.47888184 270.90368652 C-416.70529147 268.55696017 -415.91548871 266.21608126 -415.125 263.875 C-414.59396578 262.27379736 -414.06400736 260.67223751 -413.53515625 259.0703125 C-412.24416501 255.16763712 -410.93861676 251.27011506 -409.625 247.375 C-410.70966553 247.1181543 -411.79433105 246.86130859 -412.91186523 246.59667969 C-414.35668448 246.24706041 -415.80142309 245.89710778 -417.24609375 245.546875 C-417.95842163 245.37913574 -418.67074951 245.21139648 -419.40466309 245.03857422 C-430.42606424 242.34564798 -438.6828905 237.22912689 -444.78515625 227.53125 C-446.64220493 222.76338547 -446.13048668 217.38618277 -445.625 212.375 C-443.49026742 207.86834232 -440.70677871 205.2008468 -436.625 202.375 C-433.87421116 201.45807039 -432.26551087 201.26613917 -429.4375 201.3125 C-428.179375 201.333125 -426.92125 201.35375 -425.625 201.375 C-425.68646802 193.57679207 -425.76375628 185.77891084 -425.86071491 177.98107243 C-425.90526116 174.35939361 -425.94455073 170.7378232 -425.97143555 167.1159668 C-425.9976273 163.61441593 -426.0381384 160.11328585 -426.08818626 156.6119976 C-426.11275634 154.63979031 -426.12285851 152.66741968 -426.13264465 150.69508362 C-426.24143416 143.98669233 -426.3793503 137.41907616 -429.625 131.375 C-431.88196427 129.78887499 -431.88196427 129.78887499 -434.625 129.375 C-435.51832031 129.03984375 -436.41164063 128.7046875 -437.33203125 128.359375 C-446.00802357 125.76583993 -455.51206437 126.47455018 -463.625 130.375 C-464.615 130.705 -465.605 131.035 -466.625 131.375 C-468.45683151 134.86353677 -468.87993676 137.81867912 -468.9034729 141.72175598 C-468.91463638 142.78039856 -468.92579987 143.83904114 -468.93730164 144.92976379 C-468.93946182 146.08062973 -468.94162201 147.23149567 -468.94384766 148.41723633 C-468.95389328 149.63716278 -468.9639389 150.85708923 -468.97428894 152.11398315 C-468.99985034 155.45039457 -469.01672397 158.78663655 -469.02971697 162.12310624 C-469.0453685 165.61318165 -469.07215225 169.10317133 -469.0977478 172.59318542 C-469.14449986 179.19806451 -469.18126121 185.80295979 -469.21442068 192.40791959 C-469.25266736 199.92910626 -469.30207083 207.45020676 -469.35240483 214.97132075 C-469.45567152 230.4391515 -469.54494897 245.90703062 -469.625 261.375 C-468.52510742 261.34881592 -467.42521484 261.32263184 -466.29199219 261.2956543 C-462.20707582 261.20508122 -458.12224797 261.14772567 -454.03662109 261.1003418 C-452.26921662 261.07521359 -450.5019159 261.04110484 -448.73486328 260.99780273 C-446.19277351 260.93707265 -443.65205835 260.90877485 -441.109375 260.88671875 C-439.92634796 260.84800911 -439.92634796 260.84800911 -438.71942139 260.80851746 C-434.80026126 260.80651859 -433.0362755 260.99004195 -430.12597656 263.71411133 C-428.29347784 266.96271309 -427.99975084 268.70166119 -428.625 272.375 C-430.85706431 275.22280619 -432.17492999 276.22497666 -435.625 277.375 C-437.05590466 277.47560382 -438.49091395 277.52324456 -439.92529297 277.53613281 C-440.789841 277.54574036 -441.65438904 277.5553479 -442.5451355 277.56524658 C-443.47641266 277.56949646 -444.40768982 277.57374634 -445.3671875 277.578125 C-446.32771027 277.58382507 -447.28823303 277.58952515 -448.27786255 277.59539795 C-450.31039326 277.60484458 -452.34293927 277.61138059 -454.37548828 277.61523438 C-457.48106657 277.62494082 -460.58598326 277.65596786 -463.69140625 277.6875 C-465.66666274 277.69403017 -467.64192396 277.69928059 -469.6171875 277.703125 C-470.5444162 277.7154718 -471.4716449 277.7278186 -472.42697144 277.74053955 C-477.80429941 277.72200841 -481.62440577 277.37559423 -485.625 273.375 C-485.73015296 271.57095369 -485.76466222 269.76276587 -485.77217102 267.95567322 C-485.77932632 266.77946411 -485.78648163 265.603255 -485.79385376 264.3914032 C-485.79654266 263.0891127 -485.79923157 261.7868222 -485.80200195 260.44506836 C-485.80826407 259.06875434 -485.81491064 257.69244203 -485.82191467 256.31613159 C-485.83935497 252.56577917 -485.84988597 248.81543953 -485.8581202 245.06505656 C-485.86326694 242.7213581 -485.86934301 240.37766363 -485.87563133 238.03396797 C-485.89469708 230.69981363 -485.90892182 223.36566941 -485.9172433 216.03149503 C-485.92700343 207.56884089 -485.95328486 199.10644918 -485.99374419 190.64388746 C-486.02394135 184.10281751 -486.03871582 177.56182258 -486.04202431 171.0206843 C-486.04437193 167.11463805 -486.05329333 163.20887169 -486.07848549 159.30290031 C-486.10183262 155.62318815 -486.10597313 151.94393874 -486.09572411 148.2641716 C-486.09499558 146.27850625 -486.11404306 144.29286406 -486.13378906 142.30729675 C-486.07510272 132.19962738 -483.8589272 125.77333463 -476.625 118.375 C-470.84179223 113.72730791 -463.1441471 110.375 -455.625 110.375 C-455.64071045 109.29605469 -455.6564209 108.21710938 -455.67260742 107.10546875 C-455.72722899 103.07250541 -455.7614664 99.03957427 -455.78979492 95.00634766 C-455.80480854 93.26638272 -455.82522577 91.52645516 -455.85131836 89.78662109 C-455.88803107 87.2743198 -455.90480069 84.7625222 -455.91796875 82.25 C-455.93345261 81.48196045 -455.94893646 80.7139209 -455.96488953 79.92260742 C-455.96727653 72.12547272 -453.70163049 65.7376306 -448.34375 59.97265625 C-438.09641398 50.44729163 -425.34972885 49.85581271 -412.0612793 49.92895508 C-409.66696055 49.93757394 -407.27495019 49.90843184 -404.88085938 49.87695312 C-403.34895904 49.87534332 -401.81705451 49.8759144 -400.28515625 49.87890625 C-399.21951195 49.86205528 -399.21951195 49.86205528 -398.13233948 49.84486389 C-394.759829 49.89244462 -392.91612564 50.15977984 -390.17358398 52.18725586 C-387.92359842 55.36589698 -388.14989075 57.57412599 -388.625 61.375 C-390.38515131 64.5600357 -391.12390916 65.20796972 -394.625 66.375 C-396.88741001 66.4916321 -399.15278455 66.55364755 -401.41796875 66.5859375 C-402.78451676 66.61402668 -404.15105305 66.64269126 -405.51757812 66.671875 C-407.65892953 66.71293733 -409.8000669 66.74984603 -411.94165039 66.77636719 C-419.6821618 66.88039909 -426.52903662 66.99596982 -433.625 70.375 C-434.615 70.705 -435.605 71.035 -436.625 71.375 C-438.97909766 75.51545386 -438.88693942 79.66709056 -438.8203125 84.30078125 C-438.81606766 85.42216743 -438.81606766 85.42216743 -438.81173706 86.56620789 C-438.80059469 88.9401388 -438.77550162 91.31368425 -438.75 93.6875 C-438.73996249 95.3027289 -438.73083799 96.91796376 -438.72265625 98.53320312 C-438.70067489 102.48061594 -438.66618657 106.42774274 -438.625 110.375 C-437.74457031 110.62604492 -436.86414063 110.87708984 -435.95703125 111.13574219 C-434.79558594 111.47766602 -433.63414062 111.81958984 -432.4375 112.171875 C-430.71466797 112.67219238 -430.71466797 112.67219238 -428.95703125 113.18261719 C-421.94237598 115.69284406 -416.18507892 120.47339049 -412.64208984 127.07202148 C-408.60037012 136.22361585 -409.38007117 146.77019824 -409.5 156.5625 C-409.51005821 158.00585311 -409.519179 159.44921306 -409.52734375 160.89257812 C-409.54911309 164.38686394 -409.58348325 167.88088637 -409.625 171.375 C-408.69569388 171.36946924 -408.69569388 171.36946924 -407.74761391 171.36382675 C-392.63932934 171.2753038 -377.53112492 171.20920713 -362.42264748 171.16775131 C-355.1161426 171.14716822 -347.80981136 171.11912966 -340.50341797 171.07324219 C-334.13157922 171.03324339 -327.75986629 171.0075363 -321.38790548 170.99864602 C-318.01717949 170.99345315 -314.64681328 170.98133851 -311.27620316 170.95207977 C-307.50374496 170.92293384 -303.7320258 170.91904887 -299.95947266 170.92089844 C-298.85463531 170.90651733 -297.74979797 170.89213623 -296.61148071 170.87731934 C-290.23324474 170.91103329 -285.53482658 171.78964933 -279.81610203 174.68362045 C-276.96823516 175.58223534 -275.7696724 174.97279115 -273.14770508 173.65820312 C-272.41218414 173.25674072 -271.67666321 172.85527832 -270.91885376 172.44165039 C-266.8460765 170.54779406 -262.68240676 170.80413064 -258.26171875 170.84375 C-256.83011162 170.83800964 -256.83011162 170.83800964 -255.36958313 170.83215332 C-253.36869236 170.82944937 -251.36776532 170.83670335 -249.36694336 170.85351562 C-246.30307963 170.87506626 -243.241529 170.8536015 -240.17773438 170.828125 C-238.22655734 170.83076623 -236.27538173 170.83588695 -234.32421875 170.84375 C-233.41065109 170.83565308 -232.49708344 170.82755615 -231.55583191 170.81921387 C-225.28292246 170.91209365 -225.28292246 170.91209365 -222.04614258 173.18945312 C-219.96703896 176.38686519 -220.15876889 178.64515112 -220.625 182.375 C-221.97115092 184.93268675 -222.71628331 186.08732307 -225.49095154 186.9657135 C-229.03659776 187.64572858 -232.62384789 187.57420381 -236.22265625 187.62109375 C-237.92773987 187.65401361 -239.63281787 187.68722556 -241.33789062 187.72070312 C-244.01957577 187.76821669 -246.70123516 187.81270029 -249.38305664 187.85180664 C-251.97565398 187.89145897 -254.56780435 187.94299661 -257.16015625 187.99609375 C-257.96332779 188.0045079 -258.76649933 188.01292206 -259.5940094 188.02159119 C-263.43921402 188.10718175 -265.35321649 188.19381099 -268.625 190.375 C-269.20848752 193.0306728 -269.20848752 193.0306728 -269.3125 196 C-269.37824219 197.00289062 -269.44398438 198.00578125 -269.51171875 199.0390625 C-269.56779297 200.19535156 -269.56779297 200.19535156 -269.625 201.375 C-268.73361328 201.33572388 -268.73361328 201.33572388 -267.82421875 201.2956543 C-265.09142258 201.19073065 -262.35905142 201.12637971 -259.625 201.0625 C-258.22314453 200.9996582 -258.22314453 200.9996582 -256.79296875 200.93554688 C-250.20479031 200.82036893 -245.61169404 201.89879074 -240.625 206.375 C-237.00322942 211.20590595 -235.95589916 215.92428592 -236.25 221.92578125 C-237.3024108 228.79933931 -240.91524555 233.44448799 -246.22265625 237.7734375 C-254.20591452 243.09560968 -264.02006689 246.375 -273.625 246.375 C-271.975 250.995 -270.325 255.615 -268.625 260.375 C-222.095 260.87 -222.095 260.87 -174.625 261.375 C-173.14 255.93 -173.14 255.93 -171.625 250.375 C-170.74500545 247.4722574 -169.85641318 244.57749583 -168.9375 241.6875 C-168.71255859 240.97400391 -168.48761719 240.26050781 -168.25585938 239.52539062 C-167.71413088 237.80799602 -167.16985625 236.09140486 -166.625 234.375 C-167.2953125 234.28089844 -167.965625 234.18679688 -168.65625 234.08984375 C-184.57602677 230.25652908 -200.66862647 218.04143942 -209.5 204.5 C-211.93886467 197.7253759 -212.40832945 191.32180822 -209.765625 184.546875 C-206.73193924 178.77040485 -202.9062741 174.52428485 -196.81375122 172.00213623 C-192.37410397 170.73005761 -187.80407144 171.01353755 -183.22265625 171.08203125 C-182.14495468 171.08627609 -181.06725311 171.09052094 -179.95689392 171.09489441 C-176.53350254 171.11161281 -173.1107118 171.14925317 -169.6875 171.1875 C-167.35873249 171.20255564 -165.02995571 171.2162425 -162.70117188 171.22851562 C-157.00891156 171.26149392 -151.31699871 171.31162517 -145.625 171.375 C-145.64594727 170.27099854 -145.66689453 169.16699707 -145.68847656 168.02954102 C-145.76137607 163.89783923 -145.8069796 159.76619323 -145.84472656 155.6340332 C-145.86472905 153.85236014 -145.89194023 152.07075177 -145.92675781 150.28930664 C-146.28832377 131.3017765 -146.28832377 131.3017765 -141.625 124.375 C-141.026875 123.4675 -140.42875 122.56 -139.8125 121.625 C-133.33725564 114.96474865 -126.53718563 112.60616256 -117.625 110.375 C-116.965 110.375 -116.305 110.375 -115.625 110.375 C-115.69427899 106.08774024 -115.7824346 101.80139105 -115.88745117 97.51489258 C-115.92052983 96.05927006 -115.94861397 94.60352453 -115.97143555 93.14770508 C-116.00529921 91.04455564 -116.0576236 88.94251625 -116.11328125 86.83984375 C-116.15255737 84.94673462 -116.15255737 84.94673462 -116.19262695 83.01538086 C-116.73315061 78.46442191 -117.78443075 74.0404803 -121.30859375 70.8515625 C-126.39944772 68.37983384 -130.16984566 67.25300098 -135.79766846 67.23455811 C-136.84337509 67.22884796 -137.88908173 67.22313782 -138.96647644 67.21725464 C-140.10836929 67.21613678 -141.25026215 67.21501892 -142.42675781 67.21386719 C-143.6336879 67.20890228 -144.84061798 67.20393738 -146.0841217 67.19882202 C-149.39218391 67.18672462 -152.70018298 67.17925802 -156.00825977 67.17481136 C-158.07742648 67.17187599 -160.14658771 67.16777028 -162.21575165 67.16330719 C-168.69666907 67.14963821 -175.17757389 67.13996902 -181.65850472 67.1361053 C-189.12665126 67.13162796 -196.59461447 67.11409277 -204.06270528 67.0851047 C-209.84375862 67.06344811 -215.62476053 67.05339888 -221.40585399 67.05206418 C-224.85461786 67.05101885 -228.30320926 67.04516965 -231.75193024 67.02724457 C-235.60323424 67.00761603 -239.45431136 67.0120687 -243.30566406 67.01855469 C-244.43945999 67.0093399 -245.57325592 67.00012512 -246.7414093 66.9906311 C-253.53397235 67.02642044 -259.69616152 67.16398348 -265.19934177 71.66170025 C-268.71388743 75.36674249 -269.25011355 78.4372061 -269.25268555 83.40258789 C-269.26359222 84.41597984 -269.26359222 84.41597984 -269.27471924 85.44984436 C-269.2932088 87.6663258 -269.27728785 89.88117603 -269.26171875 92.09765625 C-269.269765 93.64653455 -269.28028665 95.19540179 -269.29316711 96.74424744 C-269.32165882 100.81127136 -269.32230108 104.87778506 -269.31530762 108.94488525 C-269.30797232 115.45719076 -269.33938444 121.96933237 -269.37775612 128.48150444 C-269.38658609 130.75105937 -269.38131392 133.02025618 -269.37419128 135.28981018 C-269.37757675 136.68547665 -269.38132631 138.0811423 -269.38549805 139.47680664 C-269.38286201 141.29831993 -269.38286201 141.29831993 -269.38017273 143.15663147 C-269.62498987 146.37486688 -270.10846887 148.53749631 -271.625 151.375 C-275.3455836 153.85538907 -277.22296571 153.83837203 -281.625 153.375 C-284.6276405 151.1822736 -285.52613969 149.9877077 -286.12379456 146.28361511 C-286.12362839 145.07006851 -286.12346222 143.85652191 -286.12329102 142.60620117 C-286.13156921 141.59806618 -286.13156921 141.59806618 -286.14001465 140.56956482 C-286.1493217 139.11384689 -286.14945041 137.65804754 -286.14142036 136.20232201 C-286.12877236 133.89352809 -286.14009642 131.58592675 -286.15745544 129.2771759 C-286.18416218 125.20438613 -286.18975133 121.13188886 -286.18835449 117.059021 C-286.18612705 110.55122136 -286.20039331 104.04378552 -286.24394035 97.53612709 C-286.25373575 95.26991583 -286.24508209 93.0042818 -286.23524475 90.73808289 C-286.24139395 89.33604564 -286.24830734 87.93401147 -286.25610352 86.53198242 C-286.25514175 85.31604904 -286.25417999 84.10011566 -286.25318909 82.84733582 C-286.73494308 78.34824346 -287.83431849 73.99533825 -291.30859375 70.8515625 C-296.98203935 68.09697198 -300.96409492 67.25184713 -307.2578125 67.20141602 C-308.2439151 67.1913855 -308.2439151 67.1913855 -309.24993896 67.18115234 C-310.67293474 67.16713897 -312.0959525 67.1552332 -313.51898193 67.14520454 C-315.77201374 67.12874543 -318.02488204 67.10550739 -320.27783203 67.08030701 C-326.68188288 67.00965505 -333.08599869 66.94936802 -339.49023438 66.89819336 C-343.41122828 66.8663874 -347.33203028 66.82511385 -351.25286865 66.77799797 C-352.74555004 66.76199478 -354.23827553 66.74966543 -355.73101807 66.74109077 C-357.81827279 66.72892447 -359.90507655 66.7047716 -361.9921875 66.67797852 C-363.17925293 66.66767105 -364.36631836 66.65736359 -365.58935547 66.64674377 C-368.52113171 66.38429805 -370.18298524 65.96622021 -372.625 64.375 C-374.7065902 61.69866974 -374.62087591 60.25746332 -374.5 56.8125 C-373.625 53.375 -373.625 53.375 -371.9931488 51.68540955 C-368.82269468 49.93104625 -366.47787128 49.98706096 -362.85961914 49.97094727 C-362.18741333 49.96408401 -361.51520752 49.95722076 -360.82263184 49.95014954 C-358.60159093 49.93186324 -356.38125631 49.93572591 -354.16015625 49.94140625 C-352.60517652 49.93684085 -351.05019881 49.93153421 -349.495224 49.92552185 C-346.2310265 49.91658385 -342.96707346 49.91901636 -339.70288086 49.92895508 C-335.55399938 49.94036587 -331.40597909 49.9203599 -327.25721073 49.89103794 C-324.04061146 49.8725208 -320.82421187 49.87300026 -317.60757256 49.87867546 C-316.08041628 49.87882722 -314.55324517 49.87290512 -313.02614021 49.86038399 C-299.91673129 49.76814619 -288.54974027 51.66341863 -277.625 59.375 C-276.2946875 58.26125 -276.2946875 58.26125 -274.9375 57.125 C-265.95744579 50.76873854 -255.19387665 49.78150397 -244.51367188 49.85742188 C-243.27444473 49.8504126 -242.03521759 49.84340332 -240.75843811 49.83618164 C-237.40065013 49.82172461 -234.04386521 49.82492604 -230.68613625 49.83769798 C-227.14617345 49.84793697 -223.60624894 49.83840246 -220.06628418 49.83215332 C-214.12533011 49.82490821 -208.18457595 49.83438149 -202.24365234 49.85351562 C-195.40828472 49.87527849 -188.57339461 49.86822487 -181.73803854 49.84621 C-175.83354702 49.82796581 -169.92919793 49.82554138 -164.02468729 49.83596468 C-160.5138509 49.84215046 -157.00323777 49.84317299 -153.49241638 49.82981873 C-149.57353648 49.81594926 -145.65517688 49.83525621 -141.73632812 49.85742188 C-140.02770348 49.84527649 -140.02770348 49.84527649 -138.28456116 49.83288574 C-128.04071814 49.93942548 -117.38797152 51.84518993 -109.33984375 58.6171875 C-99.15653993 69.05565383 -99.29095519 81.2095675 -99 94.9375 C-98.96174154 96.43817176 -98.92268549 97.9388234 -98.8828125 99.43945312 C-98.78767804 103.08444944 -98.70334092 106.72959954 -98.625 110.375 C-97.73079346 110.63764648 -96.83658691 110.90029297 -95.9152832 111.17089844 C-94.74312256 111.5218457 -93.57096191 111.87279297 -92.36328125 112.234375 C-90.61978394 112.75209473 -90.61978394 112.75209473 -88.84106445 113.28027344 C-85.17199228 114.52920076 -82.62797085 115.97262332 -79.625 118.375 C-79.49279053 117.39418457 -79.49279053 117.39418457 -79.35791016 116.39355469 C-78.37728735 112.35477373 -76.672503 108.82482153 -74.8984375 105.078125 C-74.51868774 104.26443954 -74.13893799 103.45075409 -73.74768066 102.6124115 C-72.92948083 100.86058084 -72.10886049 99.10987905 -71.28607178 97.36019897 C-69.10694793 92.7256697 -66.94561999 88.08283882 -64.78125 83.44140625 C-64.34400604 82.50512894 -63.90676208 81.56885162 -63.45626831 80.60420227 C-59.73530376 72.6310469 -56.06837232 64.63427703 -52.43417358 56.62124634 C-51.50596299 54.57564133 -50.57510887 52.53125603 -49.64379883 50.48706055 C-47.03846402 44.76014106 -44.45846706 39.02578 -41.98046875 33.2421875 C-36.3783759 20.21656897 -30.51972302 8.32220462 -16.67382812 2.56347656 C-11.0325145 0.47821409 -5.98491886 -0.08687785 0 0 Z M-11.8125 18.3125 C-12.58980469 18.67214844 -13.36710937 19.03179687 -14.16796875 19.40234375 C-23.00504725 26.49729549 -26.99096894 39.33163336 -31.5625 49.375 C-32.40937409 51.22066194 -33.25687606 53.0660359 -34.10498047 54.91113281 C-36.62223124 60.39428526 -39.12507264 65.8839324 -41.625 71.375 C-42.31553611 72.88999964 -43.00612508 74.40497519 -43.69677734 75.91992188 C-46.15066583 81.30483631 -48.60124721 86.69123295 -51.04272461 92.08178711 C-54.36918863 99.42508573 -57.71465115 106.7591868 -61.0859375 114.08203125 C-61.46448883 114.9044632 -61.84304016 115.72689514 -62.23306274 116.57424927 C-64.06279386 120.54826291 -65.89456042 124.52132364 -67.72900391 128.49316406 C-68.40293569 129.95495533 -69.07660556 131.41686737 -69.75 132.87890625 C-70.07607742 133.58598221 -70.40215485 134.29305817 -70.7381134 135.02156067 C-72.37548639 138.58890436 -73.97712712 142.16741938 -75.52368164 145.77514648 C-75.83092163 146.49020859 -76.13816162 147.20527069 -76.45471191 147.94200134 C-77.02668915 149.28027365 -77.59343164 150.62080283 -78.15344238 151.96412659 C-80.5311225 157.53397207 -83.62431363 162.28484824 -87.12109375 167.21484375 C-88.72022814 169.07309704 -88.72022814 169.07309704 -88.625 170.375 C-78.87070106 169.8330945 -70.26250985 165.57206737 -63.625 158.375 C-57.30447058 149.53165395 -53.18721759 139.15051177 -48.6875 129.3125 C-47.84042708 127.47148612 -46.99292766 125.63066842 -46.14501953 123.79003906 C-40.45776804 111.43065873 -34.81443342 99.05091435 -29.20288086 86.65698242 C-25.90467563 79.37440406 -22.58479635 72.10247429 -19.234375 64.84375 C-11.81840912 48.77336008 -4.42935497 32.71708329 2.375 16.375 C-4.93150677 16.08072129 -4.93150677 16.08072129 -11.8125 18.3125 Z M9.375 39.375 C1.1824361 56.73831817 -6.92150999 74.13700378 -14.84033203 91.62695312 C-18.22893668 99.10959521 -21.63294611 106.5846892 -25.06640625 114.046875 C-25.441604 114.86235306 -25.81680176 115.67783112 -26.20336914 116.51802063 C-28.01373595 120.45128243 -29.82600194 124.38366038 -31.64013672 128.31518555 C-32.31105858 129.77123584 -32.98179654 131.22737088 -33.65234375 132.68359375 C-33.97862762 133.39131424 -34.3049115 134.09903473 -34.64108276 134.82820129 C-36.38460041 138.62383119 -38.09600652 142.43119197 -39.77050781 146.2578125 C-40.30207237 147.46969994 -40.30207237 147.46969994 -40.84437561 148.70606995 C-41.51754076 150.24555668 -42.18649856 151.78689316 -42.85032654 153.33042908 C-49.05725347 167.52652435 -59.22285739 177.53821733 -73.625 183.375 C-82.38852344 186.35623601 -91.70366288 186.52218427 -100.87060547 186.53271484 C-101.85221146 186.53779556 -102.83381744 186.54287628 -103.84516907 186.54811096 C-105.95999153 186.55874829 -108.07482477 186.56739403 -110.18966293 186.57423019 C-113.53495801 186.58608912 -116.88012802 186.60555424 -120.22537231 186.62734985 C-129.73060996 186.68877021 -139.23582921 186.74316804 -148.74121094 186.77636719 C-154.56774248 186.79725965 -160.39403624 186.83250248 -166.22043228 186.87712479 C-168.4396295 186.89131 -170.65886868 186.90001288 -172.87810898 186.90317917 C-175.97091564 186.90806408 -179.0630839 186.93115394 -182.15576172 186.95849609 C-183.07526108 186.95548996 -183.99476044 186.95248383 -184.94212341 186.9493866 C-185.78307053 186.96047958 -186.62401764 186.97157257 -187.490448 186.98300171 C-188.22080198 186.98631186 -188.95115597 186.989622 -189.70364189 186.99303246 C-192.17445562 187.48423222 -193.0485098 188.45331846 -194.625 190.375 C-195.73046369 192.12492715 -195.73046369 192.12492715 -195.625 194.375 C-190.89258507 206.44265807 -176.92373771 213.35428485 -165.625 218.375 C-149.26828582 225.07418122 -132.36518629 227.60968782 -114.8125 227.625 C-113.7732991 227.62601212 -113.7732991 227.62601212 -112.71310425 227.62704468 C-101.77960857 227.61013859 -91.26056418 227.07440874 -80.625 224.375 C-79.62073975 224.12556641 -79.62073975 224.12556641 -78.59619141 223.87109375 C-53.80918223 217.48055426 -35.08261107 203.7219344 -21.95532227 181.5690918 C1.33840517 140.37613651 10.83438529 86.4377158 10.375 39.375 C10.045 39.375 9.715 39.375 9.375 39.375 Z M-126.81640625 131.875 C-131.80958075 137.88096671 -130.23279023 146.94886189 -130 154.3125 C-129.96987269 155.96674852 -129.94250173 157.62104968 -129.91796875 159.27539062 C-129.85216553 163.30990202 -129.74880332 167.34186868 -129.625 171.375 C-117.94689815 170.52205619 -107.56316999 167.49316823 -99.625 158.375 C-94.26417208 151.11446122 -91.00044914 142.68195639 -87.625 134.375 C-94.07046406 127.65455881 -98.97656652 126.20915902 -108.125 126 C-115.46056092 126.18211422 -121.18619884 126.77381129 -126.81640625 131.875 Z M-409.625 187.375 C-409.625 191.995 -409.625 196.615 -409.625 201.375 C-368.705 201.375 -327.785 201.375 -285.625 201.375 C-285.15065835 193.27097867 -285.15065835 193.27097867 -286.625 189.375 C-289.61918103 187.36904497 -292.07194555 187.12699778 -295.62371826 187.13449097 C-296.63050125 187.13174164 -297.63728424 187.12899231 -298.67457581 187.12615967 C-300.32211098 187.1369455 -300.32211098 187.1369455 -302.00292969 187.14794922 C-303.74481819 187.14751114 -303.74481819 187.14751114 -305.52189636 187.14706421 C-309.36363168 187.14845852 -313.20517352 187.1640248 -317.046875 187.1796875 C-319.70917082 187.18341727 -322.3714559 187.18636278 -325.03375244 187.18826294 C-331.32707001 187.19447721 -337.62031802 187.2108873 -343.91360497 187.23096192 C-351.07921061 187.25332257 -358.24481957 187.26431476 -365.41045141 187.27435279 C-380.14867066 187.29525358 -394.88683182 187.33083177 -409.625 187.375 Z M-429.625 217.375 C-429.12009585 222.24914571 -429.12009585 222.24914571 -426.5625 224.5 C-411.57420032 234.0669998 -391.25980066 231.67108456 -374.28125 231.640625 C-371.62194594 231.64197471 -368.9626474 231.64391555 -366.30334473 231.64642334 C-360.74924702 231.65004248 -355.19520283 231.64531824 -349.64111328 231.63574219 C-343.25745366 231.6248616 -336.8739219 231.62838865 -330.49026537 231.639395 C-324.96877987 231.64852685 -319.44733243 231.64972457 -313.92584181 231.64451766 C-310.64587458 231.64143012 -307.36597917 231.64170637 -304.08601379 231.64759064 C-277.84421566 232.82857574 -277.84421566 232.82857574 -254.5625 222.8125 C-252.31387794 220.50254332 -252.31387794 220.50254332 -252.625 217.375 C-311.035 217.375 -369.445 217.375 -429.625 217.375 Z M-392.625 247.375 C-393.29531719 249.3320868 -393.96114683 251.29071113 -394.625 253.25 C-394.99625 254.34054687 -395.3675 255.43109375 -395.75 256.5546875 C-396.723772 259.20120854 -396.723772 259.20120854 -396.625 261.375 C-359.995 261.375 -323.365 261.375 -285.625 261.375 C-287.10166707 253.75887026 -287.10166707 253.75887026 -290.625 247.375 C-293.79112663 247.27963758 -296.93540628 247.24949364 -300.10180664 247.26147461 C-301.09681686 247.26132858 -302.09182709 247.26118256 -303.11698914 247.2610321 C-306.42306662 247.26173169 -309.72908854 247.26952621 -313.03515625 247.27734375 C-315.32059193 247.27920777 -317.60602801 247.28063175 -319.89146423 247.28163147 C-325.91998387 247.28545793 -331.94847959 247.2952893 -337.97698975 247.30633545 C-344.12332841 247.31654683 -350.26967093 247.3211285 -356.41601562 247.32617188 C-368.48568762 247.33691146 -380.55534182 247.3539894 -392.625 247.375 Z " fill="#000000" transform="translate(485.625,182.625)"/>
<path d="M0 0 C1.2994628 -0.00935994 1.2994628 -0.00935994 2.62517738 -0.01890898 C5.53343395 -0.03488752 8.44085803 -0.02221575 11.34912109 -0.00964355 C13.4318694 -0.01506251 15.51461388 -0.02218389 17.59735107 -0.03088379 C23.25845454 -0.04914693 28.919267 -0.04203718 34.58037567 -0.02936745 C40.49890439 -0.01925531 46.41740783 -0.02862815 52.3359375 -0.03491211 C62.27592451 -0.04219372 72.21579273 -0.0325873 82.15576172 -0.0135498 C93.65520816 0.00821984 105.15437094 0.00116884 116.6538105 -0.02085543 C126.51886489 -0.03899475 136.38383378 -0.04157491 146.24889946 -0.03110075 C152.14443488 -0.02485777 158.03983687 -0.02405234 163.93536377 -0.0372467 C169.47744302 -0.04878317 175.0191558 -0.0408196 180.56119537 -0.01766968 C182.59778484 -0.01237082 184.63440503 -0.01391637 186.67098236 -0.02272034 C189.44611338 -0.0336129 192.220062 -0.01998854 194.99511719 0 C195.80561838 -0.00892289 196.61611958 -0.01784577 197.45118141 -0.02703905 C201.05560594 0.02349705 203.08674351 0.19410472 205.99356079 2.41468048 C207.61298004 4.66857737 208.0654232 5.76125369 208.06005859 8.50793457 C208.08197266 9.16793457 208.10388672 9.82793457 208.12646484 10.50793457 C207.1185631 13.71318734 205.2903997 14.71677743 202.49755859 16.50793457 C199.64547183 16.88497894 197.18739527 17.03259794 194.34147644 16.98895264 C193.5245774 16.99237034 192.70767835 16.99578804 191.86602479 16.9993093 C189.13110974 17.00589341 186.39717802 16.98390373 183.66235352 16.96203613 C181.70105004 16.96090777 179.73974487 16.9615413 177.77844238 16.96380615 C172.45438024 16.96495465 167.13067796 16.9414231 161.80669951 16.91351032 C156.24267761 16.88851948 150.67864762 16.88615649 145.11457825 16.88140869 C134.57841485 16.86897212 124.04241731 16.8361412 113.50632697 16.79601073 C99.26879457 16.74295817 85.03121688 16.72135306 70.79361057 16.69800186 C48.361469 16.66038037 25.92967742 16.58069394 3.49755859 16.50793457 C3.49755859 46.53793457 3.49755859 76.56793457 3.49755859 107.50793457 C5.47755859 107.01293457 5.47755859 107.01293457 7.49755859 106.50793457 C9.42316129 106.34054409 11.35245255 106.21366681 13.28271484 106.11340332 C65.53939711 103.13157215 110.92331774 88.90308985 157.24658203 65.07849121 C178.94223812 53.97642584 200.43690722 47.07679182 224.40722656 54.77600098 C235.45271566 58.64359924 245.8948116 64.03952229 256.10473633 69.71374512 C260.06138023 71.93278476 260.06138023 71.93278476 264.49755859 72.50793457 C266.39149961 71.48583319 266.39149961 71.48583319 268.34912109 70.05090332 C269.10878174 69.52109863 269.86844238 68.99129395 270.65112305 68.44543457 C271.46669678 67.86793457 272.28227051 67.29043457 273.12255859 66.69543457 C274.85715153 65.48944664 276.59284901 64.285046 278.32958984 63.08215332 C279.20180176 62.47677734 280.07401367 61.87140137 280.97265625 61.24768066 C291.14479254 54.23872271 301.6294653 47.75366185 312.24755859 41.44543457 C313.18897705 40.88469238 314.13039551 40.3239502 315.1003418 39.74621582 C316.43391724 38.96117676 316.43391724 38.96117676 317.79443359 38.16027832 C318.97537598 37.46406372 318.97537598 37.46406372 320.18017578 36.75378418 C322.49755859 35.50793457 322.49755859 35.50793457 327.49755859 33.50793457 C327.49755859 27.89793457 327.49755859 22.28793457 327.49755859 16.50793457 C325.63500175 16.52125824 325.63500175 16.52125824 323.7348175 16.53485107 C312.03709059 16.61591219 300.33942061 16.67588824 288.64147663 16.71518326 C282.62732049 16.73606434 276.61339095 16.76439206 270.59936523 16.80969238 C264.79626931 16.8531307 258.99339144 16.87706775 253.19014549 16.88744354 C250.97532912 16.89483847 248.76052478 16.90927888 246.54580116 16.9308548 C243.44522873 16.95986134 240.34555917 16.96389163 237.24487305 16.96203613 C235.86922684 16.98360779 235.86922684 16.98360779 234.46578979 17.00561523 C230.28949459 16.97854424 228.07662284 16.86524107 224.45085144 14.62799072 C222.12740696 12.10618107 221.49755859 10.93775996 221.49755859 7.50793457 C223.77466703 1.86938035 223.77466703 1.86938035 226.49755859 0.50793457 C227.98355312 0.40949997 229.47386289 0.37290244 230.96310425 0.36749268 C231.90245819 0.36178253 232.84181213 0.35607239 233.80963135 0.35018921 C234.84343933 0.34907135 235.87724731 0.34795349 236.94238281 0.34680176 C238.57178299 0.3393544 238.57178299 0.3393544 240.23410034 0.33175659 C243.84015528 0.31710946 247.44616625 0.31032894 251.05224609 0.30480957 C253.55087282 0.29906051 256.04949953 0.29330275 258.54812622 0.28753662 C263.12131583 0.27836499 267.69449277 0.27206743 272.26769054 0.26903987 C278.99955916 0.26455881 285.73122477 0.24700915 292.46303165 0.21803927 C298.29254236 0.19382271 304.12198527 0.18609578 309.9515419 0.18436432 C312.43231436 0.18133152 314.91308583 0.17328204 317.39382553 0.16017914 C320.8606897 0.143174 324.32705666 0.1449855 327.79394531 0.15148926 C328.82370483 0.14227448 329.85346436 0.13305969 330.91442871 0.12356567 C331.8594223 0.12913483 332.80441589 0.13470398 333.77804565 0.14044189 C334.59768736 0.13897533 335.41732906 0.13750877 336.2618084 0.13599777 C339.07419768 0.60386358 340.43451265 1.56510784 342.49755859 3.50793457 C343.54453335 6.64885885 343.62841482 8.85295864 343.63800049 12.1499939 C343.64371063 13.32487366 343.64942078 14.49975342 343.65530396 15.7102356 C343.65642181 17.00069794 343.65753967 18.29116028 343.65869141 19.62072754 C343.66332029 20.99235162 343.66834505 22.36397441 343.67373657 23.7355957 C343.68685489 27.46290714 343.6933043 31.19020057 343.69774723 34.91753149 C343.70067858 37.24614167 343.70478349 39.57474694 343.7092514 41.90335464 C343.7229242 49.18891085 343.73259219 56.47445581 343.73645329 63.76002395 C343.74093511 72.17056997 343.75848955 80.58095356 343.78745389 88.99145019 C343.80906585 95.49259998 343.8191573 101.99370405 343.82049441 108.49488938 C343.8215427 112.37784006 343.82745552 116.260638 343.84531403 120.14355087 C343.86178664 123.79613992 343.86395431 127.44846128 343.85517502 131.10107422 C343.85403695 133.07892806 343.86776018 135.05677299 343.88192749 137.03457642 C343.87357376 138.80535553 343.87357376 138.80535553 343.86505127 140.61190796 C343.86651783 141.63581068 343.86798439 142.6597134 343.86949539 143.71464348 C343.43159596 147.00332207 342.45827235 148.84992133 340.49755859 151.50793457 C337.0566195 153.80189396 335.80437379 153.75973906 331.75438881 153.76520348 C330.54972768 153.77165237 329.34506656 153.77810126 328.10390055 153.78474557 C326.76023545 153.78180304 325.41657075 153.77866758 324.07290649 153.77536011 C322.6508222 153.77909464 321.22873997 153.78369537 319.80666101 153.78909075 C315.88952574 153.80136056 311.97247562 153.80105563 308.05532551 153.798702 C303.83437079 153.79829484 299.61344374 153.80932335 295.39250183 153.81881714 C287.11941368 153.83544984 278.84635402 153.84092771 270.57325055 153.84204189 C263.8504386 153.84299128 257.12763608 153.8470961 250.40482712 153.85344315 C231.3564278 153.87106164 212.30805104 153.88028105 193.25964351 153.8787822 C192.23213986 153.87870229 191.20463622 153.87862237 190.14599609 153.87854004 C189.11724205 153.87845828 188.08848801 153.87837652 187.02855961 153.87829228 C170.35168437 153.87747917 153.67489941 153.89662141 136.99805029 153.92481677 C119.88614693 153.95352006 102.77428764 153.96735848 85.6623596 153.96562922 C76.0505698 153.96496444 66.43887463 153.97049518 56.82710648 153.99198532 C48.64401158 154.01016354 40.46105422 154.0145722 32.27794792 154.00096647 C28.10111174 153.9944198 23.92453968 153.9943805 19.74772835 154.01167297 C15.92568394 154.02733423 12.10411457 154.02461197 8.28208224 154.00710471 C6.89783701 154.00401938 5.51355693 154.0077246 4.12935276 154.01882486 C2.25041967 154.03289709 0.37134215 154.01999632 -1.50758934 154.00571251 C-2.55209263 154.00614725 -3.59659592 154.00658198 -4.67275083 154.00702989 C-8.25252711 153.37563591 -9.93984726 152.04212898 -12.50244141 149.50793457 C-13.1288538 146.76239777 -13.1288538 146.76239777 -13.13063049 143.54907227 C-13.14328445 142.32930191 -13.15593842 141.10953156 -13.16897583 139.85279846 C-13.15765991 138.50411563 -13.14583244 137.15543702 -13.13354492 135.8067627 C-13.1386839 134.38410042 -13.14596502 132.9614445 -13.15522766 131.5388031 C-13.17375323 127.67708481 -13.16079645 123.81605632 -13.14113736 119.95436668 C-13.12475876 115.91366133 -13.13356265 111.87299995 -13.13865662 107.83227539 C-13.14317848 101.046478 -13.12730219 94.26095618 -13.09936523 87.47521973 C-13.06731273 79.6293317 -13.06732864 71.78394069 -13.08458 63.93801737 C-13.10044243 56.39130831 -13.09371343 48.84478152 -13.07664299 41.29808044 C-13.06976937 38.08600515 -13.07080807 34.87407582 -13.07818794 31.66200256 C-13.08584781 27.87958131 -13.07373526 24.09772583 -13.04633904 20.31540108 C-13.03945084 18.92707054 -13.03936196 17.5386872 -13.04655457 16.1503582 C-13.05523885 14.25583223 -13.03686764 12.36123967 -13.0171051 10.46679688 C-13.01429818 9.40639946 -13.01149126 8.34600204 -13.00859928 7.25347137 C-12.50244141 4.50793457 -12.50244141 4.50793457 -11.00167751 2.16725159 C-7.44136916 -0.19654278 -4.13147095 -0.04548377 0 0 Z M321.56005859 54.71105957 C320.75681152 55.19051025 319.95356445 55.66996094 319.12597656 56.16394043 C317.82490967 56.95296753 317.82490967 56.95296753 316.49755859 57.75793457 C315.60053223 58.30006592 314.70350586 58.84219727 313.77929688 59.40075684 C300.54983377 67.45696659 287.80086254 76.13216057 275.33300781 85.32019043 C274.27364014 86.09761597 274.27364014 86.09761597 273.19287109 86.89074707 C272.57428223 87.34852539 271.95569336 87.80630371 271.31835938 88.2779541 C268.43114098 90.22831697 266.39690629 91.51594063 262.86474609 91.48449707 C257.97618016 90.06669953 253.96181865 87.50096529 249.62255859 84.88293457 C231.6324984 74.33143297 212.23209855 63.99337243 190.81005859 68.50793457 C178.98664571 71.87951424 168.02693828 77.70709705 157.11010742 83.25035095 C112.26835771 106.01957083 66.95014113 119.11340591 16.6652832 121.86218262 C15.38919189 121.93348389 14.11310059 122.00478516 12.79833984 122.07824707 C11.65534424 122.13770508 10.51234863 122.19716309 9.3347168 122.25842285 C6.42286422 122.40399854 6.42286422 122.40399854 3.49755859 123.50793457 C3.49755859 128.12793457 3.49755859 132.74793457 3.49755859 137.50793457 C110.41755859 137.50793457 217.33755859 137.50793457 327.49755859 137.50793457 C327.49755859 109.45793457 327.49755859 81.40793457 327.49755859 52.50793457 C324.9117771 52.50793457 323.77799143 53.38451113 321.56005859 54.71105957 Z " fill="#000000" transform="translate(42.50244140625,35.4920654296875)"/>
</svg>
